<svg xmlns="http://www.w3.org/2000/svg" viewBox="0 0 500 500"><g id="Floor"><path id="floor" d="M111,296.54C34.25,340.86,34.25,412.71,111,457s201.22,44.32,278,0,76.76-116.17,0-160.49S187.77,252.22,111,296.54Z" style="fill:#fafafa"></path></g><g id="Shadows"><path id="Shadow" d="M197.29,468.47c30.05,17.35,78.77,17.35,108.82,0,15-8.67,22.54-20,22.54-31.41s-7.51-22.74-22.54-31.42c-30.05-17.35-78.77-17.35-108.82,0-15,8.68-22.54,20.05-22.54,31.42S182.26,459.8,197.29,468.47Z" style="fill:#e0e0e0"></path><path id="shadow" d="M103,445.1c18.89,10.91,49.52,10.91,68.41,0,9.44-5.45,14.16-12.6,14.16-19.74s-4.72-14.3-14.16-19.75c-18.89-10.91-49.52-10.91-68.41,0-9.44,5.45-14.16,12.6-14.16,19.75S93.59,439.65,103,445.1Z" style="fill:#e0e0e0"></path></g><g id="fire-proof-safe"><g id="fire-proof-safe"><path d="M302.63,318.44a2.6,2.6,0,1,0,2.6-2.59A2.61,2.61,0,0,0,302.63,318.44Z" style="fill:#455a64"></path><polygon points="359.07 355.85 347.79 355.85 304.8 318.69 305.66 318.19 348.37 354.85 359.07 354.85 359.07 355.85" style="fill:#455a64"></polygon><g id="Muscles"><ellipse cx="384.72" cy="369.03" rx="28.74" ry="28.96" style="fill:#fff"></ellipse><path d="M384.72,398.85A29.83,29.83,0,1,1,414.33,369,29.74,29.74,0,0,1,384.72,398.85Zm0-58.77A29,29,0,1,0,413.46,369,28.88,28.88,0,0,0,384.72,340.08Z" style="fill:#BA68C8"></path><path d="M397.78,353.89H371.67a3.4,3.4,0,0,0-3.4,3.4v20.53a3.4,3.4,0,0,0,3.4,3.4H373v1.68a1.27,1.27,0,0,0,1.27,1.27h3.26a1.27,1.27,0,0,0,1.27-1.27v-1.68h11.78v1.68a1.27,1.27,0,0,0,1.27,1.27h3.26a1.27,1.27,0,0,0,1.27-1.27v-1.68h1.37a3.4,3.4,0,0,0,3.4-3.4V357.29A3.4,3.4,0,0,0,397.78,353.89Z" style="fill:#fff"></path><path d="M374.93,382.9v-1.68h1.5a3.4,3.4,0,0,1-3.4-3.4V357.29a3.4,3.4,0,0,1,3.4-3.4h-4.76a3.4,3.4,0,0,0-3.4,3.4v20.53a3.4,3.4,0,0,0,3.4,3.4H373v1.68a1.27,1.27,0,0,0,1.27,1.27h3.26c.29,0-2.33-.11-2.11-.28A1.23,1.23,0,0,1,374.93,382.9Z" style="fill:#BA68C8;opacity:0.4"></path><path d="M393,383.89a1.23,1.23,0,0,1-.52-1v-1.68h-1.9v1.68a1.27,1.27,0,0,0,1.27,1.27h3.26C395.43,384.17,392.81,384.06,393,383.89Z" style="fill:#BA68C8;opacity:0.4"></path><path d="M397.78,381.72H371.67a3.91,3.91,0,0,1-3.9-3.9V357.29a3.91,3.91,0,0,1,3.9-3.9h26.11a3.91,3.91,0,0,1,3.9,3.9v20.53A3.91,3.91,0,0,1,397.78,381.72Zm-26.11-27.33a2.9,2.9,0,0,0-2.9,2.9v20.53a2.9,2.9,0,0,0,2.9,2.9h26.11a2.9,2.9,0,0,0,2.9-2.9V357.29a2.9,2.9,0,0,0-2.9-2.9Z" style="fill:#455a64"></path><path d="M395.11,376.43H374.33a1.86,1.86,0,0,1-1.86-1.86v-14a1.86,1.86,0,0,1,1.86-1.86h20.78a1.86,1.86,0,0,1,1.86,1.86V363h-1.12v-2.48a.74.74,0,0,0-.74-.74H374.33a.74.74,0,0,0-.74.74v14a.74.74,0,0,0,.74.74h20.78a.74.74,0,0,0,.74-.74v-2.48H397v2.48A1.86,1.86,0,0,1,395.11,376.43Z" style="fill:#455a64"></path><path d="M389.8,367.56a5.08,5.08,0,1,1-5.08-5.08A5.07,5.07,0,0,1,389.8,367.56Z" style="fill:#BA68C8;opacity:0.4"></path><path d="M384.72,373.13a5.58,5.58,0,1,1,5.58-5.57A5.59,5.59,0,0,1,384.72,373.13Zm0-10.15a4.58,4.58,0,1,0,4.58,4.58A4.59,4.59,0,0,0,384.72,363Z" style="fill:#455a64"></path><path d="M387,367.56a2.23,2.23,0,1,1-2.23-2.23A2.23,2.23,0,0,1,387,367.56Z" style="fill:#fff"></path><path d="M384.72,370.35a2.79,2.79,0,1,1,2.79-2.79A2.8,2.8,0,0,1,384.72,370.35Zm0-4.46a1.67,1.67,0,1,0,1.67,1.67A1.67,1.67,0,0,0,384.72,365.89Z" style="fill:#455a64"></path><path d="M397.43,372.65h-2a1.46,1.46,0,0,1-1.45-1.46v-7.27a1.46,1.46,0,0,1,1.45-1.46h2a1.47,1.47,0,0,1,1.46,1.46v7.27A1.47,1.47,0,0,1,397.43,372.65Zm-2-9.06a.34.34,0,0,0-.34.33v7.27a.34.34,0,0,0,.34.34h2a.34.34,0,0,0,.34-.34v-7.27a.34.34,0,0,0-.34-.33Z" style="fill:#455a64"></path><path d="M377.56,384.67H374.3a1.78,1.78,0,0,1-1.77-1.77v-2.18h6.8v2.18A1.77,1.77,0,0,1,377.56,384.67Zm-4-2.95v1.18a.78.78,0,0,0,.77.77h3.26a.77.77,0,0,0,.77-.77v-1.18Z" style="fill:#455a64"></path><path d="M395.14,384.67h-3.26a1.78,1.78,0,0,1-1.77-1.77v-2.18h6.8v2.18A1.77,1.77,0,0,1,395.14,384.67Zm-4-2.95v1.18a.78.78,0,0,0,.77.77h3.26a.77.77,0,0,0,.77-.77v-1.18Z" style="fill:#455a64"></path></g><path d="M357.72,404.86a.29.29,0,0,1,.22.09.32.32,0,0,1,.08.21v.78a.32.32,0,0,1-.08.21.29.29,0,0,1-.22.09H354.2v2.15h3.3a.3.3,0,0,1,.21.08.29.29,0,0,1,.09.21v.79a.29.29,0,0,1-.09.21.27.27,0,0,1-.21.09h-3.3v2.53a.31.31,0,0,1-.3.3H353a.29.29,0,0,1-.21-.09.32.32,0,0,1-.08-.21v-7.14a.32.32,0,0,1,.08-.21.29.29,0,0,1,.21-.09Z" style="fill:#BA68C8"></path><path d="M359.6,412.6a.29.29,0,0,1-.21-.09.28.28,0,0,1-.08-.21v-7.14a.28.28,0,0,1,.08-.21.29.29,0,0,1,.21-.09h.9a.31.31,0,0,1,.3.3v7.14a.31.31,0,0,1-.3.3Z" style="fill:#BA68C8"></path><path d="M365.67,404.86a3.05,3.05,0,0,1,2.1.64,2.26,2.26,0,0,1,.72,1.78,2.45,2.45,0,0,1-.37,1.38,2.17,2.17,0,0,1-1.09.84l1.53,2.73a.35.35,0,0,1,0,.12.21.21,0,0,1-.07.17.25.25,0,0,1-.17.08h-.94a.45.45,0,0,1-.33-.11.77.77,0,0,1-.15-.19l-1.45-2.58H364v2.58a.28.28,0,0,1-.08.21.29.29,0,0,1-.21.09h-.9a.31.31,0,0,1-.3-.3v-7.14a.31.31,0,0,1,.3-.3ZM364,408.34h1.61a1.93,1.93,0,0,0,1-.22.9.9,0,0,0,.38-.84.87.87,0,0,0-.38-.83,2,2,0,0,0-1-.21H364Z" style="fill:#BA68C8"></path><path d="M375.08,411.22a.28.28,0,0,1,.21.08.29.29,0,0,1,.09.21v.79a.31.31,0,0,1-.3.3h-4.85a.27.27,0,0,1-.21-.09.29.29,0,0,1-.09-.21v-7.14A.29.29,0,0,1,370,405a.27.27,0,0,1,.21-.09H375a.31.31,0,0,1,.3.3v.78a.31.31,0,0,1-.3.3h-3.57V408h3.33a.29.29,0,0,1,.21.09.28.28,0,0,1,.08.21v.78a.28.28,0,0,1-.08.21.29.29,0,0,1-.21.09h-3.33v1.84Z" style="fill:#BA68C8"></path><path d="M376.74,409.94a.3.3,0,0,1-.21-.08.29.29,0,0,1-.09-.21v-.73a.29.29,0,0,1,.09-.21.27.27,0,0,1,.21-.09h3.37a.31.31,0,0,1,.3.3v.73a.29.29,0,0,1-.09.21.32.32,0,0,1-.21.08Z" style="fill:#BA68C8"></path><path d="M385.22,404.86a3.1,3.1,0,0,1,2.08.63,2.68,2.68,0,0,1,0,3.7,3,3,0,0,1-2.08.64h-1.76v2.47a.31.31,0,0,1-.3.3h-.9a.31.31,0,0,1-.3-.3v-7.14a.31.31,0,0,1,.3-.3Zm-1.76,3.59h1.71a1.74,1.74,0,0,0,1-.25.93.93,0,0,0,.38-.86.92.92,0,0,0-.38-.86,1.83,1.83,0,0,0-1-.24h-1.71Z" style="fill:#BA68C8"></path><path d="M392.4,404.86a3.05,3.05,0,0,1,2.1.64,2.26,2.26,0,0,1,.72,1.78,2.54,2.54,0,0,1-.37,1.38,2.17,2.17,0,0,1-1.09.84l1.52,2.73a.41.41,0,0,1,0,.12.28.28,0,0,1-.25.25h-.94a.44.44,0,0,1-.32-.11.77.77,0,0,1-.15-.19l-1.45-2.58h-1.47v2.58a.31.31,0,0,1-.3.3h-.89a.27.27,0,0,1-.21-.09.29.29,0,0,1-.09-.21v-7.14a.29.29,0,0,1,.09-.21.27.27,0,0,1,.21-.09Zm-1.66,3.48h1.6a2,2,0,0,0,1-.22.9.9,0,0,0,.37-.84.87.87,0,0,0-.37-.83,2.08,2.08,0,0,0-1-.21h-1.6Z" style="fill:#BA68C8"></path><path d="M396.39,407.74a3.69,3.69,0,0,1,.24-1.16,2.48,2.48,0,0,1,.6-.95,2.87,2.87,0,0,1,1-.64,3.8,3.8,0,0,1,1.42-.24,4,4,0,0,1,1.4.23,2.92,2.92,0,0,1,1,.64,3,3,0,0,1,.6.95,3.7,3.7,0,0,1,.25,1.17c0,.15,0,.3,0,.47s0,.34,0,.52,0,.36,0,.53,0,.32,0,.46a3.75,3.75,0,0,1-.24,1.17,2.84,2.84,0,0,1-.6.95,2.92,2.92,0,0,1-1,.64,4.47,4.47,0,0,1-2.83,0,2.87,2.87,0,0,1-1-.64,2.56,2.56,0,0,1-.6-.95,3.75,3.75,0,0,1-.24-1.17c0-.14,0-.29,0-.46v-1.05C396.38,408,396.38,407.89,396.39,407.74Zm5,.06a1.64,1.64,0,0,0-1.76-1.67,1.78,1.78,0,0,0-1.25.44,1.75,1.75,0,0,0-.51,1.23c0,.28,0,.59,0,.93s0,.66,0,.94a1.75,1.75,0,0,0,.51,1.23,1.82,1.82,0,0,0,1.25.43,1.8,1.8,0,0,0,1.24-.43,1.75,1.75,0,0,0,.52-1.23c0-.28,0-.59,0-.94S401.41,408.08,401.4,407.8Z" style="fill:#BA68C8"></path><path d="M404.08,407.74a3.69,3.69,0,0,1,.24-1.16,2.75,2.75,0,0,1,.6-.95,2.92,2.92,0,0,1,1-.64,3.75,3.75,0,0,1,1.41-.24,3.91,3.91,0,0,1,1.4.23,2.92,2.92,0,0,1,1,.64,2.81,2.81,0,0,1,.61.95,3.69,3.69,0,0,1,.24,1.17c0,.15,0,.3,0,.47v1.05c0,.17,0,.32,0,.46a3.75,3.75,0,0,1-.24,1.17,2.56,2.56,0,0,1-.6.95,2.82,2.82,0,0,1-1,.64,4.44,4.44,0,0,1-2.82,0,2.92,2.92,0,0,1-1-.64,2.84,2.84,0,0,1-.6-.95,3.75,3.75,0,0,1-.24-1.17c0-.14,0-.29,0-.46v-1.05C404.07,408,404.07,407.89,404.08,407.74Zm5,.06a1.71,1.71,0,0,0-.52-1.23,2,2,0,0,0-2.48,0,1.71,1.71,0,0,0-.52,1.23c0,.28,0,.59,0,.93s0,.66,0,.94a1.71,1.71,0,0,0,.52,1.23,2,2,0,0,0,2.48,0,1.71,1.71,0,0,0,.52-1.23c0-.28,0-.59,0-.94S409.1,408.08,409.09,407.8Z" style="fill:#BA68C8"></path><path d="M417.06,404.86a.31.31,0,0,1,.3.3v.78a.31.31,0,0,1-.3.3h-3.53v2.15h3.31a.32.32,0,0,1,.21.08.29.29,0,0,1,.09.21v.79a.31.31,0,0,1-.3.3h-3.31v2.53a.31.31,0,0,1-.3.3h-.89a.31.31,0,0,1-.3-.3v-7.14a.31.31,0,0,1,.3-.3Z" style="fill:#BA68C8"></path><path d="M374.11,418a4,4,0,0,1,1.31.2,3.34,3.34,0,0,1,.94.5,2,2,0,0,1,.56.66,1.74,1.74,0,0,1,.22.68.23.23,0,0,1-.08.21.31.31,0,0,1-.22.09h-.77a.43.43,0,0,1-.28-.08.53.53,0,0,1-.17-.19,1.58,1.58,0,0,0-.51-.48,1.92,1.92,0,0,0-1-.2,2.51,2.51,0,0,0-.55.06,1.83,1.83,0,0,0-.45.17.9.9,0,0,0-.3.28.63.63,0,0,0-.11.38.71.71,0,0,0,.1.41.82.82,0,0,0,.36.28,3.47,3.47,0,0,0,.65.22l1,.23a6.48,6.48,0,0,1,1.14.34,2.7,2.7,0,0,1,.79.46,1.79,1.79,0,0,1,.45.62,2.09,2.09,0,0,1,.15.81,1.92,1.92,0,0,1-.22.92,2.1,2.1,0,0,1-.63.73,2.87,2.87,0,0,1-1,.48,4.55,4.55,0,0,1-1.33.18,4.62,4.62,0,0,1-1.19-.15,3.48,3.48,0,0,1-1-.43,2.39,2.39,0,0,1-.7-.68,1.93,1.93,0,0,1-.3-.88.26.26,0,0,1,.09-.22.32.32,0,0,1,.21-.08h.78a.45.45,0,0,1,.28.07.53.53,0,0,1,.17.19,1.32,1.32,0,0,0,.19.29,1,1,0,0,0,.3.26,2,2,0,0,0,.46.18,2.88,2.88,0,0,0,.71.07,4.48,4.48,0,0,0,.64,0,1.71,1.71,0,0,0,.54-.17,1.21,1.21,0,0,0,.38-.28.69.69,0,0,0,.14-.43.54.54,0,0,0-.16-.4,1.14,1.14,0,0,0-.47-.26,4.77,4.77,0,0,0-.78-.21c-.3-.07-.66-.15-1.07-.26a4.93,4.93,0,0,1-1-.31,2.17,2.17,0,0,1-.69-.45,1.7,1.7,0,0,1-.4-.62,2.47,2.47,0,0,1-.13-.86,1.92,1.92,0,0,1,.22-.92,2.18,2.18,0,0,1,.6-.72,3.38,3.38,0,0,1,.93-.47A3.85,3.85,0,0,1,374.11,418Z" style="fill:#BA68C8"></path><path d="M382.15,418.12a.33.33,0,0,1,.26.1.79.79,0,0,1,.16.28l2.71,7s0,0,0,.08a.31.31,0,0,1-.3.3h-.8a.43.43,0,0,1-.31-.09.59.59,0,0,1-.12-.19l-.47-1.22h-3.5l-.47,1.22a1.45,1.45,0,0,1-.12.19.44.44,0,0,1-.31.09h-.8a.31.31,0,0,1-.3-.3s0-.05,0-.08l2.71-7a.79.79,0,0,1,.16-.28.3.3,0,0,1,.26-.1Zm.6,4.86-1.21-3.15L380.32,423Z" style="fill:#BA68C8"></path><path d="M391.31,418.12a.31.31,0,0,1,.3.3v.79a.31.31,0,0,1-.3.3h-3.53v2.14h3.31a.31.31,0,0,1,.3.3v.78a.31.31,0,0,1-.3.3h-3.31v2.53a.32.32,0,0,1-.08.21.29.29,0,0,1-.21.09h-.9a.31.31,0,0,1-.3-.3v-7.14a.31.31,0,0,1,.3-.3Z" style="fill:#BA68C8"></path><path d="M398,424.48a.31.31,0,0,1,.3.3v.78a.31.31,0,0,1-.3.3h-4.85a.31.31,0,0,1-.3-.3v-7.14a.31.31,0,0,1,.3-.3H398a.31.31,0,0,1,.3.3v.79a.31.31,0,0,1-.3.3h-3.57v1.75h3.33a.31.31,0,0,1,.3.3v.79a.29.29,0,0,1-.09.21.32.32,0,0,1-.21.08h-3.33v1.84Z" style="fill:#BA68C8"></path></g></g><g id="smoke-detector"><g id="smoke-detectors"><path d="M311,235.58a2.6,2.6,0,1,0,2.59-2.6A2.59,2.59,0,0,0,311,235.58Z" style="fill:#455a64"></path><polygon points="409.19 277.02 360.83 277.02 313.19 235.83 314.06 235.32 361.41 276.02 409.19 276.02 409.19 277.02" style="fill:#455a64"></polygon><g id="Stomach"><path d="M438.36,306.35A29.83,29.83,0,1,1,468,276.52,29.76,29.76,0,0,1,438.36,306.35Zm0-58.78a29,29,0,1,0,28.74,28.95A28.88,28.88,0,0,0,438.36,247.57Z" style="fill:#BA68C8"></path><ellipse cx="438.36" cy="276.52" rx="28.74" ry="28.96" style="fill:#fff"></ellipse><path d="M418.19,263.77h40a0,0,0,0,1,0,0V267a5.18,5.18,0,0,1-5.18,5.18H423.37a5.18,5.18,0,0,1-5.18-5.18v-3.24A0,0,0,0,1,418.19,263.77Z" style="fill:#455a64"></path><rect x="431.67" y="273.93" width="13.02" height="2.73" style="fill:#455a64"></rect><rect x="424.02" y="273.93" width="5.59" height="2.73" style="fill:#455a64"></rect><rect x="446.75" y="273.93" width="5.59" height="2.73" transform="translate(899.09 550.58) rotate(180)" style="fill:#455a64"></rect><path d="M439,283.72c-.79,2.75-4.27,4.13-5,7.1a5.11,5.11,0,0,0,1.14,4.42,9.41,9.41,0,0,0,3.9,2.63c-1.38-1-1.24-3.17-.36-4.62s2.32-2.49,3.33-3.85a7.24,7.24,0,0,0,1.49-4.22,6,6,0,0,0-1.47-4,5.63,5.63,0,0,0-4.24-1.83l.24.21a3.8,3.8,0,0,1,1.06,2A4.45,4.45,0,0,1,439,283.72Z" style="fill:#BA68C8"></path><path d="M432.23,293.1a3.87,3.87,0,0,1-1.13-2.82,5.05,5.05,0,0,1,2.09-3.83,14.68,14.68,0,0,0,1.75-1.3,2.64,2.64,0,0,0,.91-2,2.93,2.93,0,0,1-.05,2.92c-.56.88-1.4,1.58-2,2.41a5.37,5.37,0,0,0-.67,5.34A4.23,4.23,0,0,1,432.23,293.1Z" style="fill:#BA68C8"></path><path d="M443.11,289.64a10.82,10.82,0,0,1-.69.86l-1.14,1.31a4.17,4.17,0,0,0-1.23,2.23,11.1,11.1,0,0,1,3.11-2.05,4.13,4.13,0,0,0,1.79-2.23,5,5,0,0,0-.51-4.51,6,6,0,0,1-.12,1.42,7.6,7.6,0,0,1-.37,1.42A7,7,0,0,1,443.11,289.64Z" style="fill:#BA68C8"></path><path d="M439,283.72c-.79,2.75-4.27,4.13-5,7.1a5.11,5.11,0,0,0,1.14,4.42,9.41,9.41,0,0,0,3.9,2.63c-1.38-1-1.24-3.17-.36-4.62s2.32-2.49,3.33-3.85a7.24,7.24,0,0,0,1.49-4.22,6,6,0,0,0-1.47-4,5.63,5.63,0,0,0-4.24-1.83l.24.21a3.8,3.8,0,0,1,1.06,2A4.45,4.45,0,0,1,439,283.72Z" style="fill:#fff;opacity:0.6000000000000001"></path><path d="M432.23,293.1a3.87,3.87,0,0,1-1.13-2.82,5.05,5.05,0,0,1,2.09-3.83,14.68,14.68,0,0,0,1.75-1.3,2.64,2.64,0,0,0,.91-2,2.93,2.93,0,0,1-.05,2.92c-.56.88-1.4,1.58-2,2.41a5.37,5.37,0,0,0-.67,5.34A4.23,4.23,0,0,1,432.23,293.1Z" style="fill:#fff;opacity:0.6000000000000001"></path><path d="M443.11,289.64a10.82,10.82,0,0,1-.69.86l-1.14,1.31a4.17,4.17,0,0,0-1.23,2.23,11.1,11.1,0,0,1,3.11-2.05,4.13,4.13,0,0,0,1.79-2.23,5,5,0,0,0-.51-4.51,6,6,0,0,1-.12,1.42,7.6,7.6,0,0,1-.37,1.42A7,7,0,0,1,443.11,289.64Z" style="fill:#fff;opacity:0.6000000000000001"></path></g><path d="M423.08,311a4,4,0,0,1,1.31.2,3.21,3.21,0,0,1,.94.5,2.19,2.19,0,0,1,.57.66,1.72,1.72,0,0,1,.21.67.24.24,0,0,1-.08.22.3.3,0,0,1-.22.08H425a.43.43,0,0,1-.28-.07.63.63,0,0,1-.17-.19,1.39,1.39,0,0,0-.51-.48,1.91,1.91,0,0,0-1-.21,2.35,2.35,0,0,0-.54.06,1.47,1.47,0,0,0-.46.18.9.9,0,0,0-.3.28.63.63,0,0,0-.11.38.71.71,0,0,0,.1.41.82.82,0,0,0,.36.28,3.47,3.47,0,0,0,.65.22l1,.23a7.53,7.53,0,0,1,1.14.33,2.58,2.58,0,0,1,.79.47,1.79,1.79,0,0,1,.45.62,2.09,2.09,0,0,1,.15.81,1.92,1.92,0,0,1-.22.92,2.1,2.1,0,0,1-.63.73,3.27,3.27,0,0,1-1,.48,4.55,4.55,0,0,1-1.33.18,4.49,4.49,0,0,1-1.18-.15,3.54,3.54,0,0,1-1-.43,2.39,2.39,0,0,1-.7-.68,2,2,0,0,1-.3-.88.26.26,0,0,1,.09-.22.28.28,0,0,1,.21-.08H421a.53.53,0,0,1,.28.06.48.48,0,0,1,.17.2,1.6,1.6,0,0,0,.19.29.84.84,0,0,0,.3.25,1.59,1.59,0,0,0,.47.19,3.29,3.29,0,0,0,.7.07,4.48,4.48,0,0,0,.64-.05,1.91,1.91,0,0,0,.54-.17,1.24,1.24,0,0,0,.38-.29.64.64,0,0,0,.14-.42.54.54,0,0,0-.16-.4,1.14,1.14,0,0,0-.47-.26,4.63,4.63,0,0,0-.77-.21c-.31-.07-.67-.15-1.08-.26a6,6,0,0,1-1-.31,2.17,2.17,0,0,1-.69-.45,1.79,1.79,0,0,1-.4-.62,2.47,2.47,0,0,1-.13-.86,1.92,1.92,0,0,1,.22-.92,2.18,2.18,0,0,1,.6-.72,3.12,3.12,0,0,1,.93-.47A3.85,3.85,0,0,1,423.08,311Z" style="fill:#BA68C8"></path><path d="M431.22,315.09l2.1-3.65.15-.18a.41.41,0,0,1,.32-.12h.75a.27.27,0,0,1,.21.09.29.29,0,0,1,.09.21v7.14a.29.29,0,0,1-.09.21.27.27,0,0,1-.21.09h-.89a.31.31,0,0,1-.3-.3v-4.32l-1.44,2.49a.6.6,0,0,1-.15.18.37.37,0,0,1-.26.09h-.57a.35.35,0,0,1-.25-.09.86.86,0,0,1-.16-.18l-1.44-2.49v4.32a.32.32,0,0,1-.08.21.29.29,0,0,1-.21.09h-.9a.31.31,0,0,1-.3-.3v-7.14a.31.31,0,0,1,.3-.3h.75a.42.42,0,0,1,.33.12l.15.18Z" style="fill:#BA68C8"></path><path d="M436.3,314a3.75,3.75,0,0,1,.24-1.17,2.84,2.84,0,0,1,.6-.95,2.92,2.92,0,0,1,1-.64,3.78,3.78,0,0,1,1.41-.24,4,4,0,0,1,1.41.23,3,3,0,0,1,1,.64,2.81,2.81,0,0,1,.61,1,3.81,3.81,0,0,1,.24,1.18c0,.14,0,.29,0,.46v1.05c0,.17,0,.33,0,.47a3.69,3.69,0,0,1-.24,1.16,2.48,2.48,0,0,1-.6.95,2.82,2.82,0,0,1-1,.64,4.44,4.44,0,0,1-2.82,0,2.92,2.92,0,0,1-1-.64,2.75,2.75,0,0,1-.6-.95,3.69,3.69,0,0,1-.24-1.16c0-.14,0-.3,0-.47s0-.34,0-.52,0-.36,0-.53S436.29,314.17,436.3,314Zm5,.05a1.71,1.71,0,0,0-.52-1.23,1.76,1.76,0,0,0-3,1.23c0,.28,0,.59,0,.94s0,.65,0,.93a1.75,1.75,0,0,0,.52,1.23,2,2,0,0,0,2.48,0,1.71,1.71,0,0,0,.52-1.23c0-.28,0-.59,0-.93S441.32,314.36,441.31,314.08Z" style="fill:#BA68C8"></path><path d="M450.13,318.42a.18.18,0,0,1,.07.09.56.56,0,0,0,0,.07.31.31,0,0,1-.3.3h-1.05a.52.52,0,0,1-.36-.12l-.15-.13-2.6-2.93v2.88a.29.29,0,0,1-.09.21.26.26,0,0,1-.21.09h-.89a.31.31,0,0,1-.3-.3v-7.14a.31.31,0,0,1,.3-.3h.89a.26.26,0,0,1,.21.09.29.29,0,0,1,.09.21V314l2.41-2.65a.84.84,0,0,1,.21-.18.52.52,0,0,1,.29-.07h1a.31.31,0,0,1,.3.3.28.28,0,0,1-.07.17l-3,3.24Z" style="fill:#BA68C8"></path><path d="M456.35,317.5a.31.31,0,0,1,.3.3v.78a.31.31,0,0,1-.3.3H451.5a.31.31,0,0,1-.3-.3v-7.14a.31.31,0,0,1,.3-.3h4.76a.26.26,0,0,1,.21.09.29.29,0,0,1,.09.21v.79a.29.29,0,0,1-.3.29h-3.57v1.76H456a.31.31,0,0,1,.3.3v.78a.26.26,0,0,1-.09.21.29.29,0,0,1-.21.09h-3.33v1.84Z" style="fill:#BA68C8"></path><path d="M410.19,324.41a4.33,4.33,0,0,1,1.42.21,2.9,2.9,0,0,1,1,.61,2.76,2.76,0,0,1,.61,1,4,4,0,0,1,.26,1.26,14.77,14.77,0,0,1,0,1.63,4,4,0,0,1-.26,1.26,2.51,2.51,0,0,1-.61,1,2.61,2.61,0,0,1-1,.62,4.15,4.15,0,0,1-1.39.21h-2.78a.29.29,0,0,1-.21-.09.26.26,0,0,1-.09-.21V324.7a.29.29,0,0,1,.09-.21.32.32,0,0,1,.21-.08Zm1.81,3a2,2,0,0,0-.14-.66,1.42,1.42,0,0,0-.34-.53,1.64,1.64,0,0,0-.57-.36,2.49,2.49,0,0,0-.82-.12h-1.48v5h1.54a2.06,2.06,0,0,0,.78-.13,1.65,1.65,0,0,0,.56-.34,1.53,1.53,0,0,0,.33-.53,2.11,2.11,0,0,0,.14-.67A14.77,14.77,0,0,0,412,327.46Z" style="fill:#BA68C8"></path><path d="M420.09,330.76a.31.31,0,0,1,.3.3v.78a.26.26,0,0,1-.09.21.29.29,0,0,1-.21.09h-4.85a.29.29,0,0,1-.21-.09.26.26,0,0,1-.09-.21V324.7a.29.29,0,0,1,.09-.21.32.32,0,0,1,.21-.08H420a.32.32,0,0,1,.21.08.29.29,0,0,1,.09.21v.79a.31.31,0,0,1-.3.3h-3.57v1.75h3.33a.31.31,0,0,1,.3.3v.79a.31.31,0,0,1-.3.3h-3.33v1.83Z" style="fill:#BA68C8"></path><path d="M426.91,324.41a.32.32,0,0,1,.21.08.29.29,0,0,1,.09.21v.79a.31.31,0,0,1-.3.3h-2v6a.26.26,0,0,1-.09.21.29.29,0,0,1-.21.09h-.89a.29.29,0,0,1-.21-.09.26.26,0,0,1-.09-.21v-6h-2a.31.31,0,0,1-.3-.3v-.79a.29.29,0,0,1,.09-.21.32.32,0,0,1,.21-.08Z" style="fill:#BA68C8"></path><path d="M433.47,330.76a.29.29,0,0,1,.21.09.28.28,0,0,1,.08.21v.78a.25.25,0,0,1-.08.21.29.29,0,0,1-.21.09h-4.86a.29.29,0,0,1-.21-.09.25.25,0,0,1-.08-.21V324.7a.28.28,0,0,1,.08-.21.32.32,0,0,1,.21-.08h4.77a.32.32,0,0,1,.21.08.29.29,0,0,1,.09.21v.79a.31.31,0,0,1-.3.3h-3.57v1.75h3.32a.26.26,0,0,1,.21.09.29.29,0,0,1,.09.21v.79a.29.29,0,0,1-.09.21.26.26,0,0,1-.21.09h-3.32v1.83Z" style="fill:#BA68C8"></path><path d="M439.82,329.69a.32.32,0,0,1,.12-.22.37.37,0,0,1,.2-.07h.9a.32.32,0,0,1,.21.08.23.23,0,0,1,.08.22,2.81,2.81,0,0,1-.22.91,2.41,2.41,0,0,1-.59.81,3,3,0,0,1-1,.6,4,4,0,0,1-1.47.23,3.75,3.75,0,0,1-1.35-.22,2.8,2.8,0,0,1-1-.63,2.83,2.83,0,0,1-.64-1,4,4,0,0,1-.27-1.23c0-.28,0-.59,0-.93s0-.64,0-.92a4,4,0,0,1,.27-1.23,2.83,2.83,0,0,1,.64-1,2.8,2.8,0,0,1,1-.63,3.75,3.75,0,0,1,1.35-.22,4,4,0,0,1,1.47.23,3.1,3.1,0,0,1,1,.59,2.48,2.48,0,0,1,.59.83,2.7,2.7,0,0,1,.22.9.21.21,0,0,1-.08.21.29.29,0,0,1-.21.09h-.9a.37.37,0,0,1-.21-.08.31.31,0,0,1-.12-.21,1.16,1.16,0,0,0-.15-.43,1.52,1.52,0,0,0-.34-.38,1.65,1.65,0,0,0-.53-.27,2.39,2.39,0,0,0-.75-.1,1.9,1.9,0,0,0-.75.13,1.86,1.86,0,0,0-.54.35,1.69,1.69,0,0,0-.33.53,2.43,2.43,0,0,0-.14.66c0,.28,0,.59,0,.92s0,.65,0,.93a2.28,2.28,0,0,0,.14.66,1.69,1.69,0,0,0,.33.53,1.86,1.86,0,0,0,.54.35,1.9,1.9,0,0,0,.75.13,2.39,2.39,0,0,0,.75-.1,1.7,1.7,0,0,0,.54-.27,1.52,1.52,0,0,0,.34-.38A1.16,1.16,0,0,0,439.82,329.69Z" style="fill:#BA68C8"></path><path d="M447.78,324.41a.32.32,0,0,1,.21.08.29.29,0,0,1,.09.21v.79a.31.31,0,0,1-.3.3h-2v6a.26.26,0,0,1-.09.21.29.29,0,0,1-.21.09h-.89a.27.27,0,0,1-.21-.09.26.26,0,0,1-.09-.21v-6h-2a.31.31,0,0,1-.3-.3v-.79a.29.29,0,0,1,.09-.21.32.32,0,0,1,.21-.08Z" style="fill:#BA68C8"></path><path d="M448.76,327.29a4.51,4.51,0,0,1,.24-1.17,2.84,2.84,0,0,1,.6-.95,2.92,2.92,0,0,1,1-.64,4.44,4.44,0,0,1,2.82,0,2.65,2.65,0,0,1,1,.64,2.72,2.72,0,0,1,.61.95,3.69,3.69,0,0,1,.24,1.17c0,.14,0,.3,0,.47s0,.34,0,.52,0,.36,0,.53,0,.32,0,.46a4.12,4.12,0,0,1-.23,1.17,2.72,2.72,0,0,1-.61.95,2.8,2.8,0,0,1-1,.63,4.44,4.44,0,0,1-2.82,0,2.9,2.9,0,0,1-1-.63,2.84,2.84,0,0,1-.6-.95,4.51,4.51,0,0,1-.24-1.17c0-.14,0-.3,0-.46s0-.35,0-.53,0-.36,0-.52S448.76,327.43,448.76,327.29Zm5,.06a1.75,1.75,0,0,0-.51-1.24,1.78,1.78,0,0,0-1.25-.43,1.61,1.61,0,0,0-1.75,1.67q0,.42,0,.93t0,.93a1.61,1.61,0,0,0,1.75,1.66,1.78,1.78,0,0,0,1.25-.43,1.75,1.75,0,0,0,.51-1.23c0-.28,0-.59,0-.93S453.79,327.63,453.77,327.35Z" style="fill:#BA68C8"></path><path d="M459.87,324.41a3.05,3.05,0,0,1,2.1.64,2.25,2.25,0,0,1,.72,1.78,2.44,2.44,0,0,1-.37,1.37,2.24,2.24,0,0,1-1.09.85l1.53,2.73a.27.27,0,0,1,0,.12.22.22,0,0,1-.07.17.23.23,0,0,1-.17.07h-.94a.45.45,0,0,1-.33-.1.8.8,0,0,1-.15-.2l-1.45-2.57h-1.47v2.57a.25.25,0,0,1-.08.21.29.29,0,0,1-.21.09H457a.29.29,0,0,1-.21-.09.26.26,0,0,1-.09-.21V324.7a.29.29,0,0,1,.09-.21.32.32,0,0,1,.21-.08Zm-1.66,3.48h1.61a2,2,0,0,0,1-.22.9.9,0,0,0,.38-.84.86.86,0,0,0-.38-.83,2,2,0,0,0-1-.21h-1.61Z" style="fill:#BA68C8"></path><path d="M466.78,324.3a4,4,0,0,1,1.3.19,3.32,3.32,0,0,1,.94.5,2.19,2.19,0,0,1,.57.66,1.79,1.79,0,0,1,.22.68.23.23,0,0,1-.08.21.33.33,0,0,1-.22.09h-.77a.5.5,0,0,1-.28-.07.7.7,0,0,1-.18-.2,1.45,1.45,0,0,0-.5-.48,1.92,1.92,0,0,0-1-.2,2.51,2.51,0,0,0-.55.06,1.83,1.83,0,0,0-.45.17.93.93,0,0,0-.3.29.6.6,0,0,0-.11.37.77.77,0,0,0,.1.42.84.84,0,0,0,.35.27,3.89,3.89,0,0,0,.66.22l1,.23a7.46,7.46,0,0,1,1.14.34,2.84,2.84,0,0,1,.79.46,1.74,1.74,0,0,1,.45.63,2.13,2.13,0,0,1-.07,1.73,2.29,2.29,0,0,1-.63.73,3.27,3.27,0,0,1-1,.48,4.93,4.93,0,0,1-1.33.17,4.62,4.62,0,0,1-1.19-.15,3.22,3.22,0,0,1-1-.43,2.27,2.27,0,0,1-.7-.68,1.72,1.72,0,0,1-.3-.88.26.26,0,0,1,.09-.22.32.32,0,0,1,.21-.08h.77a.46.46,0,0,1,.29.07.49.49,0,0,1,.17.2,1.54,1.54,0,0,0,.19.28,1.05,1.05,0,0,0,.29.26,2.31,2.31,0,0,0,.47.18,2.88,2.88,0,0,0,.71.07,4.48,4.48,0,0,0,.64-.05,2.13,2.13,0,0,0,.54-.16,1.22,1.22,0,0,0,.37-.29.64.64,0,0,0,.15-.43.5.5,0,0,0-.16-.39,1.1,1.1,0,0,0-.47-.27q-.32-.11-.78-.21l-1.07-.25a6.13,6.13,0,0,1-1-.32,2.24,2.24,0,0,1-.68-.45,1.51,1.51,0,0,1-.4-.62,2.46,2.46,0,0,1-.14-.86,2.08,2.08,0,0,1,.22-.92,2.18,2.18,0,0,1,.61-.71,2.91,2.91,0,0,1,.93-.47A3.55,3.55,0,0,1,466.78,324.3Z" style="fill:#BA68C8"></path></g></g><g id="fire-escape-ladders"><g id="fire-escape-ladders"><path d="M309.89,146.43a2.6,2.6,0,1,1,2.6,2.6A2.6,2.6,0,0,1,309.89,146.43Z" style="fill:#455a64"></path><polygon points="394.7 139.32 325.83 139.32 312.27 145.98 312.71 146.88 326.06 140.32 394.7 140.32 394.7 139.32" style="fill:#455a64"></polygon><g id="mouth-and-speech"><ellipse cx="423.94" cy="140.34" rx="28.74" ry="28.96" style="fill:#fff"></ellipse><path d="M423.94,170.17a29.83,29.83,0,1,1,29.61-29.83A29.76,29.76,0,0,1,423.94,170.17Zm0-58.78a29,29,0,1,0,28.73,29A28.88,28.88,0,0,0,423.94,111.39Z" style="fill:#BA68C8"></path></g><path d="M420.87,129.39a2.52,2.52,0,1,0-2.52-2.52A2.51,2.51,0,0,0,420.87,129.39Zm-11.43,14.15-7.1-1.61a1.56,1.56,0,0,0-1.88,1.18,1.63,1.63,0,0,0,0,.62,1.59,1.59,0,0,0,1.21,1.27l7.9,1.79a2,2,0,0,0,2-.64c.27-.36,1.91-2.47,3.31-4.26L412,139.37ZM429.3,131a1.06,1.06,0,0,0-1.44-.41l-4.5,2.48L421,131.66h0L418.07,130l-.06,0-.1,0-.09,0-.22,0h0l-5.33-.42a1.72,1.72,0,0,0-1.54.71l-3.1,4.26a1.06,1.06,0,0,0,1.72,1.24l3-4.08,3.52.27L413.5,137l-.8,1.79h0l6.13,5.37L416,150.9a1.59,1.59,0,0,0,.85,2.07,1.62,1.62,0,0,0,.61.12,1.58,1.58,0,0,0,1.45-1l3.12-7.48a2,2,0,0,0-.3-2.07l-3.83-4.19,2.15-4.77,2.43,1.38a1.72,1.72,0,0,0,1.69,0l4.68-2.59A1.06,1.06,0,0,0,429.3,131Z" style="fill:#455a64"></path><path d="M425.06,158.1h-5.28a.5.5,0,0,1-.5-.5.51.51,0,0,1,.5-.5h4.78v-4.77a.5.5,0,0,1,.5-.5h4.78v-4.78a.5.5,0,0,1,.5-.5h4.77v-4.78a.51.51,0,0,1,.5-.5h4.78V136.5a.5.5,0,0,1,.5-.5h5.28a.5.5,0,0,1,.5.5.51.51,0,0,1-.5.5h-4.78v4.77a.5.5,0,0,1-.5.5h-4.78v4.78a.5.5,0,0,1-.5.5h-4.77v4.78a.51.51,0,0,1-.5.5h-4.78v4.77A.5.5,0,0,1,425.06,158.1Z" style="fill:#455a64"></path><path d="M440.81,132.41a.5.5,0,0,1-.5-.5v-4.28H436a.5.5,0,0,1,0-1h4.79a.5.5,0,0,1,.5.5v4.78A.5.5,0,0,1,440.81,132.41Z" style="fill:#BA68C8"></path><path d="M434.6,133.84a.5.5,0,0,1-.35-.15.5.5,0,0,1,0-.71l6.2-6.2a.5.5,0,0,1,.71,0,.48.48,0,0,1,0,.7l-6.2,6.21A.51.51,0,0,1,434.6,133.84Z" style="fill:#BA68C8"></path><path d="M417.79,174.37a.29.29,0,0,1,.22.09.3.3,0,0,1,.08.21v.78a.32.32,0,0,1-.08.21.29.29,0,0,1-.22.09h-3.52v2.14h3.3a.26.26,0,0,1,.21.09.29.29,0,0,1,.09.21V179a.29.29,0,0,1-.09.21.25.25,0,0,1-.21.08h-3.3v2.54a.29.29,0,0,1-.09.21.28.28,0,0,1-.21.08h-.89a.25.25,0,0,1-.21-.08.29.29,0,0,1-.09-.21v-7.14a.27.27,0,0,1,.09-.21.26.26,0,0,1,.21-.09Z" style="fill:#BA68C8"></path><path d="M419.67,182.1a.28.28,0,0,1-.21-.08.32.32,0,0,1-.08-.21v-7.14a.3.3,0,0,1,.08-.21.29.29,0,0,1,.21-.09h.9a.29.29,0,0,1,.21.09.27.27,0,0,1,.09.21v7.14a.29.29,0,0,1-.09.21.28.28,0,0,1-.21.08Z" style="fill:#BA68C8"></path><path d="M425.74,174.37a3.05,3.05,0,0,1,2.1.64,2.26,2.26,0,0,1,.72,1.78,2.42,2.42,0,0,1-.37,1.37,2.18,2.18,0,0,1-1.09.85l1.53,2.73a.27.27,0,0,1,0,.12.22.22,0,0,1-.07.17.23.23,0,0,1-.17.07h-.94a.45.45,0,0,1-.33-.1.77.77,0,0,1-.15-.19l-1.45-2.58h-1.47v2.58a.27.27,0,0,1-.29.29h-.9a.28.28,0,0,1-.21-.08.29.29,0,0,1-.09-.21v-7.14a.27.27,0,0,1,.09-.21.29.29,0,0,1,.21-.09Zm-1.66,3.48h1.61a1.93,1.93,0,0,0,1-.22.9.9,0,0,0,.38-.84.87.87,0,0,0-.38-.83,2,2,0,0,0-1-.21h-1.61Z" style="fill:#BA68C8"></path><path d="M435.15,180.72a.31.31,0,0,1,.3.3v.79a.29.29,0,0,1-.09.21.28.28,0,0,1-.21.08H430.3a.26.26,0,0,1-.21-.08.29.29,0,0,1-.09-.21v-7.14a.31.31,0,0,1,.3-.3h4.76a.29.29,0,0,1,.21.09.27.27,0,0,1,.09.21v.78a.31.31,0,0,1-.3.3h-3.57v1.76h3.33a.32.32,0,0,1,.21.08.29.29,0,0,1,.09.21v.79a.31.31,0,0,1-.3.3h-3.33v1.83Z" style="fill:#BA68C8"></path><path d="M408.27,194a.29.29,0,0,1,.21.09.26.26,0,0,1,.09.21v.78a.31.31,0,0,1-.3.3h-4.85a.31.31,0,0,1-.3-.3v-7.14a.31.31,0,0,1,.3-.3h4.77a.29.29,0,0,1,.21.09.32.32,0,0,1,.08.21v.78a.3.3,0,0,1-.08.21.29.29,0,0,1-.21.09h-3.57v1.76h3.32a.31.31,0,0,1,.3.3v.78a.31.31,0,0,1-.3.3h-3.32V194Z" style="fill:#BA68C8"></path><path d="M412.59,187.52a4,4,0,0,1,1.31.2,3.09,3.09,0,0,1,.94.5,2.15,2.15,0,0,1,.57.65,1.61,1.61,0,0,1,.21.68.25.25,0,0,1-.08.22.28.28,0,0,1-.21.08h-.78a.45.45,0,0,1-.28-.07.79.79,0,0,1-.17-.19,1.36,1.36,0,0,0-.5-.48,2,2,0,0,0-1-.21,2.35,2.35,0,0,0-.54.06,1.58,1.58,0,0,0-.46.18,1,1,0,0,0-.3.28.7.7,0,0,0-.11.38.64.64,0,0,0,.11.41.79.79,0,0,0,.35.28,2.86,2.86,0,0,0,.66.21l1,.24a6.4,6.4,0,0,1,1.15.33,2.65,2.65,0,0,1,.78.47,1.7,1.7,0,0,1,.46.62,2.29,2.29,0,0,1,.14.81,2,2,0,0,1-.85,1.65,3.21,3.21,0,0,1-1,.48,4.67,4.67,0,0,1-1.34.18,4.54,4.54,0,0,1-1.18-.15,3.36,3.36,0,0,1-1-.43,2.4,2.4,0,0,1-.7-.68,1.75,1.75,0,0,1-.3-.89.24.24,0,0,1,.08-.21.29.29,0,0,1,.22-.08h.77a.6.6,0,0,1,.29.06.54.54,0,0,1,.16.2,2.4,2.4,0,0,0,.19.29,1,1,0,0,0,.3.25,1.59,1.59,0,0,0,.47.19,3.36,3.36,0,0,0,.7.07,4.48,4.48,0,0,0,.64,0,1.91,1.91,0,0,0,.54-.17,1.13,1.13,0,0,0,.38-.29.64.64,0,0,0,.14-.42.55.55,0,0,0-.15-.4,1.45,1.45,0,0,0-.47-.27q-.32-.1-.78-.21c-.31-.06-.67-.15-1.07-.25a6.17,6.17,0,0,1-1-.31,2.36,2.36,0,0,1-.69-.45,1.74,1.74,0,0,1-.4-.63,2.41,2.41,0,0,1-.13-.85,1.92,1.92,0,0,1,.22-.92,2.21,2.21,0,0,1,.61-.72,3,3,0,0,1,.92-.47A3.9,3.9,0,0,1,412.59,187.52Z" style="fill:#BA68C8"></path><path d="M421.86,192.91a.31.31,0,0,1,.11-.21.33.33,0,0,1,.21-.07h.89a.3.3,0,0,1,.22.08.24.24,0,0,1,.08.22,2.72,2.72,0,0,1-.23.9,2.2,2.2,0,0,1-.59.82,3.24,3.24,0,0,1-1,.6,4.28,4.28,0,0,1-1.47.23,3.74,3.74,0,0,1-1.35-.23,2.94,2.94,0,0,1-1-.63,2.86,2.86,0,0,1-.63-1,4.09,4.09,0,0,1-.27-1.23c0-.28,0-.59,0-.93s0-.65,0-.93a4.09,4.09,0,0,1,.27-1.23,2.86,2.86,0,0,1,.63-1,2.94,2.94,0,0,1,1-.63,3.74,3.74,0,0,1,1.35-.23,4.28,4.28,0,0,1,1.47.23,3.24,3.24,0,0,1,1,.6,2.2,2.2,0,0,1,.59.82,2.85,2.85,0,0,1,.23.9.25.25,0,0,1-.08.22.35.35,0,0,1-.22.08h-.89a.31.31,0,0,1-.21-.07.28.28,0,0,1-.12-.21,1.46,1.46,0,0,0-.16-.44,1.28,1.28,0,0,0-.33-.37,1.76,1.76,0,0,0-.53-.27,2.37,2.37,0,0,0-.75-.11,2.1,2.1,0,0,0-.75.13,1.5,1.5,0,0,0-.54.36,1.59,1.59,0,0,0-.33.53,2,2,0,0,0-.14.65c0,.28,0,.59,0,.93s0,.65,0,.93a2.1,2.1,0,0,0,.14.66,1.65,1.65,0,0,0,.33.52,1.37,1.37,0,0,0,.54.35,1.89,1.89,0,0,0,.75.14,2.37,2.37,0,0,0,.75-.11,2,2,0,0,0,.54-.27,1.28,1.28,0,0,0,.33-.37A1.46,1.46,0,0,0,421.86,192.91Z" style="fill:#BA68C8"></path><path d="M428.22,187.63a.37.37,0,0,1,.27.09.78.78,0,0,1,.15.29l2.71,7a.19.19,0,0,1,0,.08.32.32,0,0,1-.08.21.29.29,0,0,1-.21.09h-.8a.39.39,0,0,1-.31-.1.47.47,0,0,1-.12-.18l-.48-1.22h-3.49l-.48,1.22a.47.47,0,0,1-.12.18.39.39,0,0,1-.31.1h-.79a.31.31,0,0,1-.3-.3.19.19,0,0,1,0-.08l2.71-7a.78.78,0,0,1,.15-.29.37.37,0,0,1,.27-.09Zm.61,4.85-1.21-3.15-1.22,3.15Z" style="fill:#BA68C8"></path><path d="M435.63,187.63a3.13,3.13,0,0,1,2.08.63,2.68,2.68,0,0,1,0,3.7,3.08,3.08,0,0,1-2.08.64h-1.77v2.47a.31.31,0,0,1-.3.3h-.89a.31.31,0,0,1-.3-.3v-7.14a.31.31,0,0,1,.3-.3Zm-1.77,3.59h1.71a1.78,1.78,0,0,0,1-.25,1,1,0,0,0,.38-.86.94.94,0,0,0-.38-.86,1.86,1.86,0,0,0-1-.24h-1.71Z" style="fill:#BA68C8"></path><path d="M444.8,194a.27.27,0,0,1,.21.09.26.26,0,0,1,.09.21v.78a.29.29,0,0,1-.09.21.27.27,0,0,1-.21.09H440a.31.31,0,0,1-.3-.3v-7.14a.31.31,0,0,1,.3-.3h4.77a.29.29,0,0,1,.21.09.32.32,0,0,1,.08.21v.78a.3.3,0,0,1-.08.21.29.29,0,0,1-.21.09h-3.57v1.76h3.32a.31.31,0,0,1,.3.3v.78a.31.31,0,0,1-.3.3h-3.32V194Z" style="fill:#BA68C8"></path><path d="M404.32,207.25a.31.31,0,0,1,.3.3v.78a.26.26,0,0,1-.09.21.29.29,0,0,1-.21.09h-4.84a.29.29,0,0,1-.21-.09.26.26,0,0,1-.09-.21v-7.14a.29.29,0,0,1,.09-.21.28.28,0,0,1,.21-.08h.9a.24.24,0,0,1,.2.08.29.29,0,0,1,.09.21v6.06Z" style="fill:#BA68C8"></path><path d="M409.32,200.9a.36.36,0,0,1,.26.09.9.9,0,0,1,.16.28l2.71,7s0,0,0,.07a.26.26,0,0,1-.09.21.29.29,0,0,1-.21.09h-.8a.43.43,0,0,1-.31-.09.47.47,0,0,1-.12-.18l-.47-1.23H407l-.47,1.23a.94.94,0,0,1-.12.18.44.44,0,0,1-.31.09h-.8a.29.29,0,0,1-.21-.09.26.26,0,0,1-.09-.21s0-.05,0-.07l2.71-7a.9.9,0,0,1,.16-.28.33.33,0,0,1,.26-.09Zm.6,4.85-1.21-3.15-1.22,3.15Z" style="fill:#BA68C8"></path><path d="M416.49,200.9a4.29,4.29,0,0,1,1.42.21,2.56,2.56,0,0,1,1.63,1.58,4,4,0,0,1,.25,1.26,14.77,14.77,0,0,1,0,1.63,4,4,0,0,1-.25,1.26,2.65,2.65,0,0,1-.62,1,2.61,2.61,0,0,1-1,.62,4.09,4.09,0,0,1-1.38.21h-2.79a.29.29,0,0,1-.21-.09.26.26,0,0,1-.09-.21v-7.14a.29.29,0,0,1,.09-.21.28.28,0,0,1,.21-.08Zm1.81,3a2.28,2.28,0,0,0-.13-.66,1.58,1.58,0,0,0-.35-.53,1.64,1.64,0,0,0-.57-.36,2.47,2.47,0,0,0-.81-.12H415v5h1.54a2.15,2.15,0,0,0,.79-.13,1.6,1.6,0,0,0,.55-.34,1.55,1.55,0,0,0,.34-.53,2.41,2.41,0,0,0,.13-.67A14.77,14.77,0,0,0,418.3,204Z" style="fill:#BA68C8"></path><path d="M424.27,200.9a4.29,4.29,0,0,1,1.42.21,2.56,2.56,0,0,1,1.63,1.58,4.33,4.33,0,0,1,.26,1.26,14.77,14.77,0,0,1,0,1.63,4.33,4.33,0,0,1-.26,1.26,2.65,2.65,0,0,1-.62,1,2.61,2.61,0,0,1-1,.62,4.09,4.09,0,0,1-1.38.21h-2.79a.29.29,0,0,1-.21-.09.26.26,0,0,1-.09-.21v-7.14a.29.29,0,0,1,.09-.21.28.28,0,0,1,.21-.08Zm1.81,3a2.28,2.28,0,0,0-.13-.66,1.58,1.58,0,0,0-.35-.53,1.64,1.64,0,0,0-.57-.36,2.43,2.43,0,0,0-.81-.12h-1.48v5h1.53a2.15,2.15,0,0,0,.79-.13,1.6,1.6,0,0,0,.55-.34,1.55,1.55,0,0,0,.34-.53,2.41,2.41,0,0,0,.13-.67A14.77,14.77,0,0,0,426.08,204Z" style="fill:#BA68C8"></path><path d="M434.17,207.25a.26.26,0,0,1,.21.09.29.29,0,0,1,.09.21v.78a.31.31,0,0,1-.3.3h-4.85a.29.29,0,0,1-.21-.09.26.26,0,0,1-.09-.21v-7.14a.29.29,0,0,1,.09-.21.28.28,0,0,1,.21-.08h4.77a.27.27,0,0,1,.29.29V202a.28.28,0,0,1-.08.21.29.29,0,0,1-.21.09h-3.57V204h3.32a.31.31,0,0,1,.3.3v.79a.31.31,0,0,1-.3.3h-3.32v1.83Z" style="fill:#BA68C8"></path><path d="M439,200.9a3,3,0,0,1,2.1.64,2.25,2.25,0,0,1,.72,1.78,2.44,2.44,0,0,1-.37,1.37,2.19,2.19,0,0,1-1.09.85l1.53,2.73a.27.27,0,0,1,0,.12.24.24,0,0,1-.24.24h-.94a.45.45,0,0,1-.33-.1.8.8,0,0,1-.15-.2l-1.44-2.57h-1.47v2.57a.26.26,0,0,1-.09.21.29.29,0,0,1-.21.09h-.9a.29.29,0,0,1-.21-.09.26.26,0,0,1-.09-.21v-7.14a.29.29,0,0,1,.09-.21.28.28,0,0,1,.21-.08Zm-1.65,3.48h1.6a2,2,0,0,0,1-.22.9.9,0,0,0,.38-.84.86.86,0,0,0-.38-.83,2,2,0,0,0-1-.21h-1.6Z" style="fill:#BA68C8"></path><path d="M445.9,200.79a4,4,0,0,1,1.31.19,3.62,3.62,0,0,1,.94.5,2,2,0,0,1,.56.66,1.63,1.63,0,0,1,.22.68.23.23,0,0,1-.08.21.31.31,0,0,1-.22.09h-.77a.43.43,0,0,1-.28-.08.53.53,0,0,1-.17-.19,1.58,1.58,0,0,0-.51-.48,1.92,1.92,0,0,0-1-.2,2.51,2.51,0,0,0-.55.06,1.83,1.83,0,0,0-.45.17.93.93,0,0,0-.3.29.6.6,0,0,0-.11.37.77.77,0,0,0,.1.42.81.81,0,0,0,.36.27,3.47,3.47,0,0,0,.65.22l1,.23a7.46,7.46,0,0,1,1.14.34,2.7,2.7,0,0,1,.79.46,1.74,1.74,0,0,1,.45.63,2.13,2.13,0,0,1-.07,1.73,2.29,2.29,0,0,1-.63.73,3.27,3.27,0,0,1-1,.48,4.93,4.93,0,0,1-1.33.17,4.62,4.62,0,0,1-1.19-.15,3.22,3.22,0,0,1-1-.43,2.27,2.27,0,0,1-.7-.68,1.93,1.93,0,0,1-.3-.88.26.26,0,0,1,.09-.22.32.32,0,0,1,.21-.08h.78a.45.45,0,0,1,.28.07.49.49,0,0,1,.17.2,1.54,1.54,0,0,0,.19.28,1,1,0,0,0,.3.26,2,2,0,0,0,.46.18,2.88,2.88,0,0,0,.71.07,4.48,4.48,0,0,0,.64-.05,2,2,0,0,0,.54-.16,1.41,1.41,0,0,0,.38-.29.69.69,0,0,0,.14-.43.5.5,0,0,0-.16-.39,1,1,0,0,0-.47-.27q-.31-.11-.78-.21l-1.07-.25a5.67,5.67,0,0,1-1-.32,2.17,2.17,0,0,1-.69-.45,1.62,1.62,0,0,1-.4-.62,2.47,2.47,0,0,1-.13-.86,1.92,1.92,0,0,1,.22-.92,2.05,2.05,0,0,1,.6-.71,2.91,2.91,0,0,1,.93-.47A3.55,3.55,0,0,1,445.9,200.79Z" style="fill:#BA68C8"></path></g></g><g id="fire-exit"><g id="fire-evacuation-plan"><polygon points="296.12 72.48 295.41 71.78 314.84 51.92 324.84 51.92 324.84 52.92 315.26 52.92 296.12 72.48" style="fill:#455a64"></polygon><path d="M293.17,72.13a2.6,2.6,0,1,0,2.6-2.59A2.59,2.59,0,0,0,293.17,72.13Z" style="fill:#455a64"></path><g id="Brain"><ellipse cx="353.6" cy="53.57" rx="28.74" ry="28.96" style="fill:#fff"></ellipse><path d="M353.6,83.4a29.83,29.83,0,1,1,29.61-29.83A29.75,29.75,0,0,1,353.6,83.4Zm0-58.77a28.95,28.95,0,1,0,28.74,28.94A28.87,28.87,0,0,0,353.6,24.63Z" style="fill:#BA68C8"></path><path d="M362.27,44.15a2.52,2.52,0,1,0-2.52,2.52A2.52,2.52,0,0,0,362.27,44.15Zm6.36,12.5-2.86,2.52,3.31,4.26a2,2,0,0,0,2,.64l6.1-1.38a1.59,1.59,0,0,0,1.21-1.27,1.85,1.85,0,0,0,0-.62,1.58,1.58,0,0,0-1.89-1.19l-5.29,1.21Zm-16.9-7,4.69,2.59a1.75,1.75,0,0,0,1.69,0l2.43-1.38,2.15,4.77-3.83,4.18a2,2,0,0,0-.3,2.08l3.11,7.48a1.59,1.59,0,0,0,1.46,1,1.49,1.49,0,0,0,.61-.13,1.58,1.58,0,0,0,.85-2.06l-2.8-6.72,6.13-5.38h0l-.8-1.78-2.33-5.16,3.52-.27,3,4.08A1.06,1.06,0,1,0,373,51.71l-3.09-4.26a1.73,1.73,0,0,0-1.54-.71l-5.34.42h0a.85.85,0,0,0-.23,0l-.08,0-.11.05-.05,0-2.89,1.63h0l-2.41,1.37-4.49-2.48a1.06,1.06,0,0,0-1,1.85Z" style="fill:#455a64"></path><path d="M349.44,55.32a.59.59,0,0,0-.85,0L345,58.94l-3.62-3.62a.6.6,0,1,0-.85.84l4.05,4.05a.59.59,0,0,0,.85,0l4.05-4.05A.6.6,0,0,0,349.44,55.32Z" style="fill:#BA68C8"></path><path d="M345.39,48.86a.6.6,0,0,0-.43-.18.59.59,0,0,0-.59.6V59.79a.6.6,0,1,0,1.2,0V49.28A.59.59,0,0,0,345.39,48.86Z" style="fill:#BA68C8"></path><path d="M358.56,70.34H336.2a.55.55,0,0,1-.55-.55V36a.55.55,0,0,1,.55-.54h22.36a.54.54,0,0,1,.54.54v3.1a.54.54,0,1,1-1.08,0V36.57H336.74V69.25H358v-2a.54.54,0,0,1,1.08,0v2.54A.55.55,0,0,1,358.56,70.34Z" style="fill:#455a64"></path></g><path d="M347.46,87.64a.29.29,0,0,1,.21.09.26.26,0,0,1,.09.21v.78a.31.31,0,0,1-.3.3h-3.52v2.14h3.3a.31.31,0,0,1,.3.3v.79a.29.29,0,0,1-.09.21.32.32,0,0,1-.21.08h-3.3v2.54a.29.29,0,0,1-.09.21.32.32,0,0,1-.21.08h-.9a.32.32,0,0,1-.21-.08.29.29,0,0,1-.09-.21V87.94a.26.26,0,0,1,.09-.21.29.29,0,0,1,.21-.09Z" style="fill:#BA68C8"></path><path d="M349.34,95.37a.32.32,0,0,1-.21-.08.29.29,0,0,1-.09-.21V87.94a.26.26,0,0,1,.09-.21.29.29,0,0,1,.21-.09h.9a.29.29,0,0,1,.29.3v7.14a.27.27,0,0,1-.29.29Z" style="fill:#BA68C8"></path><path d="M355.41,87.64a3.05,3.05,0,0,1,2.1.64,2.26,2.26,0,0,1,.72,1.78,2.5,2.5,0,0,1-.37,1.37,2.24,2.24,0,0,1-1.09.85L358.29,95a.19.19,0,0,1,0,.12.23.23,0,0,1-.08.17.21.21,0,0,1-.17.07h-.94a.44.44,0,0,1-.32-.1,1,1,0,0,1-.15-.19l-1.45-2.58h-1.47v2.58a.29.29,0,0,1-.09.21.32.32,0,0,1-.21.08h-.89a.32.32,0,0,1-.21-.08.29.29,0,0,1-.09-.21V87.94a.26.26,0,0,1,.09-.21.29.29,0,0,1,.21-.09Zm-1.66,3.48h1.6a2.07,2.07,0,0,0,1-.22.9.9,0,0,0,.38-.84.86.86,0,0,0-.38-.83,2.08,2.08,0,0,0-1-.21h-1.6Z" style="fill:#BA68C8"></path><path d="M364.81,94a.26.26,0,0,1,.21.09.29.29,0,0,1,.09.21v.79a.29.29,0,0,1-.3.29H360a.32.32,0,0,1-.21-.08.29.29,0,0,1-.09-.21V87.94a.26.26,0,0,1,.09-.21.29.29,0,0,1,.21-.09h4.77a.29.29,0,0,1,.21.09.25.25,0,0,1,.08.21v.78a.28.28,0,0,1-.08.21.29.29,0,0,1-.21.09h-3.57v1.76h3.32a.32.32,0,0,1,.21.08.29.29,0,0,1,.09.21v.79a.31.31,0,0,1-.3.3h-3.32V94Z" style="fill:#BA68C8"></path><path d="M325.2,107.26a.32.32,0,0,1,.21.08.29.29,0,0,1,.09.21v.79a.31.31,0,0,1-.3.3h-4.85a.31.31,0,0,1-.3-.3V101.2a.31.31,0,0,1,.3-.3h4.76a.31.31,0,0,1,.3.3V102a.31.31,0,0,1-.3.3h-3.57V104h3.33a.31.31,0,0,1,.3.3v.78a.31.31,0,0,1-.3.3h-3.33v1.84Z" style="fill:#BA68C8"></path><path d="M329.68,106.45l1.85-5.27a.84.84,0,0,1,.12-.19.33.33,0,0,1,.25-.09h.84a.31.31,0,0,1,.3.3v0a.26.26,0,0,1,0,.07l-2.47,7a.79.79,0,0,1-.16.28.3.3,0,0,1-.26.1h-.89a.33.33,0,0,1-.26-.1.79.79,0,0,1-.16-.28l-2.47-7a.14.14,0,0,1,0-.07v0a.32.32,0,0,1,.08-.21.29.29,0,0,1,.22-.09h.84a.3.3,0,0,1,.24.09.59.59,0,0,1,.12.19Z" style="fill:#BA68C8"></path><path d="M337.28,100.9a.37.37,0,0,1,.27.09.78.78,0,0,1,.15.29l2.71,7a.19.19,0,0,1,0,.08.31.31,0,0,1-.3.3h-.79a.39.39,0,0,1-.31-.1.68.68,0,0,1-.13-.18l-.47-1.23h-3.49l-.48,1.23a.47.47,0,0,1-.12.18.39.39,0,0,1-.31.1h-.8a.29.29,0,0,1-.21-.09.32.32,0,0,1-.08-.21.19.19,0,0,1,0-.08l2.71-7a.78.78,0,0,1,.15-.29.37.37,0,0,1,.27-.09Zm.61,4.85-1.22-3.15-1.21,3.15Z" style="fill:#BA68C8"></path><path d="M346,106.18a.37.37,0,0,1,.12-.21.31.31,0,0,1,.2-.07h.9a.32.32,0,0,1,.22.08.27.27,0,0,1,.08.22,2.72,2.72,0,0,1-.23.9,2.31,2.31,0,0,1-.59.82,3.3,3.3,0,0,1-1,.6,4.2,4.2,0,0,1-1.47.23,3.73,3.73,0,0,1-1.34-.23,2.76,2.76,0,0,1-1-.63,3,3,0,0,1-.64-1,4,4,0,0,1-.27-1.22c0-.28,0-.59,0-.93s0-.65,0-.93a4.09,4.09,0,0,1,.27-1.23,3,3,0,0,1,.64-1,2.76,2.76,0,0,1,1-.63,3.73,3.73,0,0,1,1.34-.23,4.2,4.2,0,0,1,1.47.23,3.3,3.3,0,0,1,1,.6,2.31,2.31,0,0,1,.59.82,2.85,2.85,0,0,1,.23.9.29.29,0,0,1-.08.22.37.37,0,0,1-.22.08h-.9a.35.35,0,0,1-.21-.07.36.36,0,0,1-.12-.22,1.23,1.23,0,0,0-.15-.43,1.28,1.28,0,0,0-.33-.37,1.76,1.76,0,0,0-.53-.27,2.49,2.49,0,0,0-.76-.11,2.18,2.18,0,0,0-.75.13,1.55,1.55,0,0,0-.53.36,1.46,1.46,0,0,0-.34.53,2.27,2.27,0,0,0-.13.65q0,.42,0,.93t0,.93a2.42,2.42,0,0,0,.13.66,1.51,1.51,0,0,0,.34.52,1.4,1.4,0,0,0,.53.35,2,2,0,0,0,.75.14,2.49,2.49,0,0,0,.76-.11,1.76,1.76,0,0,0,.53-.27,1.47,1.47,0,0,0,.34-.37A1.28,1.28,0,0,0,346,106.18Z" style="fill:#BA68C8"></path><path d="M354.81,100.9a.31.31,0,0,1,.3.3v4.53a3.71,3.71,0,0,1-.2,1.24,2.48,2.48,0,0,1-.6,1,2.6,2.6,0,0,1-1,.61,4.47,4.47,0,0,1-2.77,0,2.76,2.76,0,0,1-1-.61,2.46,2.46,0,0,1-.59-1,3.71,3.71,0,0,1-.19-1.24V101.2a.28.28,0,0,1,.08-.21.29.29,0,0,1,.21-.09h.9a.31.31,0,0,1,.3.3v4.48a2.18,2.18,0,0,0,.12.77,1.27,1.27,0,0,0,.34.52,1.33,1.33,0,0,0,.53.3,2.11,2.11,0,0,0,.68.1,2.15,2.15,0,0,0,.68-.1,1.26,1.26,0,0,0,.53-.3,1.29,1.29,0,0,0,.35-.52,2,2,0,0,0,.13-.77V101.2a.31.31,0,0,1,.3-.3Z" style="fill:#BA68C8"></path><path d="M360.24,100.9a.34.34,0,0,1,.26.09,1,1,0,0,1,.16.29l2.71,7s0,0,0,.08a.31.31,0,0,1-.3.3h-.8a.4.4,0,0,1-.31-.1.47.47,0,0,1-.12-.18l-.47-1.23h-3.5l-.47,1.23a.47.47,0,0,1-.12.18.4.4,0,0,1-.31.1h-.8a.31.31,0,0,1-.3-.3s0-.06,0-.08l2.71-7a1,1,0,0,1,.16-.29.34.34,0,0,1,.26-.09Zm.61,4.85-1.22-3.15-1.22,3.15Z" style="fill:#BA68C8"></path><path d="M368.75,100.9a.31.31,0,0,1,.3.3V102a.31.31,0,0,1-.3.3h-2v6.06a.31.31,0,0,1-.3.3h-.89a.27.27,0,0,1-.21-.09.29.29,0,0,1-.09-.21v-6.06h-2a.31.31,0,0,1-.3-.3v-.78a.31.31,0,0,1,.3-.3Z" style="fill:#BA68C8"></path><path d="M370.45,108.64a.31.31,0,0,1-.3-.3V101.2a.31.31,0,0,1,.3-.3h.9a.31.31,0,0,1,.3.3v7.14a.31.31,0,0,1-.3.3Z" style="fill:#BA68C8"></path><path d="M373.1,103.79a4.34,4.34,0,0,1,.24-1.17,2.75,2.75,0,0,1,.6-1,2.92,2.92,0,0,1,1-.64,3.78,3.78,0,0,1,1.41-.24,4,4,0,0,1,1.41.23,2.78,2.78,0,0,1,1,.64,2.81,2.81,0,0,1,.61,1,3.75,3.75,0,0,1,.24,1.18c0,.14,0,.29,0,.46s0,.34,0,.52,0,.36,0,.53,0,.32,0,.46a4,4,0,0,1-.23,1.17,2.71,2.71,0,0,1-1.61,1.59,4.44,4.44,0,0,1-2.82,0,2.92,2.92,0,0,1-1-.64,2.84,2.84,0,0,1-.6-.95,4.34,4.34,0,0,1-.24-1.17c0-.14,0-.29,0-.46s0-.34,0-.53,0-.35,0-.52S373.1,103.93,373.1,103.79Zm5,0a1.75,1.75,0,0,0-.51-1.23,1.78,1.78,0,0,0-1.25-.44,1.63,1.63,0,0,0-1.75,1.67c0,.28,0,.59,0,.93s0,.66,0,.94a1.75,1.75,0,0,0,.51,1.23,1.8,1.8,0,0,0,1.24.43,1.82,1.82,0,0,0,1.25-.43,1.75,1.75,0,0,0,.51-1.23c0-.28,0-.59,0-.94S378.13,104.12,378.11,103.84Z" style="fill:#BA68C8"></path><path d="M386.08,108.64a.44.44,0,0,1-.29-.1l-.14-.16-3.09-4.59v4.55a.31.31,0,0,1-.3.3h-.9a.31.31,0,0,1-.3-.3V101.2a.31.31,0,0,1,.3-.3h.78a.36.36,0,0,1,.28.1l.15.15,3.09,4.6V101.2a.31.31,0,0,1,.3-.3h.9a.29.29,0,0,1,.21.09.32.32,0,0,1,.08.21v7.14a.32.32,0,0,1-.08.21.29.29,0,0,1-.21.09Z" style="fill:#BA68C8"></path><path d="M343,114.16a3.14,3.14,0,0,1,2.07.63,2.28,2.28,0,0,1,.74,1.85,2.31,2.31,0,0,1-.74,1.86,3,3,0,0,1-2.07.64h-1.77v2.46a.27.27,0,0,1-.09.21.29.29,0,0,1-.21.09h-.9a.29.29,0,0,1-.21-.09.27.27,0,0,1-.09-.21v-7.14a.31.31,0,0,1,.3-.3Zm-1.77,3.6H343a1.86,1.86,0,0,0,1-.25,1,1,0,0,0,.37-.87.94.94,0,0,0-.37-.86,2,2,0,0,0-1-.23h-1.71Z" style="fill:#BA68C8"></path><path d="M352.2,120.52a.31.31,0,0,1,.3.3v.78a.27.27,0,0,1-.09.21.29.29,0,0,1-.21.09h-4.84a.29.29,0,0,1-.21-.09.27.27,0,0,1-.09-.21v-7.14a.31.31,0,0,1,.3-.3h.89a.31.31,0,0,1,.3.3v6.06Z" style="fill:#BA68C8"></path><path d="M357.19,114.16a.37.37,0,0,1,.27.1.73.73,0,0,1,.15.28l2.71,7a.15.15,0,0,1,0,.07.3.3,0,0,1-.08.21.29.29,0,0,1-.21.09h-.8a.43.43,0,0,1-.31-.09.47.47,0,0,1-.12-.18l-.48-1.23h-3.49l-.48,1.23a.47.47,0,0,1-.12.18.43.43,0,0,1-.31.09h-.79a.29.29,0,0,1-.21-.09.27.27,0,0,1-.09-.21.15.15,0,0,1,0-.07l2.71-7a.73.73,0,0,1,.15-.28.37.37,0,0,1,.27-.1Zm.61,4.86-1.21-3.15L355.37,119Z" style="fill:#BA68C8"></path><path d="M366.36,121.9a.38.38,0,0,1-.29-.1.88.88,0,0,1-.14-.15l-3.1-4.6v4.55a.27.27,0,0,1-.09.21.29.29,0,0,1-.21.09h-.89a.29.29,0,0,1-.21-.09.27.27,0,0,1-.09-.21v-7.14a.31.31,0,0,1,.3-.3h.77a.42.42,0,0,1,.29.1l.14.16,3.1,4.6v-4.56a.29.29,0,0,1,.09-.21.26.26,0,0,1,.21-.09h.89a.31.31,0,0,1,.3.3v7.14a.27.27,0,0,1-.09.21.29.29,0,0,1-.21.09Z" style="fill:#BA68C8"></path></g></g><g id="emergency-kit"><g id="fire-alarm"><polygon points="188.36 70.22 169.22 51.57 158.45 51.57 158.45 50.62 169.64 50.62 189.07 69.56 188.36 70.22" style="fill:#455a64"></polygon><path d="M191.31,69.89a2.6,2.6,0,1,1-2.59-2.48A2.53,2.53,0,0,1,191.31,69.89Z" style="fill:#455a64"></path><g id="Vision"><ellipse cx="129" cy="52.19" rx="28.74" ry="27.61" style="fill:#fff"></ellipse><path d="M129,80.63c-16.33,0-29.61-12.76-29.61-28.44S112.67,23.75,129,23.75s29.61,12.76,29.61,28.44S145.33,80.63,129,80.63Zm0-56c-15.84,0-28.74,12.39-28.74,27.61s12.9,27.6,28.74,27.6,28.73-12.38,28.73-27.6S144.84,24.58,129,24.58Z" style="fill:#BA68C8"></path><path d="M144.87,43.1h-6.26V37.36A1.58,1.58,0,0,0,137,35.83H121.73a1.57,1.57,0,0,0-1.61,1.53V43.1h-6.26a2.76,2.76,0,0,0-2.81,2.68v18.8a2.75,2.75,0,0,0,2.81,2.68h31a2.75,2.75,0,0,0,2.81-2.68V45.78A2.76,2.76,0,0,0,144.87,43.1Zm-7.83,0H121.69V39a2,2,0,0,1,2-1.93H135A2,2,0,0,1,137,39Z" style="fill:#fff"></path><path d="M135,37.05H123.71a2,2,0,0,0-2,1.93V43.1H137V39A2,2,0,0,0,135,37.05Zm1.08,5.16H122.63V39a1.06,1.06,0,0,1,1.08-1H135a1.07,1.07,0,0,1,1.08,1ZM135,37.05H123.71a2,2,0,0,0-2,1.93V43.1H137V39A2,2,0,0,0,135,37.05Zm1.08,5.16H122.63V39a1.06,1.06,0,0,1,1.08-1H135a1.07,1.07,0,0,1,1.08,1Zm8.77,0h-5.32V37.36A2.5,2.5,0,0,0,137,34.93H121.73a2.49,2.49,0,0,0-2.55,2.43v4.85h-5.32a3.67,3.67,0,0,0-3.75,3.57v18.8a3.67,3.67,0,0,0,3.75,3.58h31a3.68,3.68,0,0,0,3.75-3.58V45.78A3.67,3.67,0,0,0,144.87,42.21Zm2.81,22.37a2.75,2.75,0,0,1-2.81,2.68h-31a2.75,2.75,0,0,1-2.81-2.68V45.78a2.76,2.76,0,0,1,2.81-2.68h6.26V37.36a1.57,1.57,0,0,1,1.61-1.53H137a1.58,1.58,0,0,1,1.62,1.53V43.1h6.26a2.76,2.76,0,0,1,2.81,2.68ZM135,37.05H123.71a2,2,0,0,0-2,1.93V43.1H137V39A2,2,0,0,0,135,37.05Zm1.08,5.16H122.63V39a1.06,1.06,0,0,1,1.08-1H135a1.07,1.07,0,0,1,1.08,1Z" style="fill:#455a64;stroke:#455a64;stroke-miterlimit:10;stroke-width:0.24412899999999998px"></path><polygon points="132.07 52.39 132.07 46.76 126.17 46.76 126.17 52.39 120.26 52.39 120.26 58.02 126.17 58.02 126.17 63.66 132.07 63.66 132.07 58.02 137.98 58.02 137.98 52.39 132.07 52.39" style="fill:#BA68C8"></polygon></g><path d="M122.86,84.42a.29.29,0,0,1,.21.09.27.27,0,0,1,.09.21v.78a.31.31,0,0,1-.3.3h-3.53v2.14h3.31a.31.31,0,0,1,.3.3V89a.29.29,0,0,1-.09.21.28.28,0,0,1-.21.08h-3.31v2.54a.32.32,0,0,1-.08.21.28.28,0,0,1-.21.08h-.9a.28.28,0,0,1-.21-.08.29.29,0,0,1-.09-.21V84.72a.27.27,0,0,1,.09-.21.29.29,0,0,1,.21-.09Z" style="fill:#BA68C8"></path><path d="M124.74,92.15a.28.28,0,0,1-.21-.08.29.29,0,0,1-.09-.21V84.72a.27.27,0,0,1,.09-.21.29.29,0,0,1,.21-.09h.89a.31.31,0,0,1,.3.3v7.14a.29.29,0,0,1-.09.21.26.26,0,0,1-.21.08Z" style="fill:#BA68C8"></path><path d="M130.81,84.42a3.05,3.05,0,0,1,2.1.64,2.26,2.26,0,0,1,.72,1.78,2.5,2.5,0,0,1-.37,1.37,2.18,2.18,0,0,1-1.09.85l1.52,2.73a.28.28,0,0,1,0,.12.23.23,0,0,1-.08.17.21.21,0,0,1-.17.07h-.94a.44.44,0,0,1-.32-.1.77.77,0,0,1-.15-.19l-1.45-2.58h-1.47v2.58a.29.29,0,0,1-.09.21.28.28,0,0,1-.21.08H128a.25.25,0,0,1-.21-.08.29.29,0,0,1-.09-.21V84.72a.27.27,0,0,1,.09-.21.26.26,0,0,1,.21-.09Zm-1.66,3.48h1.6a2,2,0,0,0,1-.22.9.9,0,0,0,.37-.84.87.87,0,0,0-.37-.83,2.08,2.08,0,0,0-1-.21h-1.6Z" style="fill:#BA68C8"></path><path d="M140.21,90.77a.31.31,0,0,1,.3.3v.79a.29.29,0,0,1-.09.21.28.28,0,0,1-.21.08h-4.85a.28.28,0,0,1-.21-.08.29.29,0,0,1-.09-.21V84.72a.27.27,0,0,1,.09-.21.29.29,0,0,1,.21-.09h4.76a.29.29,0,0,1,.22.09.3.3,0,0,1,.08.21v.78a.32.32,0,0,1-.08.21.29.29,0,0,1-.22.09h-3.57v1.76h3.33a.29.29,0,0,1,.21.09.25.25,0,0,1,.09.2v.79a.31.31,0,0,1-.3.3h-3.33v1.83Z" style="fill:#BA68C8"></path><path d="M101.61,104a.29.29,0,0,1,.21.09.26.26,0,0,1,.09.21v.78a.31.31,0,0,1-.3.3H96.76a.31.31,0,0,1-.3-.3V98a.31.31,0,0,1,.3-.3h4.76a.31.31,0,0,1,.3.3v.78a.26.26,0,0,1-.09.21.29.29,0,0,1-.21.09H98v1.76h3.33a.31.31,0,0,1,.3.3v.78a.31.31,0,0,1-.3.3H98V104Z" style="fill:#BA68C8"></path><path d="M106.9,101.63,109,98l.15-.18a.42.42,0,0,1,.33-.12h.75a.31.31,0,0,1,.3.3v7.14a.31.31,0,0,1-.3.3h-.89a.27.27,0,0,1-.21-.09.29.29,0,0,1-.09-.21V100.8l-1.44,2.49-.15.18a.39.39,0,0,1-.26.09h-.57a.37.37,0,0,1-.26-.09l-.15-.18-1.44-2.49v4.32a.31.31,0,0,1-.3.3h-.89a.31.31,0,0,1-.3-.3V98a.31.31,0,0,1,.3-.3h.75a.42.42,0,0,1,.33.12,1.12,1.12,0,0,1,.14.18Z" style="fill:#BA68C8"></path><path d="M117.41,104a.29.29,0,0,1,.29.3v.78a.32.32,0,0,1-.08.21.29.29,0,0,1-.21.09h-4.86a.31.31,0,0,1-.3-.3V98a.31.31,0,0,1,.3-.3h4.77a.31.31,0,0,1,.3.3v.78a.26.26,0,0,1-.09.21.29.29,0,0,1-.21.09h-3.57v1.76h3.32a.27.27,0,0,1,.21.09.29.29,0,0,1,.09.21v.78a.29.29,0,0,1-.09.21.27.27,0,0,1-.21.09h-3.32V104Z" style="fill:#BA68C8"></path><path d="M122.22,97.68a3.07,3.07,0,0,1,2.1.64,2.26,2.26,0,0,1,.72,1.78,2.45,2.45,0,0,1-.37,1.38,2.12,2.12,0,0,1-1.09.84l1.53,2.73a.35.35,0,0,1,0,.13.23.23,0,0,1-.07.17.22.22,0,0,1-.17.07H124a.45.45,0,0,1-.33-.11.77.77,0,0,1-.15-.19L122,102.54h-1.47v2.58a.31.31,0,0,1-.3.3h-.9a.31.31,0,0,1-.3-.3V98a.31.31,0,0,1,.3-.3Zm-1.65,3.48h1.6a1.93,1.93,0,0,0,1-.22.9.9,0,0,0,.38-.84.87.87,0,0,0-.38-.83,2,2,0,0,0-1-.21h-1.6Z" style="fill:#BA68C8"></path><path d="M126.2,100.54a3.62,3.62,0,0,1,.25-1.21,2.62,2.62,0,0,1,.64-.94,2.83,2.83,0,0,1,1-.6,4.17,4.17,0,0,1,1.43-.22,4.28,4.28,0,0,1,1.59.25,2.87,2.87,0,0,1,1,.6,2,2,0,0,1,.52.71,2.13,2.13,0,0,1,.17.63.25.25,0,0,1-.08.22.32.32,0,0,1-.21.08h-.9a.27.27,0,0,1-.19-.06.42.42,0,0,1-.11-.13,1.79,1.79,0,0,0-.11-.19,1.44,1.44,0,0,0-.3-.31,2,2,0,0,0-.54-.29,2.23,2.23,0,0,0-.83-.13,1.89,1.89,0,0,0-1.32.45,1.6,1.6,0,0,0-.53,1.2q0,.42,0,.9t0,.9a1.68,1.68,0,0,0,.53,1.33,2,2,0,0,0,1.32.42,2.91,2.91,0,0,0,.75-.09,1.68,1.68,0,0,0,.6-.29,1.35,1.35,0,0,0,.38-.52,2.14,2.14,0,0,0,.14-.81v-.08h-1.35a.31.31,0,0,1-.3-.3v-.79a.29.29,0,0,1,.09-.21.28.28,0,0,1,.21-.08h2.54a.26.26,0,0,1,.21.08.29.29,0,0,1,.09.21v1.22a3.43,3.43,0,0,1-.21,1.22,2.59,2.59,0,0,1-.63,1,2.89,2.89,0,0,1-1,.63,4.36,4.36,0,0,1-1.47.23,4.31,4.31,0,0,1-1.46-.22,2.88,2.88,0,0,1-1-.62,2.59,2.59,0,0,1-.63-1,4,4,0,0,1-.24-1.22c0-.14,0-.29,0-.46s0-.35,0-.52,0-.35,0-.52S126.2,100.68,126.2,100.54Z" style="fill:#BA68C8"></path><path d="M139.46,104a.25.25,0,0,1,.2.09.26.26,0,0,1,.09.21v.78a.29.29,0,0,1-.09.21.25.25,0,0,1-.2.09H134.6a.31.31,0,0,1-.3-.3V98a.31.31,0,0,1,.3-.3h4.77a.29.29,0,0,1,.21.09.28.28,0,0,1,.08.21v.78a.25.25,0,0,1-.08.21.29.29,0,0,1-.21.09H135.8v1.76h3.32a.27.27,0,0,1,.21.09.29.29,0,0,1,.09.21v.78a.29.29,0,0,1-.09.21.27.27,0,0,1-.21.09H135.8V104Z" style="fill:#BA68C8"></path><path d="M146.14,105.42a.39.39,0,0,1-.29-.1l-.14-.16-3.09-4.59v4.55a.31.31,0,0,1-.3.3h-.9a.31.31,0,0,1-.3-.3V98a.31.31,0,0,1,.3-.3h.78a.36.36,0,0,1,.28.1l.15.16,3.09,4.59V98a.31.31,0,0,1,.3-.3h.9a.29.29,0,0,1,.21.09.32.32,0,0,1,.08.21v7.14a.32.32,0,0,1-.08.21.29.29,0,0,1-.21.09Z" style="fill:#BA68C8"></path><path d="M153.69,103a.32.32,0,0,1,.12-.21.31.31,0,0,1,.2-.07h.9a.28.28,0,0,1,.21.08.25.25,0,0,1,.09.22,3,3,0,0,1-.23.9,2.45,2.45,0,0,1-.59.82,3.3,3.3,0,0,1-1,.6,4.2,4.2,0,0,1-1.47.23,3.74,3.74,0,0,1-1.35-.23,2.8,2.8,0,0,1-1-.63,2.89,2.89,0,0,1-.64-1,4.09,4.09,0,0,1-.27-1.23c0-.28,0-.59,0-.93s0-.65,0-.93a4.09,4.09,0,0,1,.27-1.23,2.89,2.89,0,0,1,.64-1,2.8,2.8,0,0,1,1-.63,3.74,3.74,0,0,1,1.35-.23,4.2,4.2,0,0,1,1.47.23,3.3,3.3,0,0,1,1,.6,2.45,2.45,0,0,1,.59.82,3.14,3.14,0,0,1,.23.9.26.26,0,0,1-.09.22.28.28,0,0,1-.21.08H154a.35.35,0,0,1-.21-.07.37.37,0,0,1-.12-.21,1.21,1.21,0,0,0-.15-.44,1.48,1.48,0,0,0-.34-.37,1.65,1.65,0,0,0-.53-.27,2.37,2.37,0,0,0-.75-.11,2.1,2.1,0,0,0-.75.13,1.7,1.7,0,0,0-.54.36,1.59,1.59,0,0,0-.33.53,2.36,2.36,0,0,0-.14.65c0,.28,0,.59,0,.93s0,.65,0,.93a2.43,2.43,0,0,0,.14.66,1.65,1.65,0,0,0,.33.52,1.7,1.7,0,0,0,.54.36,2.1,2.1,0,0,0,.75.13,2.37,2.37,0,0,0,.75-.11,1.7,1.7,0,0,0,.54-.27,1.32,1.32,0,0,0,.34-.37A1.21,1.21,0,0,0,153.69,103Z" style="fill:#BA68C8"></path><path d="M162.15,97.68a.31.31,0,0,1,.3.3.17.17,0,0,1,0,.1l-2.62,4.61v2.43a.29.29,0,0,1-.09.21.26.26,0,0,1-.21.09h-.88a.31.31,0,0,1-.3-.3v-2.43l-2.62-4.61a.3.3,0,0,1,0-.1.31.31,0,0,1,.3-.3h.83a.45.45,0,0,1,.33.11.62.62,0,0,1,.13.17l1.79,3.13L160.85,98a.74.74,0,0,1,.14-.17.45.45,0,0,1,.33-.11Z" style="fill:#BA68C8"></path><path d="M127.51,118.22a.26.26,0,0,1,.07.1.18.18,0,0,1,0,.06.26.26,0,0,1-.09.21.29.29,0,0,1-.21.09h-1.05a.54.54,0,0,1-.35-.11l-.16-.14-2.59-2.93v2.88a.26.26,0,0,1-.09.21.29.29,0,0,1-.21.09h-.9a.29.29,0,0,1-.21-.09.26.26,0,0,1-.09-.21v-7.14a.29.29,0,0,1,.09-.21.32.32,0,0,1,.21-.08h.9a.32.32,0,0,1,.21.08.29.29,0,0,1,.09.21v2.6l2.41-2.65a.91.91,0,0,1,.21-.18A.58.58,0,0,1,126,111h1a.32.32,0,0,1,.21.08.29.29,0,0,1,.09.21.23.23,0,0,1-.07.17l-3,3.24Z" style="fill:#BA68C8"></path><path d="M128.88,118.68a.29.29,0,0,1-.29-.3v-7.14a.27.27,0,0,1,.29-.29h.9a.32.32,0,0,1,.21.08.29.29,0,0,1,.09.21v7.14a.26.26,0,0,1-.09.21.29.29,0,0,1-.21.09Z" style="fill:#BA68C8"></path><path d="M137,111a.32.32,0,0,1,.21.08.29.29,0,0,1,.09.21V112a.31.31,0,0,1-.3.3h-2v6a.29.29,0,0,1-.08.21.29.29,0,0,1-.22.09h-.89a.29.29,0,0,1-.21-.09.26.26,0,0,1-.09-.21v-6h-2a.31.31,0,0,1-.3-.3v-.79a.29.29,0,0,1,.09-.21.32.32,0,0,1,.21-.08Z" style="fill:#BA68C8"></path></g></g><g id="Extinguisher"><g id="fire-extinguishers"><path d="M177.94,146.49a2.6,2.6,0,1,0-2.59,2.59A2.59,2.59,0,0,0,177.94,146.49Z" style="fill:#455a64"></path><polygon points="175.12 146.93 161.77 140.37 93.13 140.37 93.13 139.37 162.01 139.37 175.57 146.04 175.12 146.93" style="fill:#455a64"></polygon><g id="spinal-cord"><ellipse cx="64.22" cy="140.34" rx="28.74" ry="28.96" style="fill:#fff"></ellipse><path d="M64.21,170.17a29.83,29.83,0,1,1,29.62-29.83A29.76,29.76,0,0,1,64.21,170.17Zm0-58.78a29,29,0,1,0,28.74,29A28.88,28.88,0,0,0,64.21,111.39Z" style="fill:#BA68C8"></path><path d="M54.14,160.14A.82.82,0,0,0,55,161H70.22a.82.82,0,0,0,.82-.82v-5.57H54.14Z" style="fill:#fff"></path><path d="M62.59,124.88h0a8.45,8.45,0,0,0-8.45,8.45v18.35H71V133.33A8.45,8.45,0,0,0,62.59,124.88Z" style="fill:#fff"></path><path d="M60,154.57H54.14v5.57A.82.82,0,0,0,55,161h5Z" style="fill:#BA68C8;opacity:0.4"></path><path d="M64.33,125.12l-1.68-.24h-.06a8.45,8.45,0,0,0-8.45,8.45v18.35H60V138.85C60,128.8,60.31,125.12,64.33,125.12Z" style="fill:#BA68C8;opacity:0.4"></path><path d="M71.47,152.11H53.71V133.33a8.88,8.88,0,1,1,17.76,0Zm-16.91-.85H70.62V133.33a8,8,0,0,0-16.06,0Z" style="fill:#455a64"></path><path d="M70.22,161.39H55a1.25,1.25,0,0,1-1.25-1.25v-6H71.47v6A1.25,1.25,0,0,1,70.22,161.39ZM54.56,155v5.14a.39.39,0,0,0,.4.39H70.22a.39.39,0,0,0,.4-.39V155Z" style="fill:#455a64"></path><polygon points="51.47 120.57 51.47 122.18 56.81 123.78 53.43 124.88 54.14 125.53 59.19 124.18 59.22 125.53 65.85 125.53 65.85 120.57 51.47 120.57" style="fill:#455a64"></polygon><circle cx="62.59" cy="123.11" r="1.28" style="fill:#fff"></circle><rect x="65.85" y="121.59" width="3.79" height="2.39" style="fill:#455a64"></rect><path d="M76.24,141.77h-.85V126a2.81,2.81,0,0,0-2.8-2.8H67.74v-.85h4.85A3.66,3.66,0,0,1,76.24,126Z" style="fill:#455a64"></path><polygon points="79.03 153.96 72.6 153.96 74.31 144.53 77.32 144.53 79.03 153.96" style="fill:#455a64"></polygon><path d="M75.81,141.4h0a1.51,1.51,0,0,0-1.5,1.51v.55h3v-.55A1.51,1.51,0,0,0,75.81,141.4Z" style="fill:#455a64"></path></g><path d="M58.08,174.37a.29.29,0,0,1,.21.09.32.32,0,0,1,.08.21v.78a.32.32,0,0,1-.08.21.29.29,0,0,1-.21.09H54.55v2.14h3.3a.26.26,0,0,1,.21.09.29.29,0,0,1,.09.21V179a.29.29,0,0,1-.09.21.26.26,0,0,1-.21.09h-3.3v2.53a.31.31,0,0,1-.3.3h-.89a.27.27,0,0,1-.21-.09.29.29,0,0,1-.09-.21v-7.14a.29.29,0,0,1,.09-.21.27.27,0,0,1,.21-.09Z" style="fill:#BA68C8"></path><path d="M60,182.11a.29.29,0,0,1-.21-.09.32.32,0,0,1-.08-.21v-7.14a.32.32,0,0,1,.08-.21.29.29,0,0,1,.21-.09h.9a.31.31,0,0,1,.3.3v7.14a.31.31,0,0,1-.3.3Z" style="fill:#BA68C8"></path><path d="M66,174.37a3.05,3.05,0,0,1,2.1.64,2.26,2.26,0,0,1,.72,1.78,2.4,2.4,0,0,1-.37,1.37,2.18,2.18,0,0,1-1.09.85l1.53,2.73a.35.35,0,0,1,0,.12.21.21,0,0,1-.07.17.25.25,0,0,1-.17.08h-.94a.45.45,0,0,1-.33-.11.77.77,0,0,1-.15-.19l-1.44-2.58H64.37v2.58a.31.31,0,0,1-.3.3h-.9a.31.31,0,0,1-.3-.3v-7.14a.31.31,0,0,1,.3-.3Zm-1.65,3.48H66a1.93,1.93,0,0,0,1-.22.9.9,0,0,0,.38-.84A.87.87,0,0,0,67,176a2,2,0,0,0-1-.21h-1.6Z" style="fill:#BA68C8"></path><path d="M75.43,180.72a.31.31,0,0,1,.3.3v.79a.31.31,0,0,1-.3.3H70.58a.31.31,0,0,1-.3-.3v-7.14a.31.31,0,0,1,.3-.3h4.76a.31.31,0,0,1,.3.3v.78a.31.31,0,0,1-.3.3H71.77v1.76H75.1a.29.29,0,0,1,.21.09.27.27,0,0,1,.09.21v.78a.31.31,0,0,1-.3.3H71.77v1.83Z" style="fill:#BA68C8"></path><path d="M26.57,194a.29.29,0,0,1,.21.09.27.27,0,0,1,.09.21v.78a.31.31,0,0,1-.3.3H21.72a.27.27,0,0,1-.21-.09.29.29,0,0,1-.09-.21v-7.14a.29.29,0,0,1,.09-.21.27.27,0,0,1,.21-.09h4.76a.31.31,0,0,1,.3.3v.78a.26.26,0,0,1-.09.21.29.29,0,0,1-.21.09H22.91v1.76h3.33a.31.31,0,0,1,.3.3v.78a.27.27,0,0,1-.09.21.29.29,0,0,1-.21.09H22.91V194Z" style="fill:#BA68C8"></path><path d="M33.24,195.37a.44.44,0,0,1-.32-.11l-.14-.17L31,192.65l-1.74,2.44-.15.17a.41.41,0,0,1-.32.11h-.93a.29.29,0,0,1-.21-.09.28.28,0,0,1-.08-.21.27.27,0,0,1,0-.12l2.53-3.53-2.42-3.37a.27.27,0,0,1,0-.12.28.28,0,0,1,.08-.21.29.29,0,0,1,.21-.09h.93a.41.41,0,0,1,.32.11l.15.17,1.67,2.33,1.65-2.33.15-.17a.41.41,0,0,1,.32-.11h.93a.31.31,0,0,1,.3.3.28.28,0,0,1,0,.12l-2.44,3.42L34.44,195a.27.27,0,0,1,0,.12.31.31,0,0,1-.3.3Z" style="fill:#BA68C8"></path><path d="M40.72,187.63a.29.29,0,0,1,.21.09.28.28,0,0,1,.08.21v.78a.25.25,0,0,1-.08.21.29.29,0,0,1-.21.09h-2v6.06a.31.31,0,0,1-.3.3h-.9a.31.31,0,0,1-.3-.3V189h-2a.31.31,0,0,1-.3-.3v-.78a.29.29,0,0,1,.09-.21.26.26,0,0,1,.21-.09Z" style="fill:#BA68C8"></path><path d="M42.42,195.37a.31.31,0,0,1-.3-.3v-7.14a.31.31,0,0,1,.3-.3h.89a.31.31,0,0,1,.3.3v7.14a.31.31,0,0,1-.3.3Z" style="fill:#BA68C8"></path><path d="M50.35,195.37a.36.36,0,0,1-.28-.1l-.15-.15-3.09-4.6v4.55a.31.31,0,0,1-.3.3h-.9a.29.29,0,0,1-.21-.09.32.32,0,0,1-.08-.21v-7.14a.32.32,0,0,1,.08-.21.29.29,0,0,1,.21-.09h.78a.39.39,0,0,1,.29.1l.14.16,3.09,4.59v-4.55a.31.31,0,0,1,.3-.3h.9a.31.31,0,0,1,.3.3v7.14a.31.31,0,0,1-.3.3Z" style="fill:#BA68C8"></path><path d="M52.88,190.5a3.4,3.4,0,0,1,.24-1.22,2.76,2.76,0,0,1,.64-.94,2.83,2.83,0,0,1,1-.6,4.17,4.17,0,0,1,1.43-.22,4.24,4.24,0,0,1,1.59.25,2.93,2.93,0,0,1,1,.6,2,2,0,0,1,.52.72,2.41,2.41,0,0,1,.18.62.26.26,0,0,1-.09.22.32.32,0,0,1-.21.08h-.9a.29.29,0,0,1-.19-.06.63.63,0,0,1-.11-.13,1.79,1.79,0,0,0-.11-.19,1.08,1.08,0,0,0-.3-.31,2.26,2.26,0,0,0-.54-.29,2.41,2.41,0,0,0-.83-.13,1.89,1.89,0,0,0-1.32.45,1.64,1.64,0,0,0-.53,1.2q0,.42,0,.9t0,.9a1.71,1.71,0,0,0,.53,1.33,2,2,0,0,0,1.32.42A3,3,0,0,0,57,194a1.71,1.71,0,0,0,.59-.29,1.35,1.35,0,0,0,.38-.52,1.94,1.94,0,0,0,.14-.8v-.09H56.74a.29.29,0,0,1-.21-.09.28.28,0,0,1-.08-.21v-.79a.28.28,0,0,1,.08-.21.32.32,0,0,1,.21-.08h2.55a.27.27,0,0,1,.29.29v1.22a3.43,3.43,0,0,1-.21,1.22,2.59,2.59,0,0,1-.63,1,2.89,2.89,0,0,1-1.05.63,4.36,4.36,0,0,1-1.47.23,4.31,4.31,0,0,1-1.46-.22,2.74,2.74,0,0,1-1-.62,2.63,2.63,0,0,1-.63-1,3.67,3.67,0,0,1-.23-1.22c0-.14,0-.29,0-.46s0-.34,0-.52,0-.35,0-.52S52.87,190.63,52.88,190.5Z" style="fill:#BA68C8"></path><path d="M67,187.63a.29.29,0,0,1,.21.09.28.28,0,0,1,.08.21v4.53a3.71,3.71,0,0,1-.19,1.24,2.66,2.66,0,0,1-.6,1,2.59,2.59,0,0,1-1,.61,4.44,4.44,0,0,1-2.76,0,2.48,2.48,0,0,1-1-.61,2.41,2.41,0,0,1-.6-1,4,4,0,0,1-.19-1.24v-4.53a.31.31,0,0,1,.3-.3h.9a.29.29,0,0,1,.21.09.32.32,0,0,1,.08.21v4.48a2,2,0,0,0,.13.77,1.38,1.38,0,0,0,.34.53,1.3,1.3,0,0,0,.53.29,2,2,0,0,0,.67.1,2.11,2.11,0,0,0,.68-.1,1.41,1.41,0,0,0,.54-.29,1.53,1.53,0,0,0,.35-.53,2.18,2.18,0,0,0,.12-.77v-4.48a.31.31,0,0,1,.3-.3Z" style="fill:#BA68C8"></path><path d="M69.22,195.37a.31.31,0,0,1-.3-.3v-7.14a.31.31,0,0,1,.3-.3h.9a.31.31,0,0,1,.3.3v7.14a.31.31,0,0,1-.3.3Z" style="fill:#BA68C8"></path><path d="M74.79,187.52a4,4,0,0,1,1.31.2,3.21,3.21,0,0,1,.94.5,2.19,2.19,0,0,1,.57.66,1.57,1.57,0,0,1,.21.67.24.24,0,0,1-.08.22.3.3,0,0,1-.22.08h-.77a.43.43,0,0,1-.28-.07.79.79,0,0,1-.17-.19,1.32,1.32,0,0,0-.51-.48,1.89,1.89,0,0,0-1-.21,2.35,2.35,0,0,0-.54.06,1.47,1.47,0,0,0-.46.18.9.9,0,0,0-.3.28.63.63,0,0,0-.11.38.71.71,0,0,0,.1.41.82.82,0,0,0,.36.28,3.36,3.36,0,0,0,.66.22l1,.23a7.68,7.68,0,0,1,1.15.33,2.65,2.65,0,0,1,.78.47,1.79,1.79,0,0,1,.45.62,2.09,2.09,0,0,1,.15.81,1.92,1.92,0,0,1-.22.92,2.1,2.1,0,0,1-.63.73,3.32,3.32,0,0,1-1,.48,4.67,4.67,0,0,1-1.34.18,4.54,4.54,0,0,1-1.18-.15,3.54,3.54,0,0,1-1-.43,2.39,2.39,0,0,1-.7-.68,2,2,0,0,1-.3-.88.29.29,0,0,1,.3-.3h.78a.53.53,0,0,1,.28.06.48.48,0,0,1,.17.2,1.6,1.6,0,0,0,.19.29.84.84,0,0,0,.3.25,1.59,1.59,0,0,0,.47.19,3.36,3.36,0,0,0,.7.07,4.48,4.48,0,0,0,.64,0,1.91,1.91,0,0,0,.54-.17,1.13,1.13,0,0,0,.38-.29.64.64,0,0,0,.14-.42.57.57,0,0,0-.15-.4,1.29,1.29,0,0,0-.47-.26,4.77,4.77,0,0,0-.78-.21c-.31-.07-.67-.15-1.07-.26a5.84,5.84,0,0,1-1-.31,2.17,2.17,0,0,1-.69-.45,1.79,1.79,0,0,1-.4-.62,2.47,2.47,0,0,1-.13-.86,1.92,1.92,0,0,1,.22-.92,2.18,2.18,0,0,1,.6-.72,3.12,3.12,0,0,1,.93-.47A3.9,3.9,0,0,1,74.79,187.52Z" style="fill:#BA68C8"></path><path d="M85.33,187.63a.29.29,0,0,1,.21.09.28.28,0,0,1,.08.21v7.14a.28.28,0,0,1-.08.21.29.29,0,0,1-.21.09h-.9a.31.31,0,0,1-.3-.3v-2.92H80.79v2.92a.28.28,0,0,1-.08.21.29.29,0,0,1-.21.09h-.9a.32.32,0,0,1-.21-.08.29.29,0,0,1-.09-.22v-7.14a.31.31,0,0,1,.3-.3h.9a.29.29,0,0,1,.21.09.28.28,0,0,1,.08.21v2.84h3.34v-2.84a.31.31,0,0,1,.3-.3Z" style="fill:#BA68C8"></path><path d="M92.5,194a.29.29,0,0,1,.21.09.27.27,0,0,1,.09.21v.78a.31.31,0,0,1-.3.3H87.65a.31.31,0,0,1-.3-.3v-7.14a.31.31,0,0,1,.3-.3h4.76a.31.31,0,0,1,.3.3v.78a.26.26,0,0,1-.09.21.29.29,0,0,1-.21.09H88.84v1.76h3.33a.31.31,0,0,1,.3.3v.78a.27.27,0,0,1-.09.21.29.29,0,0,1-.21.09H88.84V194Z" style="fill:#BA68C8"></path><path d="M97.32,187.63a3.1,3.1,0,0,1,2.1.64,2.26,2.26,0,0,1,.72,1.78,2.54,2.54,0,0,1-.37,1.38,2.17,2.17,0,0,1-1.09.84L100.2,195a.24.24,0,0,1,0,.13.25.25,0,0,1-.08.17.21.21,0,0,1-.17.07h-.94a.44.44,0,0,1-.32-.11.77.77,0,0,1-.15-.19l-1.45-2.57H95.66v2.57a.31.31,0,0,1-.3.3h-.89a.31.31,0,0,1-.3-.3v-7.14a.31.31,0,0,1,.3-.3Zm-1.66,3.48h1.6a2,2,0,0,0,1-.22.89.89,0,0,0,.38-.84.87.87,0,0,0-.38-.83,2.08,2.08,0,0,0-1-.21h-1.6Z" style="fill:#BA68C8"></path><path d="M104.23,187.52a4,4,0,0,1,1.3.2,3.09,3.09,0,0,1,.94.5,2.19,2.19,0,0,1,.57.66,1.75,1.75,0,0,1,.22.67.25.25,0,0,1-.09.22.28.28,0,0,1-.21.08h-.78a.45.45,0,0,1-.28-.07.79.79,0,0,1-.17-.19,1.36,1.36,0,0,0-.5-.48,1.93,1.93,0,0,0-1-.21,2.44,2.44,0,0,0-.55.06,1.51,1.51,0,0,0-.45.18,1.05,1.05,0,0,0-.31.28.7.7,0,0,0-.11.38.71.71,0,0,0,.11.41.79.79,0,0,0,.35.28,3.89,3.89,0,0,0,.66.22l1,.23a7.53,7.53,0,0,1,1.14.33,2.65,2.65,0,0,1,.78.47,1.7,1.7,0,0,1,.46.62,2.09,2.09,0,0,1,.15.81,2,2,0,0,1-.86,1.65,3.21,3.21,0,0,1-1,.48,4.9,4.9,0,0,1-2.52,0,3.36,3.36,0,0,1-1-.43,2.28,2.28,0,0,1-.7-.68,1.75,1.75,0,0,1-.3-.88.24.24,0,0,1,.08-.22.3.3,0,0,1,.22-.08h.77a.57.57,0,0,1,.29.06.54.54,0,0,1,.16.2l.19.29a1.05,1.05,0,0,0,.3.25,1.71,1.71,0,0,0,.47.19,3.36,3.36,0,0,0,.7.07,4.37,4.37,0,0,0,.64,0,1.91,1.91,0,0,0,.54-.17,1,1,0,0,0,.38-.29.59.59,0,0,0,.14-.42.57.57,0,0,0-.15-.4,1.21,1.21,0,0,0-.47-.26,4.77,4.77,0,0,0-.78-.21c-.31-.07-.67-.15-1.07-.26a6.17,6.17,0,0,1-1-.31,2.12,2.12,0,0,1-.68-.45,1.68,1.68,0,0,1-.41-.62,2.47,2.47,0,0,1-.13-.86,1.92,1.92,0,0,1,.22-.92,2.21,2.21,0,0,1,.61-.72,3.07,3.07,0,0,1,.92-.47A3.92,3.92,0,0,1,104.23,187.52Z" style="fill:#BA68C8"></path></g></g><g id="fire-alarm"><g id="fire-emergency-kit"><path d="M162.36,217.61a2.6,2.6,0,1,1-2.6-2.6A2.59,2.59,0,0,1,162.36,217.61Z" style="fill:#455a64"></path><polygon points="115.9 263.31 93.07 263.31 93.07 262.31 115.32 262.31 159.33 217.36 160.2 217.86 115.9 263.31" style="fill:#455a64"></polygon><g id="Sense"><ellipse cx="63.91" cy="262.81" rx="28.74" ry="28.96" style="fill:#fff"></ellipse><path d="M63.91,292.63a29.83,29.83,0,1,1,29.61-29.82A29.76,29.76,0,0,1,63.91,292.63Zm0-58.77a28.95,28.95,0,1,0,28.73,28.95A28.87,28.87,0,0,0,63.91,233.86Z" style="fill:#BA68C8"></path><path d="M47.1,259.59a.55.55,0,0,1-.18,0,.67.67,0,0,1-.46-.81,13.94,13.94,0,0,1,4.88-7.2.66.66,0,0,1,.92.12.65.65,0,0,1-.12.92,12.6,12.6,0,0,0-4.41,6.52A.65.65,0,0,1,47.1,259.59Z" style="fill:#455a64"></path><path d="M41.92,258.9a.69.69,0,0,1-.2,0,.65.65,0,0,1-.42-.83,23.71,23.71,0,0,1,8.58-11.89.65.65,0,1,1,.78,1,22.49,22.49,0,0,0-8.12,11.24A.65.65,0,0,1,41.92,258.9Z" style="fill:#455a64"></path><path d="M80.72,259.59a.66.66,0,0,1-.64-.47,12.6,12.6,0,0,0-4.41-6.52.65.65,0,0,1-.12-.92.66.66,0,0,1,.92-.12,13.94,13.94,0,0,1,4.88,7.2.66.66,0,0,1-.46.81A.52.52,0,0,1,80.72,259.59Z" style="fill:#455a64"></path><path d="M85.89,258.9a.65.65,0,0,1-.62-.46,22.43,22.43,0,0,0-8.12-11.24.65.65,0,1,1,.78-1A23.66,23.66,0,0,1,86.52,258a.66.66,0,0,1-.43.83A.64.64,0,0,1,85.89,258.9Z" style="fill:#455a64"></path><path d="M56.64,257.4l.15.22c.17.29.56.76.55,1.11a6.11,6.11,0,0,0-.2-1.34,7.87,7.87,0,0,1,0-3c.46-2.22,2.1-3.5,3.69-4.93a2.37,2.37,0,0,0,.93-1.57c0,.19-.56.54-.7.63a4.27,4.27,0,0,1-.87.46c-.61.25-1.25.41-1.87.62a4.81,4.81,0,0,0-1.68.87,4.13,4.13,0,0,0-1.3,4.58A9.33,9.33,0,0,0,56.64,257.4Zm20.42,13.08c-.09-3.49-1.59-7.83-4.7-9.19a5.43,5.43,0,0,1-1,5.37c.66-2.08-.39-4.33-1.73-6.06-2.13-2.77-7.61-7.5-3.49-10.91a8,8,0,0,0-5.52,2.21c-2.54,2.87-1.82,6.13-1.2,9.38.33,1.71.45,4.29-1.55,5.05a2.46,2.46,0,0,1-3-1.05,3.29,3.29,0,0,1,.3-3A10.73,10.73,0,0,0,51,269a8.59,8.59,0,0,0-.19,1.7h0a13.16,13.16,0,0,0,26.31,0h0Zm-9.59-23a2.86,2.86,0,0,1,.84,2.34c-.11.91-.76,1.53-1.07,2.36a2.67,2.67,0,0,0-.11,1.37,2.93,2.93,0,0,0,.54,1.11,2.35,2.35,0,0,1,1-2.07c.6-.51,1.33-.88,1.9-1.43A4.57,4.57,0,0,0,71.7,247a4.14,4.14,0,0,0-1.55-2.28,4.74,4.74,0,0,1-1.67-1.94,3.19,3.19,0,0,1,.21-2.44,5.09,5.09,0,0,0-2.93,2,2.87,2.87,0,0,0,.21,3.54,8.7,8.7,0,0,0,1.13,1.29Z" style="fill:#BA68C8"></path><path d="M56.64,257.4l.15.22c.17.29.56.76.55,1.11a6.11,6.11,0,0,0-.2-1.34,7.87,7.87,0,0,1,0-3c.46-2.22,2.1-3.5,3.69-4.93a2.37,2.37,0,0,0,.93-1.57c0,.19-.56.54-.7.63a4.27,4.27,0,0,1-.87.46c-.61.25-1.25.41-1.87.62a4.81,4.81,0,0,0-1.68.87,4.13,4.13,0,0,0-1.3,4.58A9.33,9.33,0,0,0,56.64,257.4Zm20.42,13.08c-.09-3.49-1.59-7.83-4.7-9.19a5.43,5.43,0,0,1-1,5.37c.66-2.08-.39-4.33-1.73-6.06-2.13-2.77-7.61-7.5-3.49-10.91a8,8,0,0,0-5.52,2.21c-2.54,2.87-1.82,6.13-1.2,9.38.33,1.71.45,4.29-1.55,5.05a2.46,2.46,0,0,1-3-1.05,3.29,3.29,0,0,1,.3-3A10.73,10.73,0,0,0,51,269a8.59,8.59,0,0,0-.19,1.7h0a13.16,13.16,0,0,0,26.31,0h0Zm-9.59-23a2.86,2.86,0,0,1,.84,2.34c-.11.91-.76,1.53-1.07,2.36a2.67,2.67,0,0,0-.11,1.37,2.93,2.93,0,0,0,.54,1.11,2.35,2.35,0,0,1,1-2.07c.6-.51,1.33-.88,1.9-1.43A4.57,4.57,0,0,0,71.7,247a4.14,4.14,0,0,0-1.55-2.28,4.74,4.74,0,0,1-1.67-1.94,3.19,3.19,0,0,1,.21-2.44,5.09,5.09,0,0,0-2.93,2,2.87,2.87,0,0,0,.21,3.54,8.7,8.7,0,0,0,1.13,1.29Z" style="fill:#fff;opacity:0.6000000000000001"></path></g><path d="M37.43,297.46a.31.31,0,0,1,.3.3v.79a.31.31,0,0,1-.3.3H33.9V301h3.31a.31.31,0,0,1,.3.3v.78a.31.31,0,0,1-.3.3H33.9v2.53a.31.31,0,0,1-.3.3h-.89a.31.31,0,0,1-.3-.3v-7.14a.31.31,0,0,1,.3-.3Z" style="fill:#BA68C8"></path><path d="M39.31,305.2a.31.31,0,0,1-.3-.3v-7.14a.31.31,0,0,1,.3-.3h.89a.31.31,0,0,1,.3.3v7.14a.31.31,0,0,1-.3.3Z" style="fill:#BA68C8"></path><path d="M45.38,297.46a3.1,3.1,0,0,1,2.1.64,2.27,2.27,0,0,1,.71,1.78,2.45,2.45,0,0,1-.37,1.38,2.21,2.21,0,0,1-1.08.85l1.52,2.73a.27.27,0,0,1,0,.12.23.23,0,0,1-.07.17.22.22,0,0,1-.17.07h-.94a.41.41,0,0,1-.32-.1.5.5,0,0,1-.15-.2l-1.45-2.57H43.72v2.57a.31.31,0,0,1-.3.3h-.9a.29.29,0,0,1-.21-.09.28.28,0,0,1-.08-.21v-7.14a.28.28,0,0,1,.08-.21.29.29,0,0,1,.21-.09ZM43.72,301h1.6a2,2,0,0,0,1-.23.87.87,0,0,0,.37-.84.85.85,0,0,0-.37-.82,2.08,2.08,0,0,0-1-.21h-1.6Z" style="fill:#BA68C8"></path><path d="M54.78,303.82a.31.31,0,0,1,.3.3v.78a.31.31,0,0,1-.3.3H49.93a.31.31,0,0,1-.3-.3v-7.14a.31.31,0,0,1,.3-.3h4.76a.31.31,0,0,1,.3.3v.79a.31.31,0,0,1-.3.3H51.12v1.75h3.33a.31.31,0,0,1,.3.3v.79a.29.29,0,0,1-.09.21.28.28,0,0,1-.21.08H51.12v1.84Z" style="fill:#BA68C8"></path><path d="M62.32,297.46a.37.37,0,0,1,.27.1.8.8,0,0,1,.15.28l2.71,7a.15.15,0,0,1,0,.07.31.31,0,0,1-.3.3h-.79a.41.41,0,0,1-.31-.09.92.92,0,0,1-.13-.19l-.47-1.22H60l-.48,1.22a.59.59,0,0,1-.12.19.43.43,0,0,1-.31.09h-.8a.31.31,0,0,1-.3-.3.14.14,0,0,1,0-.07l2.7-7a.79.79,0,0,1,.16-.28.36.36,0,0,1,.26-.1Zm.61,4.86-1.22-3.15-1.21,3.15Z" style="fill:#BA68C8"></path><path d="M71.6,303.82a.26.26,0,0,1,.21.09.29.29,0,0,1,.09.21v.78a.29.29,0,0,1-.09.21.26.26,0,0,1-.21.09H66.76a.31.31,0,0,1-.3-.3v-7.14a.31.31,0,0,1,.3-.3h.9a.31.31,0,0,1,.3.3v6.06Z" style="fill:#BA68C8"></path><path d="M76.6,297.46a.37.37,0,0,1,.27.1.8.8,0,0,1,.15.28l2.71,7a.15.15,0,0,1,0,.07.31.31,0,0,1-.3.3h-.79a.41.41,0,0,1-.31-.09.92.92,0,0,1-.13-.19l-.47-1.22H74.25l-.48,1.22a.59.59,0,0,1-.12.19.43.43,0,0,1-.31.09h-.8a.29.29,0,0,1-.21-.09.28.28,0,0,1-.08-.21.15.15,0,0,1,0-.07l2.7-7a.79.79,0,0,1,.16-.28.36.36,0,0,1,.26-.1Zm.61,4.86L76,299.17l-1.21,3.15Z" style="fill:#BA68C8"></path><path d="M83.9,297.46a3.1,3.1,0,0,1,2.1.64,2.3,2.3,0,0,1,.71,1.78,2.45,2.45,0,0,1-.37,1.38,2.19,2.19,0,0,1-1.09.85l1.53,2.73a.27.27,0,0,1,0,.12.23.23,0,0,1-.07.17.22.22,0,0,1-.17.07h-.94a.45.45,0,0,1-.33-.1.56.56,0,0,1-.14-.2l-1.45-2.57H82.24v2.57a.31.31,0,0,1-.3.3H81a.29.29,0,0,1-.21-.09.28.28,0,0,1-.08-.21v-7.14a.28.28,0,0,1,.08-.21.29.29,0,0,1,.21-.09ZM82.24,301h1.6a2,2,0,0,0,1-.23.87.87,0,0,0,.37-.84.85.85,0,0,0-.37-.82,2.11,2.11,0,0,0-1-.21h-1.6Z" style="fill:#BA68C8"></path><path d="M91.78,301.41l2.1-3.65.15-.17a.36.36,0,0,1,.32-.13h.75a.31.31,0,0,1,.3.3v7.14a.31.31,0,0,1-.3.3h-.89a.31.31,0,0,1-.3-.3v-4.32l-1.44,2.49a.8.8,0,0,1-.15.18.37.37,0,0,1-.26.09h-.57a.37.37,0,0,1-.26-.09,1.19,1.19,0,0,1-.15-.18l-1.44-2.49v4.32a.29.29,0,0,1-.09.21.27.27,0,0,1-.21.09h-.89a.31.31,0,0,1-.3-.3v-7.14a.31.31,0,0,1,.3-.3h.75a.39.39,0,0,1,.33.13l.15.17Z" style="fill:#BA68C8"></path></g></g><g id="fire-hydrant"><path d="M66.44,376.43a.31.31,0,0,1,.3.3v.78a.26.26,0,0,1-.09.21.29.29,0,0,1-.21.09H62.92V380h3.3a.29.29,0,0,1,.21.09.27.27,0,0,1,.09.21V381a.31.31,0,0,1-.3.3h-3.3v2.53a.31.31,0,0,1-.3.3h-.9a.29.29,0,0,1-.21-.09.32.32,0,0,1-.08-.21v-7.14a.32.32,0,0,1,.08-.21.29.29,0,0,1,.21-.09Z" style="fill:#BA68C8"></path><path d="M68.32,384.17a.31.31,0,0,1-.3-.3v-7.14a.31.31,0,0,1,.3-.3h.9a.31.31,0,0,1,.3.3v7.14a.31.31,0,0,1-.3.3Z" style="fill:#BA68C8"></path><path d="M74.39,376.43a3.1,3.1,0,0,1,2.1.64,2.26,2.26,0,0,1,.72,1.78,2.45,2.45,0,0,1-.37,1.38,2.17,2.17,0,0,1-1.09.84l1.53,2.73a.35.35,0,0,1,0,.13.24.24,0,0,1-.24.24h-.94a.45.45,0,0,1-.33-.11.77.77,0,0,1-.15-.19l-1.45-2.58H72.73v2.58a.29.29,0,0,1-.09.21.26.26,0,0,1-.21.09h-.89a.31.31,0,0,1-.3-.3v-7.14a.31.31,0,0,1,.3-.3Zm-1.66,3.48h1.61a1.93,1.93,0,0,0,1-.22.9.9,0,0,0,.38-.84.87.87,0,0,0-.38-.83,2,2,0,0,0-1-.21H72.73Z" style="fill:#BA68C8"></path><path d="M83.8,382.79a.29.29,0,0,1,.21.09.26.26,0,0,1,.09.21v.78a.31.31,0,0,1-.3.3H78.94a.29.29,0,0,1-.21-.09.32.32,0,0,1-.08-.21v-7.14a.32.32,0,0,1,.08-.21.29.29,0,0,1,.21-.09h4.77a.31.31,0,0,1,.3.3v.78a.26.26,0,0,1-.09.21.29.29,0,0,1-.21.09H80.14v1.76h3.33a.29.29,0,0,1,.21.09.32.32,0,0,1,.08.21v.78a.3.3,0,0,1-.08.21.29.29,0,0,1-.21.09H80.14v1.84Z" style="fill:#BA68C8"></path><path d="M53.26,389.7a.28.28,0,0,1,.21.08.29.29,0,0,1,.09.21v7.14a.26.26,0,0,1-.09.21.29.29,0,0,1-.21.09h-.9a.29.29,0,0,1-.21-.09.26.26,0,0,1-.09-.21v-2.91H48.73v2.91a.26.26,0,0,1-.09.21.29.29,0,0,1-.21.09h-.9a.28.28,0,0,1-.21-.08.29.29,0,0,1-.09-.22V390a.29.29,0,0,1,.09-.21.28.28,0,0,1,.21-.08h.9a.28.28,0,0,1,.21.08.29.29,0,0,1,.09.21v2.84h3.33V390a.29.29,0,0,1,.09-.21.28.28,0,0,1,.21-.08Z" style="fill:#BA68C8"></path><path d="M61.16,389.7a.28.28,0,0,1,.21.08.29.29,0,0,1,.09.21.3.3,0,0,1,0,.1l-2.62,4.61v2.43a.26.26,0,0,1-.09.21.29.29,0,0,1-.21.09h-.89a.29.29,0,0,1-.29-.3V394.7l-2.62-4.61a.17.17,0,0,1,0-.1.29.29,0,0,1,.09-.21.28.28,0,0,1,.21-.08h.83a.41.41,0,0,1,.33.11.57.57,0,0,1,.14.16l1.79,3.13L59.87,390a.49.49,0,0,1,.13-.16.41.41,0,0,1,.33-.11Z" style="fill:#BA68C8"></path><path d="M65.63,389.7a4.38,4.38,0,0,1,1.42.21,2.72,2.72,0,0,1,1,.61,2.65,2.65,0,0,1,.62,1,4,4,0,0,1,.26,1.26,14.77,14.77,0,0,1,0,1.63,4,4,0,0,1-.26,1.26,2.63,2.63,0,0,1-.61,1,2.78,2.78,0,0,1-1,.62,4.19,4.19,0,0,1-1.39.21H62.9a.27.27,0,0,1-.21-.09.26.26,0,0,1-.09-.21V390a.29.29,0,0,1,.09-.21.26.26,0,0,1,.21-.08Zm1.81,3.05a2.28,2.28,0,0,0-.14-.66,1.55,1.55,0,0,0-.34-.53,1.64,1.64,0,0,0-.57-.36,2.49,2.49,0,0,0-.82-.12H64.09v5h1.54a2.06,2.06,0,0,0,.78-.13,1.42,1.42,0,0,0,.89-.88,2.28,2.28,0,0,0,.14-.66A14.77,14.77,0,0,0,67.44,392.75Z" style="fill:#BA68C8"></path><path d="M73.53,389.7a3.05,3.05,0,0,1,2.1.64,2.25,2.25,0,0,1,.72,1.78,2.53,2.53,0,0,1-.37,1.37,2.24,2.24,0,0,1-1.09.85l1.52,2.73a.19.19,0,0,1,0,.12.26.26,0,0,1-.07.17.24.24,0,0,1-.18.07h-.94a.44.44,0,0,1-.32-.1.8.8,0,0,1-.15-.2l-1.45-2.57H71.87v2.57a.26.26,0,0,1-.09.21.29.29,0,0,1-.21.09h-.89a.29.29,0,0,1-.21-.09.26.26,0,0,1-.09-.21V390a.29.29,0,0,1,.09-.21.28.28,0,0,1,.21-.08Zm-1.66,3.48h1.6a2.07,2.07,0,0,0,1-.22.9.9,0,0,0,.38-.84.86.86,0,0,0-.38-.83,2.08,2.08,0,0,0-1-.21h-1.6Z" style="fill:#BA68C8"></path><path d="M81.42,389.7a.37.37,0,0,1,.27.09.73.73,0,0,1,.15.28l2.71,7a.15.15,0,0,1,0,.07.26.26,0,0,1-.09.21.29.29,0,0,1-.21.09h-.79a.41.41,0,0,1-.31-.09.68.68,0,0,1-.13-.18l-.47-1.23H79.07l-.48,1.23a.47.47,0,0,1-.12.18.43.43,0,0,1-.31.09h-.8a.29.29,0,0,1-.21-.09.25.25,0,0,1-.08-.21.15.15,0,0,1,0-.07l2.71-7a.73.73,0,0,1,.15-.28.37.37,0,0,1,.27-.09Zm.61,4.85-1.22-3.15-1.21,3.15Z" style="fill:#BA68C8"></path><path d="M90.58,397.43a.36.36,0,0,1-.28-.1,1,1,0,0,1-.15-.15l-3.09-4.6v4.55a.26.26,0,0,1-.09.21.29.29,0,0,1-.21.09h-.9a.29.29,0,0,1-.21-.09.25.25,0,0,1-.08-.21V390a.27.27,0,0,1,.29-.29h.78a.39.39,0,0,1,.28.09l.15.16,3.09,4.6V390a.29.29,0,0,1,.09-.21.28.28,0,0,1,.21-.08h.9a.28.28,0,0,1,.21.08.29.29,0,0,1,.09.21v7.14a.26.26,0,0,1-.09.21.29.29,0,0,1-.21.09Z" style="fill:#BA68C8"></path><path d="M98.53,389.7a.28.28,0,0,1,.21.08.29.29,0,0,1,.09.21v.79a.31.31,0,0,1-.3.3h-2v6.05a.26.26,0,0,1-.09.21.29.29,0,0,1-.21.09h-.89a.29.29,0,0,1-.21-.09.26.26,0,0,1-.09-.21v-6.05h-2a.31.31,0,0,1-.3-.3V390a.29.29,0,0,1,.09-.21.28.28,0,0,1,.21-.08Z" style="fill:#BA68C8"></path><g id="Hydrant"><path d="M174.91,413.24c0-5.57-3.68-11.14-11-15.39-14.71-8.49-38.56-8.49-53.28,0-7.35,4.25-11,9.82-11,15.38v8.56c0,5.57,3.68,11.13,11,15.38,14.72,8.49,38.57,8.49,53.28,0,7.36-4.25,11-9.81,11-15.38Z" style="fill:#BA68C8"></path><path d="M174.91,413.23c0,5.57-3.68,11.14-11,15.39-14.71,8.49-38.56,8.49-53.28,0-7.35-4.25-11-9.82-11-15.39a14.79,14.79,0,0,1,3.88-9.63v7.31a12.71,12.71,0,0,0,2.47,7.34,23,23,0,0,0,7.43,6.45c13.2,7.62,34.59,7.62,47.79,0,6.6-3.8,9.9-8.8,9.9-13.79V403.6A14.79,14.79,0,0,1,174.91,413.23Z" style="fill:#BA68C8"></path><path d="M174.91,413.23c0,5.57-3.68,11.14-11,15.39-14.71,8.49-38.56,8.49-53.28,0-7.35-4.25-11-9.82-11-15.39a14.79,14.79,0,0,1,3.88-9.63v7.31a12.71,12.71,0,0,0,2.47,7.34,23,23,0,0,0,7.43,6.45c13.2,7.62,34.59,7.62,47.79,0,6.6-3.8,9.9-8.8,9.9-13.79V403.6A14.79,14.79,0,0,1,174.91,413.23Z" style="fill:#fff;opacity:0.2"></path><path d="M105.91,418.25a12.83,12.83,0,0,1-2.48-7.35v-7.27a26.85,26.85,0,0,1,7.17-5.78c14.71-8.49,38.56-8.49,53.27,0a27,27,0,0,1,7.17,5.78v7.27c0,5-3.31,10-9.91,13.8-13.2,7.62-34.59,7.62-47.8,0A23,23,0,0,1,105.91,418.25Z" style="opacity:0.1"></path><path d="M103.05,404.07a4.33,4.33,0,0,1,.38-.47v0A3.72,3.72,0,0,0,103.05,404.07Z" style="fill:#BA68C8"></path><path d="M171,403.6a4.12,4.12,0,0,1,.33.43,2.91,2.91,0,0,0-.33-.4Z" style="fill:#BA68C8"></path><polygon points="111.21 364.57 108.26 357.88 96.65 364.57 96.65 376.82 108.26 383.52 111.21 377.96 111.21 364.57" style="fill:#BA68C8"></polygon><polygon points="96.65 364.57 96.65 367.87 111.21 364.57 108.26 357.88 96.65 364.57" style="fill:#fff;opacity:0.2"></polygon><polygon points="96.65 376.82 96.65 373.53 111.21 376.82 108.26 383.52 96.65 376.82" style="opacity:0.2"></polygon><polygon points="108.26 357.88 106.19 365.71 104.94 375.4 96.65 376.82 108.26 383.52 108.26 357.88" style="opacity:0.2"></polygon><polygon points="163.26 364.57 166.2 357.88 177.82 364.57 177.82 376.82 166.2 383.52 163.26 377.96 163.26 364.57" style="fill:#BA68C8"></polygon><polygon points="177.82 364.57 177.82 367.87 163.26 364.57 166.2 357.88 177.82 364.57" style="fill:#fff;opacity:0.2"></polygon><polygon points="177.82 376.82 177.82 373.53 163.26 376.82 166.2 383.52 177.82 376.82" style="opacity:0.2"></polygon><polygon points="166.2 357.88 168.27 365.71 169.53 375.4 177.82 376.82 166.2 383.52 166.2 357.88" style="opacity:0.2"></polygon><path d="M108.26,330.23v79.31c0,5.94,5.44,11.87,16.3,15.1a44.63,44.63,0,0,0,25.35,0c10.86-3.23,16.29-9.16,16.29-15.1V330.23C166.2,314.23,108.26,314.23,108.26,330.23Z" style="fill:#BA68C8"></path><path d="M165.85,328.27l-.85.24c-8.21-12.17-56.74-10.95-56.74,3.7v19a23,23,0,0,0,6.14,5c10.33,6,25.92,7,38.16,3.22v15.14h-3.74V388l-11.59,6.69.47.33,11.62,7.2v10.1c-6.52,8.65-21.6,13.85-32.49,9.13a35.88,35.88,0,0,0,7.73,3.24,44.63,44.63,0,0,0,25.35,0c10.86-3.23,16.29-9.16,16.29-15.1V330.23A6.12,6.12,0,0,0,165.85,328.27Z" style="opacity:0.15"></path><path d="M169.53,330.66c0-4.77-3.15-9.54-9.46-13.18-12.61-7.28-33.06-7.28-45.67,0-6.31,3.64-9.46,8.41-9.46,13.18V338c0,4.78,3.15,9.55,9.46,13.19,12.61,7.28,33.06,7.28,45.67,0,6.31-3.64,9.46-8.41,9.46-13.18Z" style="fill:#BA68C8"></path><path d="M169.53,330.66c0,4.77-3.16,9.54-9.46,13.19-12.61,7.28-33.06,7.28-45.67,0-6.31-3.65-9.46-8.42-9.46-13.19a12.74,12.74,0,0,1,3.32-8.26v6.27a10.87,10.87,0,0,0,2.13,6.29,19.56,19.56,0,0,0,6.36,5.53c11.32,6.53,29.65,6.53,41,0,5.66-3.26,8.48-7.55,8.48-11.82V322.4A12.7,12.7,0,0,1,169.53,330.66Z" style="fill:#BA68C8"></path><path d="M169.53,330.66c0,4.77-3.16,9.54-9.46,13.19-12.61,7.28-33.06,7.28-45.67,0-6.31-3.65-9.46-8.42-9.46-13.19a12.74,12.74,0,0,1,3.32-8.26v6.27a10.87,10.87,0,0,0,2.13,6.29,19.56,19.56,0,0,0,6.36,5.53c11.32,6.53,29.65,6.53,41,0,5.66-3.26,8.48-7.55,8.48-11.82V322.4A12.7,12.7,0,0,1,169.53,330.66Z" style="fill:#fff;opacity:0.2"></path><path d="M137.23,298.72a29,29,0,0,0-29,29v1c0,5.94,5.44,11.87,16.3,15.1a44.46,44.46,0,0,0,25.35,0c10.86-3.23,16.29-9.16,16.29-15.1v-1a29,29,0,0,0-29-29Z" style="fill:#BA68C8"></path><path d="M139.33,330.23c15.17-7.12,19.27-16.58,18.21-23.18a28.95,28.95,0,0,0-48.64,14.62C108.22,329,121.47,338.62,139.33,330.23Z" style="fill:#fff;opacity:0.2"></path><path d="M114.08,315a15.19,15.19,0,0,0,.22,10.55c.8,1.8,2.28,3.51,4.24,3.71a1.14,1.14,0,0,0,.73-.13,1.13,1.13,0,0,0,.38-.57c.79-2.19-.15-4.58-.54-6.88a23.23,23.23,0,0,1-.12-5.59,16.52,16.52,0,0,1,2.36-6.72c.3-.52,1.06-1.52.76-2.47s-1.55-.32-2.63.64a24,24,0,0,0-3.71,4.33A16.31,16.31,0,0,0,114.08,315Z" style="fill:#fff;opacity:0.2"></path><path d="M150.19,339.09c-13.69,5.12-27.26,4.36-40.52-5.28,2.25,4,7.21,7.67,14.89,9.95a44.46,44.46,0,0,0,25.35,0c10.86-3.23,16.29-9.16,16.29-15.1v-1a28.9,28.9,0,0,0-2.44-11.63C166.18,322.52,163.82,334,150.19,339.09Z" style="opacity:0.2"></path><path d="M148.64,300.9c0-1.67-1.11-3.33-3.31-4.6a17.58,17.58,0,0,0-16,0c-2.2,1.27-3.3,2.93-3.3,4.6v4.61c0,1.66,1.1,3.33,3.3,4.6a17.65,17.65,0,0,0,16,0c2.2-1.27,3.31-2.94,3.31-4.6Z" style="fill:#BA68C8"></path><path d="M130.26,306v4.58a14.4,14.4,0,0,0,2.77,1v-4.6A13.72,13.72,0,0,1,130.26,306Zm-2.69-1.82v4.55a9.14,9.14,0,0,0,1.22,1v-4.57A6.39,6.39,0,0,1,127.57,304.13Z" style="fill:#fff;opacity:0.2"></path><path d="M129.38,305.51a17.65,17.65,0,0,0,16,0c2.2-1.28,3.31-2.94,3.31-4.61s-1.11-3.33-3.31-4.6a17.58,17.58,0,0,0-16,0c-2.2,1.27-3.3,2.93-3.3,4.6S127.18,304.23,129.38,305.51Z" style="fill:#fff;opacity:0.2"></path><g style="opacity:0.4"><path d="M145.33,296.3a14.61,14.61,0,0,0-5.34-1.6,19.18,19.18,0,0,0-5.56.08,14.25,14.25,0,0,0-5.21,1.85c-1.53.94-2.91,2.46-2.9,4.27s1.37,3.33,2.9,4.27a14.25,14.25,0,0,0,5.21,1.85,19.18,19.18,0,0,0,5.56.08,14.79,14.79,0,0,0,5.34-1.59,17,17,0,0,1-11,1.83,14.76,14.76,0,0,1-5.36-1.82c-1.6-.95-3.15-2.55-3.18-4.62s1.58-3.67,3.18-4.62a14.76,14.76,0,0,1,5.36-1.82A17,17,0,0,1,145.33,296.3Z" style="fill:#fff"></path></g><path d="M146,299.64a8.66,8.66,0,0,0-17.31,0h0a2.05,2.05,0,0,0,.09.56,4.62,4.62,0,0,0,2.45,3,13.54,13.54,0,0,0,12.24,0,4.61,4.61,0,0,0,2.44-3A2.05,2.05,0,0,0,146,299.64Z" style="fill:#BA68C8"></path><path d="M138.48,291.1a7.24,7.24,0,0,1,4.5,9.55c-1.54,3.74-8.22,4.14-13.27,1.3a5.93,5.93,0,0,0,1.53,1.23,13.54,13.54,0,0,0,12.24,0,4.61,4.61,0,0,0,2.44-3,2.05,2.05,0,0,0,.09-.56A8.63,8.63,0,0,0,138.48,291.1Z" style="opacity:0.2"></path><path d="M133.11,293.77a.74.74,0,0,1,.8,0c.25.29,0,.81-.13,1.12a6.33,6.33,0,0,0-.2,5c.24.6.55,1.34.13,1.84a1.3,1.3,0,0,1-1.48.14,4,4,0,0,1-1.94-4.95,4.93,4.93,0,0,1,1-1.65A6.42,6.42,0,0,1,133.11,293.77Z" style="fill:#fff;opacity:0.2"></path><polygon points="125.64 374.56 125.64 387.95 137.23 394.64 148.82 387.95 148.82 374.56 137.23 367.87 125.64 374.56" style="fill:#BA68C8"></polygon><polygon points="125.64 374.56 125.64 387.95 137.23 394.64 148.82 387.95 148.82 374.56 137.23 367.87 125.64 374.56" style="opacity:0.2"></polygon><polygon points="128.92 379.11 128.92 388.71 137.23 393.51 145.55 388.71 145.55 379.11 137.23 374.3 128.92 379.11" style="fill:#f0f0f0"></polygon><polygon points="132.9 381.4 132.9 386.41 137.23 388.91 141.57 386.41 141.57 381.4 137.23 378.9 132.9 381.4" style="opacity:0.1"></polygon><polygon points="141.57 383.87 141.57 386.4 137.24 388.91 132.9 386.4 132.9 383.87 137.24 386.36 141.57 383.87" style="opacity:0.1"></polygon><polygon points="137.23 374.3 137.23 367.87 125.64 374.56 128.92 379.11 137.23 374.3" style="fill:#BA68C8"></polygon><polygon points="137.23 374.3 137.23 367.87 125.64 374.56 128.92 379.11 137.23 374.3" style="fill:#fff;opacity:0.2"></polygon><polygon points="125.64 387.95 128.92 388.71 128.92 379.11 125.64 374.56 125.64 387.95" style="fill:#BA68C8"></polygon></g></g><g id="Character"><g id="Chartacter"><g id="Bottom"><path d="M316.83,427.68c.35,0,.95,3.64-.95,5.23-2.2,1.83-8.67,4.88-17.31,4s-13.34-3.31-16.83-6-8.39-6.36-12.3-7.1c-3.64-.69-7.59-2.16-8.77-3.18s-1.09-5.69-1.09-5.69Z" style="fill:#263238"></path><path d="M262.73,397a1.37,1.37,0,0,0-1.29,1.11c-.25,1.29-.47,5-1,7.14-.74,2.94-1.17,8.95-.66,11.33s6.44,3.93,10.24,5.21a48.8,48.8,0,0,1,12.34,7c4.1,3.05,12.67,6.16,18.29,6,6.64-.16,14.09-2.3,15.76-5.21,2.06-3.6,3.54-7.77-6.38-11.88-1.88-.78-8.49-4.29-10.75-5.57-6.1-3.45-10.4-6.65-13.28-12.9a3.51,3.51,0,0,0-1.45-1.9,3.37,3.37,0,0,0-1.92-.13c-1.64.25-8.17,1.2-9.66,1.9-1.31.61-3.17,1.33-3.12,2.91a5.08,5.08,0,0,0,.4,1.61c.12.32.22.75-.08.94s-.66,0-.92-.22a25.11,25.11,0,0,1-2.71-2.94A9.54,9.54,0,0,0,265,400a17.76,17.76,0,0,1-1.71-1C262.63,398.43,262.77,397.73,262.73,397Z" style="fill:#455a64"></path><path d="M221.23,442.64c-.64,5.78-1.9,9.54-4.6,12.72s-7.6,3.82-12.49,2.37-11.09-4.68-12.32-9.83-.82-8.57.5-13.87Z" style="fill:#263238"></path><path d="M201.63,398.58c-2-.06-1.37,7.84-2.82,15.56-1.56,8.28-4.81,11.46-6.18,18.24-1.57,7.75-1.18,11.3,2.08,16.37S210,459.56,216.2,453.3c5.09-5.11,5.51-11.24,5.35-19.13-.16-8.15-.36-13.9.28-20,.6-5.85,2.39-11.08.65-11.9-.17.86-.34,1.94-.51,2.78-.14.64-.45,3.8-1.59,3.73a9.71,9.71,0,0,1,.06-2.22,2.34,2.34,0,0,0-.49-1.94,9.8,9.8,0,0,0-3.29-1.44c-2-.5-5.53-1.09-7.55-1.42-1-.17-2-.3-3-.38a9.65,9.65,0,0,0-2.58.06,1.59,1.59,0,0,0-1.13.7,2.06,2.06,0,0,0-.14.89,5.1,5.1,0,0,1-.31,1.59c-.08.22-.29.49-.58.41a.49.49,0,0,1-.32-.51c0-.95.21-1.62.3-2.72.05-.51.17-1.19.2-1.71S201.57,399.08,201.63,398.58Z" style="fill:#455a64"></path><path d="M211.74,219.27c-1.47,10.11-5.15,23.83-5.68,34.62-2.35,47.82-4.32,82.06-4.32,82.06-.38,3.46-3.22,15.06-4.15,32.22-1.17,21.63-2,43.07-2,43.07,1.67,8.11,19.7,12.51,30.61,6.15,0,0,8.79-45.56,13.64-68.56,4.55-21.62,8.79-43.79,8.79-43.79l2.69,20.69s-.22,14,0,23.1c.25,10.59,8.2,55.57,8.2,55.57,5.86,6.17,22.4,5.87,30-.8,0,0,.46-65.13,1-77.87,1-25-6.08-76.76-6.4-109Z" style="fill:#BA68C8"></path><path d="M289.63,393.31a33,33,0,0,1-18.37,5.13,26.74,26.74,0,0,1-13.47-4.17l.83,4.84A32.11,32.11,0,0,0,271,402.2c.48,0,1,.05,1.47.05a37.94,37.94,0,0,0,17.11-4.52C289.61,396.43,289.62,395,289.63,393.31Z" style="fill:#fff"></path><path d="M271.43,392.1a29.21,29.21,0,0,1-14.89-5.35c.29,1.76.57,3.46.84,5.05a33,33,0,0,0,13.81,4.06c.54,0,1.08,0,1.62,0a33.63,33.63,0,0,0,16.84-4.77c0-1.43,0-3,0-4.57A30,30,0,0,1,271.43,392.1Z" style="fill:#fff"></path><path d="M270.41,379.15c-8-.46-13.08-3.35-16-5.73.26,1.73.54,3.47.81,5.2a33,33,0,0,0,15,4.29c.5,0,1,0,1.54,0a39.71,39.71,0,0,0,18.05-4.81c0-1.45,0-2.93,0-4.43C284.16,377.32,276.64,379.5,270.41,379.15Z" style="fill:#fff"></path><path d="M270.59,372.48a30.83,30.83,0,0,1-17.35-6.89c.24,1.72.51,3.5.78,5.3a34.82,34.82,0,0,0,16.32,5.35c.57,0,1.13,0,1.7,0a35.38,35.38,0,0,0,17.79-5.08c0-1.51,0-3.05,0-4.59A31.58,31.58,0,0,1,270.59,372.48Z" style="fill:#fff"></path><path d="M211.33,402.4a27.74,27.74,0,0,1-15-8.58c-.08,1.81-.16,3.53-.23,5.13a31.27,31.27,0,0,0,14.48,7.14,28.05,28.05,0,0,0,5.21.48,33.07,33.07,0,0,0,13.06-2.81c.29-1.47.59-3,.91-4.65A28.6,28.6,0,0,1,211.33,402.4Z" style="fill:#fff"></path><path d="M213.18,382.84a29.11,29.11,0,0,1-15.88-9.13c-.09,1.73-.18,3.45-.26,5.14a32.77,32.77,0,0,0,15.4,7.69,29,29,0,0,0,5.46.5,34.68,34.68,0,0,0,14.94-3.53c.31-1.59.63-3.19.95-4.8C227.51,382.51,219.76,384.1,213.18,382.84Z" style="fill:#fff"></path><path d="M210.31,408.67c-7.66-1.45-12-5.1-14.28-7.74-.08,1.95-.15,3.68-.21,5.13a29.29,29.29,0,0,0,13.74,6.31,28.19,28.19,0,0,0,5.12.45,37.48,37.48,0,0,0,12.89-2.41c.26-1.33.55-2.82.86-4.45C222.86,408.61,215.86,409.72,210.31,408.67Z" style="fill:#fff"></path><path d="M212.1,389.43c-8.21-1.56-12.84-5.52-15.17-8.31-.09,1.76-.17,3.48-.25,5.16a30.54,30.54,0,0,0,14.68,6.85,29,29,0,0,0,5.36.47,39.38,39.38,0,0,0,14.72-3c.29-1.5.6-3,.9-4.58C226.32,389.22,218.34,390.61,212.1,389.43Z" style="fill:#fff"></path><path d="M225.84,281.34c-16.73-1.09-20.92-4.72-20.92-4.72l.09-1.76s-1.56-.86-2,8.38c-.42,8-2.12,29.85-1.26,33.64s12,6.58,17,6.29c1.28-.08,3.73.6,4.26-6.47C223.9,304.58,225.84,281.34,225.84,281.34Z" style="fill:#BA68C8"></path><path d="M225.84,281.34c-16.73-1.09-20.92-4.72-20.92-4.72l.09-1.76s-1.56-.86-2,8.38c-.42,8-2.12,29.85-1.26,33.64s12,6.58,17,6.29c1.28-.08,3.73.6,4.26-6.47C223.9,304.58,225.84,281.34,225.84,281.34Z" style="opacity:0.2"></path><path d="M287.89,274.86l.17,2.51s-2.23,1.38-2.23,3.38.87,30.48,1,34.17c.18,3.94,2.56,3,4.13.59.8-1.23,1.19-5.4.65-14.86C290.42,279.05,291.71,274.86,287.89,274.86Z" style="fill:#BA68C8"></path><path d="M287.89,274.86l.17,2.51s-2.23,1.38-2.23,3.38.87,30.48,1,34.17c.18,3.94,2.56,3,4.13.59.8-1.23,1.19-5.4.65-14.86C290.42,279.05,291.71,274.86,287.89,274.86Z" style="opacity:0.2"></path><path d="M248.65,305,256,258.38s12.1-1.58,18.39-7.18c0,0-4.12,7.47-15.56,10.22l-7.5,41.78v22.53Z" style="opacity:0.2"></path></g><path d="M284.19,220.75l-73.08,2.39c-1.7,9.56-4.59,21.28-5.05,30.75q-.42,8.52-.82,16.42c4.12,2.58,10.9,5.52,21.7,7.07,21.92,3.15,28.79,0,28.79,0l2.93-6.4,1.82,5.24c8.95,1.08,18.84-1.29,27.1-5.09C286.1,253.54,284.57,235.48,284.19,220.75Z" style="opacity:0.2"></path><g id="Top"><path d="M286.85,159.79c7.69,12.27,20.52,31.57,20.52,31.57s17-7.45,24.24-12.36c3-2.05,3.44-3.44,4-4.79a39.13,39.13,0,0,1,2.56-4.83c1.11-1.93,1.7-2.56,3-5s2.27-7.1,2.71-8c.74-1,3.15-.63,4.17,2.18a10.93,10.93,0,0,1,0,5.76c-.29,1.45-1.63,4,.62,4.26,2.85.35,6.08-1.4,8.42-2.81,2.85-1.73,9.44-7.52,12.77-4.27a2.44,2.44,0,0,0,1,.75,1.84,1.84,0,0,0,.87-.07,5.89,5.89,0,0,1,3-.12,2.41,2.41,0,0,1,1.82,2.16c0,1.64-2.19,2.78-1.93,4.4a7.14,7.14,0,0,0,.37,1.07,3.81,3.81,0,0,1-.53,3.1,10.93,10.93,0,0,1-2.19,2.37,4.17,4.17,0,0,0-1.51,2c-.11.44-.07.91-.14,1.36a4.79,4.79,0,0,1-1.81,2.69,30.6,30.6,0,0,1-4,2.7c-5.83,3.51-11.72,6.91-18.45,8.29-3.8.79-6.95,3.82-10,6.06,0,0-16.94,12.26-22.92,15.78-6.81,4-11.71,4.67-19.4-4.73-9.75-11.93-20-25.34-20-25.34l-3.26-36.28C274.76,148.18,281.59,151.4,286.85,159.79Z" style="fill:#455a64"></path><path d="M270.9,146.26c8.82,2.34,12.34,5.92,16.84,12.91s19.82,30.07,19.82,30.07l21.76-9.19s-3.95,6.71-1.23,13.6,6.42,7.27,6.42,7.27-14.05,10.11-20.3,14.13-10.5,5.08-17.5-1.32-26.91-28.44-26.91-28.44Z" style="fill:#BA68C8"></path><path d="M270.9,146.26c8.82,2.34,12.34,5.92,16.84,12.91s19.82,30.07,19.82,30.07l21.76-9.19s-3.95,6.71-1.23,13.6,6.42,7.27,6.42,7.27-14.05,10.11-20.3,14.13-10.5,5.08-17.5-1.32-26.91-28.44-26.91-28.44Z" style="opacity:0.2"></path><path d="M307.56,189.24a15.6,15.6,0,0,0-7.3,8.7,10.68,10.68,0,0,1,5.7-11.12Z" style="opacity:0.2"></path><path d="M322.82,190.1a16.61,16.61,0,0,1,1.22-7.83l-3.13,1.33a20.37,20.37,0,0,0-.63,6.67,22.1,22.1,0,0,0,7.53,15.42l2.18-1.54A19.47,19.47,0,0,1,322.82,190.1Z" style="fill:#fff"></path><path d="M318.63,195a18.32,18.32,0,0,1,.1-10.45l-3,1.27a22.23,22.23,0,0,0,.44,9.82,25.81,25.81,0,0,0,7.79,12.8l2.13-1.5A23.22,23.22,0,0,1,318.63,195Z" style="fill:#fff"></path><path d="M349.13,171.74c0-.13-.36-.38-.42-.13-.25,1.09-.41,2.19-.71,3.26a9.9,9.9,0,0,1-1.42,3,9.51,9.51,0,0,1-2.15,2.19c-.39.29-.81.54-1.22.79a8.22,8.22,0,0,0-1,.93s-.05.13,0,.14a4.07,4.07,0,0,0,2.06-.45,9.14,9.14,0,0,0,1.31-.89,10.2,10.2,0,0,0,3.52-5.23A6.22,6.22,0,0,0,349.13,171.74Z" style="fill:#37474f"></path><path d="M285.27,226.74l5.15,34s-2.86,5.1-13.58,8.53-17.08,1.8-17.08,1.35-2.08-5.47-2.08-5.47l-1.24,6.25s-4.08,3.22-17.69,2.48-28.58-4.09-36.7-13.45l9.69-35Z" style="fill:#BA68C8"></path><path d="M242.31,260.73a59.9,59.9,0,0,0,16.43-2.06c10.25,1.53,21.18-2.32,29.92-9.59l-.45-2.92c-8.45,7.54-19.29,11.58-29.37,10l-.29,0-.28.08c-17.94,5.7-40.17-.61-52.32-9.82l-.52,1.88-.2.72C214.49,255.7,228.36,260.73,242.31,260.73Z" style="fill:#fff"></path><path d="M257.87,264.11c10.83,2.18,21.68-.63,31.83-8.13l-.43-2.83c-10,7.74-20.64,10.66-31.2,8.43l-.32-.07-.32.11c-18.32,5.81-41.52.05-53.28-8.75l-.72,2.58c9,6.42,23.29,11.07,37.59,11.07A57.08,57.08,0,0,0,257.87,264.11Z" style="fill:#fff"></path><path d="M258.33,256l.9-9.14c.32-3,.58-6.08.85-9.13.13-1.52.24-3.05.33-4.58l.31-4.59c.16,1.53.23,3.07.3,4.6s0,3.08,0,4.62c0,3.08-.27,6.15-.56,9.21s-.71,6.1-1.2,9.13-1,6.05-1.6,9.07C257.77,262.06,258.05,259,258.33,256Z" style="opacity:0.2"></path><path d="M212.57,220.93l-.83,4.51s8.69,9.49,38.53,10.46,35-9.16,35-9.16l-.56-4.64Z" style="fill:#37474f"></path><path id="Chest" d="M284.71,222.1c2.47-4.71,1-17.78.56-36.07-.62-25.44-5.23-35.49-14.37-39.77L255.16,143l-22.06-.25c-4.59,1-1.18-.13-7,1.49s-16.15,4.61-16.15,4.61S196,154.73,204,185c.67,2.52,6.46,14.17,6.45,22,0,11.17-1.23,11.17.89,14.07C224.51,230.55,266,238.62,284.71,222.1Z" style="fill:#BA68C8"></path><path d="M257.81,169.69c.78,3.57,1.21,7.2,1.76,10.8s.83,4.28,1.11,7.91c.56,7.26.89,14.54.88,21.82a166.85,166.85,0,0,1-.84,18.29l-1.11-18.24c-.4-7.23-.83-14.46-1.43-21.67s-1.28-11.44-2.29-18.58c-.47-3.59-1.13-7.13-1.81-10.68l-1.19-5.29c-.54-1.72-1-3.46-1.55-5.22C254.59,155.37,256.4,162.55,257.81,169.69Z" style="opacity:0.2"></path><g id="Head"><path d="M218.68,110.68c1.65,3.1,11.25,15.11,12.53,18.06.49,1.12,1.52-.2,2.62.46.85.51,2,.15,2.86-.1a15.57,15.57,0,0,0,1.5-.51,24.26,24.26,0,0,0,7.12-4.67c3.18-2.86,6-6.13,8.87-9.28a119.77,119.77,0,0,0,8.24-9.37c1.21-1.63,8.2-.65,9.57-9.3a11.57,11.57,0,0,0-2.07-8.64c-1.46-4.61-12.75-16.17-32.53-9.2S218.21,98.56,218.68,110.68Z" style="fill:#263238"></path><path d="M230.94,132.39c-.11-2.36-.19-9.2-.19-9.2a7,7,0,0,1-8.57-.65A9.34,9.34,0,0,1,220,110c2.36-3.55,9-3.86,10,1.87,3.3-.32,4.81-1.84,3.19-7.2.13-3.83,4.38-5.19,3.79-13.48,10.45-7.81,21.49-7.93,28.42-2.61a64.47,64.47,0,0,1,3.8,20.74c.26,12.58-2.76,18.83-6.66,21.16-2.62,1.57-5,2-9.76,1.92l.44,3.93h0c.2,2,.11,3.44,2.06,4,1.31.36.71,2.59.71,2.59s-6.78,9-27.37-1C231.7,140.73,231.05,134.75,230.94,132.39Z" style="fill:#c8856a"></path><path d="M248,117.74l7.56,2a3.84,3.84,0,0,1-4.68,2.93A4.09,4.09,0,0,1,248,117.74Z" style="fill:#af6152"></path><path d="M248.54,119.43a4.29,4.29,0,0,1,4.47,3.11,3.76,3.76,0,0,1-2.16.09,4,4,0,0,1-2.88-3.09A5.22,5.22,0,0,1,248.54,119.43Z" style="fill:#f0997a"></path><path d="M264.76,98.56,260,96.25a2.56,2.56,0,0,1,3.48-1.31A2.81,2.81,0,0,1,264.76,98.56Z" style="fill:#263238"></path><path d="M242.43,100.23l5-1.91a2.59,2.59,0,0,0-3.39-1.63A2.84,2.84,0,0,0,242.43,100.23Z" style="fill:#263238"></path><path d="M259.73,103.47a2.28,2.28,0,0,0,2.18,2.31,2.16,2.16,0,0,0,2.27-2.1,2.29,2.29,0,0,0-2.18-2.3A2.14,2.14,0,0,0,259.73,103.47Z" style="fill:#263238"></path><path d="M243.67,104.76a2.28,2.28,0,0,0,2.18,2.31,2.15,2.15,0,0,0,2.27-2.1,2.29,2.29,0,0,0-2.18-2.3A2.14,2.14,0,0,0,243.67,104.76Z" style="fill:#263238"></path><path d="M261.91,110.42l-6.82,3.73-2.19-13.43C255.7,100.63,258.78,105.1,261.91,110.42Z" style="fill:#af6152"></path><path d="M252.71,132.39C244.22,132,236,129.7,233.88,126a10.09,10.09,0,0,0,3.74,6c5.9,4.39,15.42,3.39,15.42,3.39Z" style="fill:#af6152"></path></g><path d="M252.31,149.64c-7,2.08-11.08,1.23-17.34-1.46s-7.16-5.83-7.72-7.66,1.9-5.31,1.74-8.05,1.89-2.81,1.89-2.81l.06,2.73s4.57,5.89,13.91,6.41,8-5,8-5l-.15-1.39H255a57,57,0,0,0,2.46,7.88C258.52,142.58,259.31,147.55,252.31,149.64Z" style="fill:#BA68C8"></path><path d="M252.31,149.64c-7,2.08-11.08,1.23-17.34-1.46s-7.16-5.83-7.72-7.66,1.9-5.31,1.74-8.05,1.89-2.81,1.89-2.81l.06,2.73s4.57,5.89,13.91,6.41,8-5,8-5l-.15-1.39H255a57,57,0,0,0,2.46,7.88C258.52,142.58,259.31,147.55,252.31,149.64Z" style="opacity:0.2"></path><path d="M217.22,97.48a27.31,27.31,0,0,0,1.95,7.65c.57-.73,1.21-1.45,1.87-2.14a46.11,46.11,0,0,1,13.25-9.34h0c11.42-5.49,27.59-8.93,36.75-4.45a26.26,26.26,0,0,0-2.17-6.42,27.26,27.26,0,0,0-51.68,14.7Z" style="fill:#BA68C8"></path><path d="M217.22,97.48a27.31,27.31,0,0,0,1.95,7.65c.57-.73,1.21-1.45,1.87-2.14a46.11,46.11,0,0,1,13.25-9.34h0c11.42-5.49,27.59-8.93,36.75-4.45a26.26,26.26,0,0,0-2.17-6.42,27.26,27.26,0,0,0-51.68,14.7Z" style="fill:#fff;opacity:0.15"></path><path d="M228.68,70.24c1.36-.68,8.21-2.81,8.76-3,3.55-1.12,9.26-1.11,15.19,3.65A27.73,27.73,0,0,1,262,85.67L254.71,88l-2.33.24c-.91-5.35-8.12-16.84-18.06-17.17a9.53,9.53,0,0,0-1.41,0,13,13,0,0,0-3.83.82,37.36,37.36,0,0,0-3.83,3.14A6.1,6.1,0,0,1,228.68,70.24Z" style="fill:#BA68C8"></path><path d="M228.68,70.24c1.36-.68,8.21-2.81,8.76-3,3.55-1.12,9.26-1.11,15.19,3.65A27.73,27.73,0,0,1,262,85.67L254.71,88l-2.33.24c-.91-5.35-8.12-16.84-18.06-17.17a9.53,9.53,0,0,0-1.41,0,13,13,0,0,0-3.83.82,37.36,37.36,0,0,0-3.83,3.14A6.1,6.1,0,0,1,228.68,70.24Z" style="fill:#fff;opacity:0.30000000000000004"></path><path d="M252.39,88.29C251.3,82.06,241.62,67.37,229.08,72a38.55,38.55,0,0,0-3.84,3.14,6.17,6.17,0,0,1,3.44-4.87c3.27-1.6,9.83-2.45,16.68,3.07A27.63,27.63,0,0,1,254.71,88Z" style="fill:#BA68C8"></path><path d="M252.39,88.29C251.3,82.06,241.62,67.37,229.08,72a38.55,38.55,0,0,0-3.84,3.14,6.17,6.17,0,0,1,3.44-4.87c3.27-1.6,9.83-2.45,16.68,3.07A27.63,27.63,0,0,1,254.71,88Z" style="opacity:0.1"></path><path d="M207.83,120.87a18.78,18.78,0,0,1-.52-6.22c.35-3.06.95-7.15,8.17-16.09,6.9-8.54,11.36-12.26,20.31-15.26s15.86-3.76,25.27-4.38,12.29,1,13,5.94a71.76,71.76,0,0,0-22-.39c-12.15,1.65-22.93,7.39-29.58,14.71S207.83,120.87,207.83,120.87Z" style="fill:#BA68C8"></path><path d="M271.05,89.21a14.47,14.47,0,0,0-2.72-.61c-.89-.13-2-.24-3.38-.31a65.88,65.88,0,0,0-14.56,1.31c-1.63.31-3.35.68-5.19,1.12a55.23,55.23,0,0,0-8.13,2.62l-.12,0c-.56.24-1.08.47-1.59.71C225.08,98.89,221,105.57,221,105.57l.6,2.79-.09.08-.05,0-.64.52a6.21,6.21,0,0,0-1.51,2.37,9.39,9.39,0,0,0,5.45,12.29,6.6,6.6,0,0,0,4,.42l.17,0,1.82,2.22c0,1.23.05,2.65.07,3.87a41.88,41.88,0,0,1-10,.44c-9.73-.52-13-6.53-13.06-10.64-.06-3.87,1.62-10.06,10.27-20,8.12-9.39,12.33-12,20.79-15.15C244.63,82.55,265,80,270.43,81.6S274.54,86.58,271.05,89.21Z" style="fill:#BA68C8"></path><path d="M271.05,89.21a14.47,14.47,0,0,0-2.72-.61c-.89-.13-2-.24-3.38-.31a65.88,65.88,0,0,0-14.56,1.31c-1.63.31-3.35.68-5.19,1.12a55.23,55.23,0,0,0-8.13,2.62l-.12,0c-.56.24-1.08.47-1.59.71C225.08,98.89,221,105.57,221,105.57l.6,2.79-.09.08-.05,0-.64.52a6.21,6.21,0,0,0-1.51,2.37,9.39,9.39,0,0,0,5.45,12.29,6.6,6.6,0,0,0,4,.42l.17,0,1.82,2.22c0,1.23.05,2.65.07,3.87a41.88,41.88,0,0,1-10,.44c-9.73-.52-13-6.53-13.06-10.64-.06-3.87,1.62-10.06,10.27-20,8.12-9.39,12.33-12,20.79-15.15C244.63,82.55,265,80,270.43,81.6S274.54,86.58,271.05,89.21Z" style="opacity:0.30000000000000004"></path><g id="Arm"><path d="M209.43,257.34c-3.49,1.32-8.45-2.73-9.84-4.17a4,4,0,0,1-.8-2.18,6.92,6.92,0,0,1,.85-1.94,6.74,6.74,0,0,1-.58-2.81,2.31,2.31,0,0,1,1.64-2.14,5.7,5.7,0,0,1-.72-4.22,3.27,3.27,0,0,1,1.41-1.89c3.18-2,7.26,3.52,8.57,5.78A12,12,0,0,1,209.43,257.34Z" style="fill:#37474f"></path><path d="M210.43,150c-9.82,2.33-16.49,5.17-21,16.65-5.28,13.37-14.07,29.13-15.18,34.83-1,5.31-3.68,9.26,2.66,16.65,5.81,6.76,29.53,26.47,32.16,29,2.33,2.27,1.77,9.39-5.61,9,3.8,2.82,7.93,4.47,12.69,3.93A5.15,5.15,0,0,0,219.3,259c1.59-1.57.7-4.28,2-6a9.89,9.89,0,0,1,1-1,5,5,0,0,0,1.44-2.7c.28-1.55-.19-3.18.18-4.71.31-1.25,1.15-2.35,1.26-3.63.14-1.59-.87-3-1.88-4.25a43,43,0,0,0-7.4-7.12c-2.74-2-5-4.84-7.36-7.3a88,88,0,0,1-5.48-7.09l-6-7.75,13-25.54S219.66,158.1,210.43,150Z" style="fill:#455a64"></path></g><path d="M210.53,148.66c-11.11,1.5-15.17,3.43-20,12.71-4.64,9-12.41,26-15.75,35.13s-5.19,13.54-.93,19.38,26.78,25.9,26.78,25.9a13.39,13.39,0,0,0,10.17-5.33,13.13,13.13,0,0,0,2.7-10.87L199,207.7l12.15-24.93S221.29,157.16,210.53,148.66Z" style="fill:#BA68C8"></path><path d="M210.53,148.66c-11.11,1.5-15.17,3.43-20,12.71-4.64,9-12.41,26-15.75,35.13s-5.19,13.54-.93,19.38,26.78,25.9,26.78,25.9a13.39,13.39,0,0,0,10.17-5.33,13.13,13.13,0,0,0,2.7-10.87L199,207.7l12.15-24.93S221.29,157.16,210.53,148.66Z" style="opacity:0.2"></path><path d="M192.71,234.6a17.33,17.33,0,0,0,9.23-5.3,20.82,20.82,0,0,0,4.81-12L204,213.88c.08,4.3-.79,9.89-4.31,13.84a15.21,15.21,0,0,1-9.32,4.72Z" style="fill:#fff"></path><path d="M208.39,219.26a18.52,18.52,0,0,1-4.23,11.4,17.24,17.24,0,0,1-9.95,5.31l2.32,2.11a19.34,19.34,0,0,0,9.88-5.86,19.83,19.83,0,0,0,4.52-9.83Z" style="fill:#fff"></path><path d="M229,132.47c.16,2.74-2.3,6.22-1.75,8.05a10.42,10.42,0,0,0,1.34,3l-2.53.68c-5.22,1.45-13.86,3.95-15.76,4.5a47.73,47.73,0,0,0-8.47,1.76,10.64,10.64,0,0,1-2.5-2.42,10.47,10.47,0,0,1-1.36-8.29,6.74,6.74,0,0,1,2.88-3.71c1.54-.94,2.63-1.57,3-3.48.22-1,.24-2,.46-3a8.06,8.06,0,0,1,4.49-5.54c1.45-.66,3.07-.87,4.55-1.45a4.69,4.69,0,0,0,2.28-1.71,11.08,11.08,0,0,0,1.18-3,6,6,0,0,1,1.86-3.38,9.09,9.09,0,0,0,3.49,7.61c3.49,2.88,7.49,1.85,8.55,1,0,0,.05,3.59.11,6.47C230.67,129.68,228.84,129.88,229,132.47Z" style="fill:#263238"></path></g></g></g></svg>