<svg xmlns="http://www.w3.org/2000/svg" viewBox="0 0 500 500"><g id="Floor"><g id="floor"><ellipse id="floor" cx="248.78" cy="354.38" rx="231.53" ry="129.83" style="fill:#e0e0e0"></ellipse><g id="Lines"><path d="M453.34,408a9.57,9.57,0,0,0-8.66,0L325.11,477c31.92-6.24,61.89-16.5,87.39-30.8,19.09-10.71,34.13-22.82,45.16-35.74Z" style="fill:#fafafa"></path><path d="M95.89,370.2l19.77,11.42a9.57,9.57,0,0,0,8.66,0L261.9,302.19c2.39-1.38,2.39-3.62,0-5l-19.78-11.41a9.57,9.57,0,0,0-8.66,0L95.89,365.2C93.5,366.58,93.5,368.82,95.89,370.2Z" style="fill:#fafafa"></path><path d="M209.09,266.65l-19.77-11.42a9.57,9.57,0,0,0-8.66,0L43.08,334.66c-2.39,1.38-2.39,3.62,0,5l19.78,11.42a9.57,9.57,0,0,0,8.66,0l137.57-79.43C211.48,270.27,211.48,268,209.09,266.65Z" style="fill:#fafafa"></path><path d="M156.29,236.1l-.94-.54c-25.5,6.3-49.39,15.3-70.28,27-27.19,15.24-46.19,33.34-57,52.56l128.25-74C158.68,239.72,158.68,237.48,156.29,236.1Z" style="fill:#fafafa"></path><path d="M254.3,461.84l19.78,11.41a9.57,9.57,0,0,0,8.66,0l137.57-79.42c2.39-1.38,2.39-3.62,0-5l-19.77-11.42a9.57,9.57,0,0,0-8.66,0L254.3,456.84C251.91,458.22,251.91,460.46,254.3,461.84Z" style="fill:#fafafa"></path><path d="M367.51,358.28l-19.78-11.41a9.51,9.51,0,0,0-8.66,0L201.5,426.29c-2.39,1.38-2.39,3.62,0,5l19.77,11.42a9.57,9.57,0,0,0,8.66,0l137.58-79.43C369.9,361.9,369.9,359.66,367.51,358.28Z" style="fill:#fafafa"></path><path d="M294.93,316.32a9.57,9.57,0,0,0-8.66,0L148.69,395.75c-2.39,1.38-2.39,3.62,0,5l19.78,11.41a9.51,9.51,0,0,0,8.66,0L314.7,332.74c2.39-1.38,2.39-3.62,0-5Z" style="fill:#fafafa"></path></g></g></g><g id="Shadows"><path id="Shadow" d="M137.07,341.36l1.54.35c6.93,1.62,13.76,3.73,20.8,4.79,2,.3,4.08.48,6.13.58A35.87,35.87,0,0,0,177,346.3c3-.82,6.84-3.74,4.49-7.23-.65-1-1.5-2-1.37-3.11a3.82,3.82,0,0,1,2.13-2.5c7.67-4.64,17.34-5.71,26.14-4.87,7.61.73,15.08,5,22.45,7,8.1,2.23,16.6,3.51,25,2.24,2.88-.43,6.17-1.58,7-4.36a5.83,5.83,0,0,0-1.85-5.62,17.14,17.14,0,0,0-5.36-3.09c-5.58-2.37-12.65-4.19-17.58-7.67a92.5,92.5,0,0,1-9.36-7.52c-2.6-2.38-5.1-3.49-8.28-5.05C207.64,298.25,194,293,179.83,292.81c-4.56-.05-9.46.58-12.86,3.62-2.31,2.07-3.63,5-5.5,7.45-2.4,3.16-6.33,4.49-9.89,5.94a32.06,32.06,0,0,1-14.81,1.93,80.71,80.71,0,0,1-15.5-3.36c-4.31-1.26-8.83-1.95-13-3.5a30.08,30.08,0,0,0-17-1.19c-3.73.84-10.64,2.39-11.17,7-.31,2.7,1.07,5.31,2.66,7.52,6.07,8.38,15.69,13.56,25.55,16.69C117.7,337.85,127.49,339.21,137.07,341.36Z" style="opacity:0.07"></path><ellipse id="shadow" cx="396.38" cy="306.94" rx="44.2" ry="25.52" style="opacity:0.07"></ellipse><ellipse id="shadow" cx="301.57" cy="392.49" rx="53.32" ry="30.78" style="opacity:0.07"></ellipse></g><g id="character-4"><g id="Character"><path d="M335.87,141.1s3.06.15,7.24.11,14.16-.7,18.06-1.94c5.93-3.73,14.35-14.79,17.86-18.07,2.63-2.46,5.4-4,10.38-3.17,3.27.52,5.59,10,.83,15.05-4.43,4.7-12.9,14.26-22.6,18.63-4.17,1.89-9.11,1.22-20,.66a97.64,97.64,0,0,1-13.05-1.19C331.69,150.72,335.87,141.1,335.87,141.1Z" style="fill:#ffa8a7"></path><path d="M338.28,148.32a17,17,0,0,0,.89-6l-.19-.11a22.07,22.07,0,0,1-6.55-1l-1.19.58c-1.39,2-2.29,8-.77,8.47a40.42,40.42,0,0,0,4.11.92C336.81,151.33,337.79,149.61,338.28,148.32Z" style="fill:#f28f8f"></path><path d="M333.35,150.65c-5.89-.2-8.07-3.18-8.89-8.35a105.28,105.28,0,0,1-.74-13.71c-.07-1.8.46-2.4,1.17-2.51.27,0,1.41.25,1.53,2.16.23,3.49.32,5.63,1,5.61s.56-2.61.5-6.13c0-2.37,0-4.37,1.37-4.37s1.76,1.41,1.83,4.62,0,5.58.84,5.65c.69,0,.55-3.35.7-5.55s.15-3.51,1.52-3.48,1.58,1.79,1.53,3.95a85.29,85.29,0,0,0,.23,8.84c.38,1.28,1.7-1.85,2.66-3.13,1.58-2.11,3.5-1.15,2.72.77a38,38,0,0,0-2.14,7.26C338.76,144.64,337.76,150.67,333.35,150.65Z" style="fill:#ffa8a7"></path><path d="M333.37,140s-3.54,3.69-2.26,7.64a5.22,5.22,0,0,1-.64-5.29A4,4,0,0,1,333.37,140Z" style="fill:#f28f8f"></path><polygon points="418.81 305.06 410.4 305.06 409.28 290.16 418.81 291.65 418.81 305.06" style="fill:#ffa8a7"></polygon><path d="M400.18,320.72a3.86,3.86,0,0,0,.11,2.56c.33.52,2.24,2.15,5.69,2.39,3.3.24,6.24-.21,8.17-1.43a5.7,5.7,0,0,0,3.06-4.47c.18-1.87,0-3.69.87-5.13s2.14-2.84,2.43-3.56a7.36,7.36,0,0,0,0-3.83Z" style="fill:#263238"></path><path d="M409.2,304.33a7.14,7.14,0,0,1-.38,2.09,19.28,19.28,0,0,1-2,4.13,16.27,16.27,0,0,1-1.38,1.94c-1,1.19-2.23,2.16-3.29,3.3a6.73,6.73,0,0,0-2,4c-.14,2.59,2.66,3.47,4.82,3.85a15.91,15.91,0,0,0,7-.35,6.43,6.43,0,0,0,4.72-5.15c.12-.72.08-1.45.16-2.18a10.29,10.29,0,0,1,2-4.52,13.74,13.74,0,0,0,1.55-2.46c.67-1.6.13-3.4-.3-5-.37-1.37-.79-2.93-1.28-2.8,0,.71,0,.79-.51,1.27s-.67,1.53-1.36,2.07a9.32,9.32,0,0,0,.48-1.84,1.09,1.09,0,0,0-.14-.73,2,2,0,0,0-.8-.42,16.64,16.64,0,0,0-3.14-.72,9.52,9.52,0,0,0-3.06,0,1.32,1.32,0,0,0-.77.45,1.58,1.58,0,0,0-.28.88C409.19,302.57,409.22,303.64,409.2,304.33Z" style="fill:#BA68C8"></path><path d="M409.2,304.33a7.14,7.14,0,0,1-.38,2.09,19.28,19.28,0,0,1-2,4.13,16.27,16.27,0,0,1-1.38,1.94c-1,1.19-2.23,2.16-3.29,3.3a6.73,6.73,0,0,0-2,4c-.14,2.59,2.66,3.47,4.82,3.85a15.91,15.91,0,0,0,7-.35,6.43,6.43,0,0,0,4.72-5.15c.12-.72.08-1.45.16-2.18a10.29,10.29,0,0,1,2-4.52,13.74,13.74,0,0,0,1.55-2.46c.67-1.6.13-3.4-.3-5-.37-1.37-.79-2.93-1.28-2.8,0,.71,0,.79-.51,1.27s-.67,1.53-1.36,2.07a9.32,9.32,0,0,0,.48-1.84,1.09,1.09,0,0,0-.14-.73,2,2,0,0,0-.8-.42,16.64,16.64,0,0,0-3.14-.72,9.52,9.52,0,0,0-3.06,0,1.32,1.32,0,0,0-.77.45,1.58,1.58,0,0,0-.28.88C409.19,302.57,409.22,303.64,409.2,304.33Z" style="opacity:0.4"></path><path d="M406.45,311.09c1-.72,3.12-.73,4.3-.6a7.16,7.16,0,0,1,3.35,1.17.76.76,0,0,0,1-.07h0a.72.72,0,0,0-.07-1.1,7.27,7.27,0,0,0-3.78-1.4c-2.9-.2-3.75.29-3.75.29S406.17,310.23,406.45,311.09Z" style="fill:#f5f5f5"></path><path d="M404.24,313.74c1.21-.71,3.58-.61,4.76-.49a6.73,6.73,0,0,1,3.26,1.24.76.76,0,0,0,1-.07h0a.72.72,0,0,0-.08-1.1,7.51,7.51,0,0,0-3.85-1.51c-2.9-.21-3.66.39-3.66.39A2.39,2.39,0,0,0,404.24,313.74Z" style="fill:#f5f5f5"></path><path d="M412.4,306.31a7.13,7.13,0,0,0-3.65.31c-.51.28-.85,1.09-.52,1.3a6.74,6.74,0,0,1,3.24-.45,9.68,9.68,0,0,1,3.14.87c.24.1.54.26.8.4a.69.69,0,0,0,.95-.29h0a.64.64,0,0,0-.25-.83A9.26,9.26,0,0,0,412.4,306.31Z" style="fill:#f5f5f5"></path><polygon points="389.7 296.72 380.48 297.04 380.33 281.2 391.04 280.57 389.7 296.72" style="fill:#ffa8a7"></polygon><path d="M362.39,307.8a3.14,3.14,0,0,0,.13,2.3c.32.68,3.84,2.66,8.58,2.34a19.67,19.67,0,0,0,9.81-3.43c1.81-1.2,3.7-1.42,6-1.56s5.43-1.3,5.94-2.4a5.18,5.18,0,0,0-.07-3Z" style="fill:#263238"></path><path d="M381.54,293l-.38-.07a1.63,1.63,0,0,0-.62,0,1.2,1.2,0,0,0-.59.4,11.34,11.34,0,0,0-1.21,1.9c-1,1.62-3.08,3-5.36,4.19-1.55.84-3.07,1.48-4.67,2.2s-3.8,1.18-5.08,2a3.43,3.43,0,0,0,0,5.66c1.83,1.07,6.65,2.23,11.7.8,2.75-.78,5.8-3.71,9.41-4,2.3-.18,6.64-.82,8.11-2.56.55-.78-.18-3.23-.78-5.34-.65-2.31-1.27-5.92-2-5.71a1,1,0,0,1-.4.86,11.81,11.81,0,0,1-1,.74,5.89,5.89,0,0,0-1.27,1.83,1.39,1.39,0,0,1-.65.7c-.39.15-.68-.1-1-.25a2,2,0,0,0-1.37-.1,8.67,8.67,0,0,1,.24-1.35.84.84,0,0,0,0-.44.68.68,0,0,0-.3-.33A7.37,7.37,0,0,0,381.54,293Z" style="fill:#BA68C8"></path><path d="M381.54,293l-.38-.07a1.63,1.63,0,0,0-.62,0,1.2,1.2,0,0,0-.59.4,11.34,11.34,0,0,0-1.21,1.9c-1,1.62-3.08,3-5.36,4.19-1.55.84-3.07,1.48-4.67,2.2s-3.8,1.18-5.08,2a3.43,3.43,0,0,0,0,5.66c1.83,1.07,6.65,2.23,11.7.8,2.75-.78,5.8-3.71,9.41-4,2.3-.18,6.64-.82,8.11-2.56.55-.78-.18-3.23-.78-5.34-.65-2.31-1.27-5.92-2-5.71a1,1,0,0,1-.4.86,11.81,11.81,0,0,1-1,.74,5.89,5.89,0,0,0-1.27,1.83,1.39,1.39,0,0,1-.65.7c-.39.15-.68-.1-1-.25a2,2,0,0,0-1.37-.1,8.67,8.67,0,0,1,.24-1.35.84.84,0,0,0,0-.44.68.68,0,0,0-.3-.33A7.37,7.37,0,0,0,381.54,293Z" style="opacity:0.4"></path><path d="M375.52,298.12a2.12,2.12,0,0,1,1.7-1.13c1-.2,2.89.57,4,1.52a.85.85,0,0,1-.12,1.41h0a.86.86,0,0,1-1-.1A6.53,6.53,0,0,0,375.52,298.12Z" style="fill:#f5f5f5"></path><path d="M372.28,299.94a2.46,2.46,0,0,1,2-1,7.67,7.67,0,0,1,4.42,1.65.84.84,0,0,1-.12,1.37h0a.8.8,0,0,1-.94-.11A6.56,6.56,0,0,0,372.28,299.94Z" style="fill:#f5f5f5"></path><path d="M368.71,301.57a2.75,2.75,0,0,1,2.09-.93,7.3,7.3,0,0,1,4.23,1.67.83.83,0,0,1-.12,1.36h0a.8.8,0,0,1-.94-.11A6.3,6.3,0,0,0,368.71,301.57Z" style="fill:#f5f5f5"></path><path d="M416.29,171.75c6.76,15.39.9,62.89.9,62.89.21,2.48,3.05,9.51,4.11,20.43,1.25,12.9-2.31,41.86-2.31,41.86a11.26,11.26,0,0,1-9.22-.31S401.6,249.79,400,237c-1.41-11.19-5.36-35.53-5.36-35.53l-1,35.34s1.4,8.9,1.87,13.67c.73,7.55-4.51,38.41-4.51,38.41s-6,1.93-10.92,0c0,0-3.59-43.32-4.27-52.41-.91-12.17-2.94-47.76-.16-64.84Z" style="fill:#37474f"></path><path d="M394.62,201.43,393,190s-9.62-1.28-14-5.38a15.77,15.77,0,0,0,11.34,7.16l1.7,10.31L393.76,233Z" style="fill:#263238;opacity:0.6000000000000001"></path><path d="M402.45,118.37l2.92.23s8.49,1.74,9.18,3.06c1.6,3.06,1.7,4,1.74,7.58,0,3.93-.58,7.44-2.57,12.64l-3.06,12.35c-.62,3.46,5.07,11.19,6.72,20C405.85,180.64,390.1,179.5,382,176a15.86,15.86,0,0,1-6.31-4.46c1.34-7.07,1.62-11.89,3.69-18.43,0,0-.59-4.07-.71-7.39-4.39-4.19-4.45-11.29-1.76-15.09,5.9-8.34,11.41-12.57,12.53-12.62Z" style="fill:#BA68C8"></path><path d="M402.45,118.37l2.92.23s8.49,1.74,9.18,3.06c1.6,3.06,1.7,4,1.74,7.58,0,3.93-.58,7.44-2.57,12.64l-3.06,12.35c-.62,3.46,5.07,11.19,6.72,20C405.85,180.64,390.1,179.5,382,176a15.86,15.86,0,0,1-6.31-4.46c1.34-7.07,1.62-11.89,3.69-18.43,0,0-.59-4.07-.71-7.39-4.39-4.19-4.45-11.29-1.76-15.09,5.9-8.34,11.41-12.57,12.53-12.62Z" style="fill:#fff;opacity:0.7000000000000001"></path><path d="M403.41,112.94c0-2.29,5.75-6.85,8-10.08s7-12.5.66-16.35c0,0,1.22-6.15-3.25-9.7-5.09-4-13.29-4-22.24-2.69s-11.84-.53-13.46,3.25,1.67,7.69,3.38,8.47c0,0-3.07,3.78-.49,7.37s9.36,2.48,9.36,2.48Z" style="fill:#37474f"></path><path d="M383.51,82.18c-2.15,1.27-4.8,6.67-4.54,18,.22,9.6,3.33,12,4.89,12.65s4.57.27,7.5-.22v5.63s-3.59,3.28.38,4c8.66,1.69,11.67-3.7,11.67-3.7V105s1.61,1.7,4.44-.25a5.23,5.23,0,0,0,1.34-7.59,3.86,3.86,0,0,0-5.87.7s-3.94-.35-10.15-3.76A20,20,0,0,1,383.51,82.18Z" style="fill:#ffa8a7"></path><path d="M403.32,97.82v3.83h0a3.11,3.11,0,0,1-3.11-3.11V94.06Z" style="fill:#37474f"></path><path d="M376,112.09a5.19,5.19,0,0,1,2.34-4.06,1.69,1.69,0,0,1,1.64-.17h0l2.37,1.37L379,115l-2.34-1.35h0A1.62,1.62,0,0,1,376,112.09Z" style="fill:#455a64"></path><path d="M380.66,109.38a5.19,5.19,0,0,0-2.34,4.06c0,1.49,1.05,2.09,2.34,1.35a5.19,5.19,0,0,0,2.34-4.06C383,109.24,382,108.64,380.66,109.38Z" style="fill:#37474f"></path><path d="M385.34,106.68v.78a1.11,1.11,0,0,1-.5.86l-4.18,2.41v-1.35Z" style="fill:#37474f"></path><polygon points="383 105.33 385.34 106.68 380.66 109.38 378.32 108.03 383 105.33" style="fill:#455a64"></polygon><path d="M376.47,107s-.15-.41-.36-1-.53-1.41-.84-2.21-.59-1.62-.86-2.21c-.07-.14-.14-.27-.19-.39a1.19,1.19,0,0,0-.17-.3.65.65,0,0,0-.38-.15l-.15.07a.65.65,0,0,0-.13.38,1.28,1.28,0,0,0,.12.32l.17.41c.27.58.7,1.33,1.11,2.09l1.14,2.07.53.94Z" style="fill:#e0e0e0"></path><path d="M374.47,108.9l-.93-.54-2.07-1.14c-.75-.42-1.5-.85-2.08-1.12l-.41-.18a.94.94,0,0,0-.32-.11.61.61,0,0,0-.38.12l-.07.16a.63.63,0,0,0,.15.37,1.31,1.31,0,0,0,.29.17l.4.19c.58.28,1.39.57,2.2.88l2.21.85,1,.36Z" style="fill:#e0e0e0"></path><path d="M374.34,111.88l-1.06.15-2.34.36c-.85.14-1.71.25-2.34.4l-.42.1a1.28,1.28,0,0,0-.33.11.67.67,0,0,0-.22.34l0,.16a.65.65,0,0,0,.35.2,1.08,1.08,0,0,0,.34,0l.43-.09c.63-.14,1.45-.41,2.27-.66l2.27-.69,1-.33Z" style="fill:#e0e0e0"></path><path d="M375.42,114.5l-.78.74-1.7,1.65c-.61.6-1.24,1.19-1.67,1.68l-.29.33a1.43,1.43,0,0,0-.2.27.68.68,0,0,0,0,.41l.13.11a.6.6,0,0,0,.4,0c.09,0,.15-.14.25-.23l.3-.32c.43-.48.94-1.17,1.47-1.85l1.45-1.88c.39-.51.64-.86.64-.86Z" style="fill:#e0e0e0"></path><polygon points="379.45 107.72 381.04 108.64 380.24 109.1 378.65 108.18 379.45 107.72" style="fill:#37474f"></polygon><polygon points="381.04 108.64 379.45 107.72 379.45 108.02 380.78 108.79 381.04 108.64" style="fill:#263238"></polygon><polygon points="379.45 108.02 378.91 108.33 378.65 108.18 379.45 107.72 379.45 108.02"></polygon><path d="M391.3,97.76a1.21,1.21,0,1,0,1.27-1.19A1.23,1.23,0,0,0,391.3,97.76Z" style="fill:#263238"></path><path d="M380.6,94.06,383,92.37a1.41,1.41,0,0,0-2-.42A1.56,1.56,0,0,0,380.6,94.06Z" style="fill:#263238"></path><path d="M381.16,96.89a1.21,1.21,0,1,0,2.41.11,1.21,1.21,0,0,0-1.14-1.3A1.23,1.23,0,0,0,381.16,96.89Z" style="fill:#263238"></path><polygon points="387.86 96.2 387.67 103.46 383.85 102.28 387.86 96.2" style="fill:#f28f8f"></polygon><path d="M391.36,112.6c3.09-.4,9.44-2.23,10.42-4.74a6.4,6.4,0,0,1-2.22,3.2c-1.9,1.63-8.2,3.46-8.2,3.46Z" style="fill:#f28f8f"></path><path d="M405.37,118.6s-1.31,5.55-7.82,10.82a72.67,72.67,0,0,1-11,7.58s-2.83-5.28-1.19-10.51c2.17-6.88,5.36-8.46,5.36-8.46l-2.26-.12s-3.34,1.41-7.78,6.59c-6.62,7.74-6.78,11.48-5.46,16.2a13,13,0,0,0,3.09,5.14l.16,7.12-3.74,20.68s4.5,5.8,18,7.05c19.41,1.8,25.27-5.42,25.27-5.42-.63-6.65-4.18-14.39-4.63-20.71-.51-7.27,3.11-14.34,3.72-22.16a25,25,0,0,0-.85-8.79,6.3,6.3,0,0,0-5.49-4.5Z" style="fill:#BA68C8"></path><path d="M416.6,168.25c-.25-.94-.52-1.88-.79-2.82-7.07,4.86-21.69,5.32-29.26,3.63a15.74,15.74,0,0,1-9.76-6.81l-.63,3.49c1.4,2.38,4.51,5.41,10.39,6.73C394.42,174.23,409.89,173.67,416.6,168.25Z" style="fill:#fafafa"></path><path d="M414.87,162.11c-.27-1-.53-2-.75-3-7.52,3.9-20.56,4.18-27.57,2.61a15.53,15.53,0,0,1-8.7-5.37l-.64,3.54a16.53,16.53,0,0,0,9.34,5.25C393.8,166.77,407.51,166.42,414.87,162.11Z" style="fill:#fafafa"></path><path d="M386.55,137c-1.62,4-2.46,35.69-1.27,45.32l-1.71-.37c-.6-5.78-.07-23.22.6-31.71C384.71,143.28,385.32,138.92,386.55,137Z" style="opacity:0.15"></path><path d="M459.23,168.85a13.64,13.64,0,0,0-.06-1.69,12.72,12.72,0,0,0-1.35-5.18c-.94-1.64-2.38-2-4.06-2.63-2.73-1-3.69-.43-6.44-1.42-3.9-1.42-11.61-4.44-16.09-6.52,0,0-8.43-22.9-11-27.81-2.27-4.37-5-4.34-11.34-4.68-2.68,10.77-2.07,18.51,3.86,24.24,0,0,5.8,10.92,8.25,15s2.93,4.73,8.93,6.19c5.56,1.35,16.54,4.54,18.67,5.11,2.79.75,5.18,7.15,10.09,1.72A3.51,3.51,0,0,0,459.23,168.85Z" style="fill:#ffa8a7"></path><path d="M456.91,132.78a1.27,1.27,0,0,0-.74-1,4,4,0,0,0-3.58,0,1.27,1.27,0,0,0-.74,1h0v61.13c0,.79,1.13,1.43,2.53,1.43s2.53-.64,2.53-1.43h0V132.78Z" style="fill:#37474f"></path><polygon points="465.47 83.02 447.2 72.47 443.29 74.73 430.37 84.49 430.37 108.86 443.29 133.54 461.56 144.09 465.47 141.84 478.39 132.07 478.39 107.7 465.47 83.02" style="fill:#263238"></polygon><polygon points="461.56 85.28 443.29 74.73 430.37 84.49 430.37 108.86 443.29 133.54 461.56 144.09 474.48 134.33 474.48 109.96 461.56 85.28" style="fill:#455a64"></polygon><polygon points="445.82 131.11 433.74 108.03 433.74 86.17 443.54 78.76 459.03 87.7 471.11 110.79 471.11 132.65 461.31 140.06 445.82 131.11" style="fill:#BA68C8"></polygon><path d="M436.94,102.57c0-.25.17-.34.38-.21l1.58,1a.94.94,0,0,1,.38.7v1.43a9.1,9.1,0,0,0,.23,2.35,2,2,0,0,0,.87,1.19c.42.27.7.28.84,0a3.76,3.76,0,0,0,.21-1.56,7.43,7.43,0,0,0-.37-2.3,17.11,17.11,0,0,0-1.17-2.59l-1.2-2.2a19.11,19.11,0,0,1-1.3-2.94,8.77,8.77,0,0,1-.47-2.81q0-2.33.78-2.94c.51-.42,1.4-.22,2.66.59a6.23,6.23,0,0,1,2.56,3,12.07,12.07,0,0,1,.66,4.26v.71c0,.25-.17.34-.38.21l-1.51-1a.94.94,0,0,1-.38-.7V97.9a8.38,8.38,0,0,0-.2-2.08,1.9,1.9,0,0,0-.78-1.1c-.39-.24-.66-.27-.83-.09a1.9,1.9,0,0,0-.25,1.18,4.58,4.58,0,0,0,.25,1.59,17,17,0,0,0,.93,2l1.34,2.53a21.38,21.38,0,0,1,1.51,3.52,10.45,10.45,0,0,1,.51,3.14c0,1.75-.25,2.88-.76,3.39s-1.4.34-2.68-.48a6.59,6.59,0,0,1-2.66-3.12,12.39,12.39,0,0,1-.75-4.57Z" style="fill:#fafafa"></path><path d="M446.43,114.74V99.39a.94.94,0,0,0-.38-.7L444.91,98a.94.94,0,0,1-.38-.7V95.7c0-.25.17-.35.38-.21L450.33,99a.92.92,0,0,1,.38.7v1.56c0,.25-.17.34-.38.21l-1.06-.69c-.21-.14-.38,0-.38.21v15.34c0,.25-.17.34-.38.2l-1.7-1.09A.94.94,0,0,1,446.43,114.74Z" style="fill:#fafafa"></path><path d="M458.19,121.66c-.57.54-1.47.4-2.71-.4a7.24,7.24,0,0,1-2.74-3.13,11.22,11.22,0,0,1-.87-4.65v-8.56q0-5.15,3.64-2.79a7.09,7.09,0,0,1,2.7,3.05,10.66,10.66,0,0,1,.83,4.38v8.56C459,120,458.75,121.13,458.19,121.66Zm-3.62-4.1a2.12,2.12,0,0,0,.89,1.22c.45.29.75.26.89-.09a7,7,0,0,0,.21-2.14v-8.72a7.7,7.7,0,0,0-.22-2.09,1.94,1.94,0,0,0-.84-1.15c-.42-.28-.72-.26-.89,0a4.09,4.09,0,0,0-.25,1.77v8.73A10.34,10.34,0,0,0,454.57,117.56Z" style="fill:#fafafa"></path><path d="M461.27,124.34v-17.8c0-.26.17-.35.39-.21l3.33,2.16a6.28,6.28,0,0,1,2.59,3,12.62,12.62,0,0,1,.73,4.42v.39a7.23,7.23,0,0,1-.69,3.79c-.45.66-1.3.59-2.54-.21l-1-.62c-.21-.13-.38,0-.38.21v6.47c0,.25-.17.35-.38.21l-1.7-1.11A.89.89,0,0,1,461.27,124.34Zm2.85-7.43.47.3q.78.51,1,0a8.34,8.34,0,0,0,.23-2.5v-.37a10,10,0,0,0-.25-2.53,2.29,2.29,0,0,0-1-1.35l-.49-.31c-.21-.14-.38-.05-.38.2v5.89A.92.92,0,0,0,464.12,116.91Z" style="fill:#fafafa"></path><polygon points="443.29 74.73 447.2 72.47 465.47 83.02 461.56 85.28 443.29 74.73" style="fill:#455a64"></polygon><polygon points="443.29 74.73 447.2 72.47 465.47 83.02 461.56 85.28 443.29 74.73" style="fill:#fff;opacity:0.1"></polygon><polygon points="478.39 107.7 474.48 109.96 461.56 85.28 465.47 83.02 478.39 107.7" style="fill:#37474f"></polygon><polygon points="474.48 134.33 478.39 132.07 465.47 141.84 461.56 144.09 474.48 134.33" style="opacity:0.1"></polygon><path d="M446.2,157.5c3.92.62,5.54-.41,6.84,1.58a37.91,37.91,0,0,0,3.34,4.15,1.06,1.06,0,0,1,.36.78c-.05.36-.45.56-.8.65a4.82,4.82,0,0,1-4.19-1,26.08,26.08,0,0,0-4-1.8Z" style="fill:#ffa8a7"></path><path d="M456.91,158.61a9,9,0,0,0,1.42.84,10.2,10.2,0,0,1,2.05,1.31,2.83,2.83,0,0,1,.95,2.19,5.93,5.93,0,0,0-.15,1.25c.11.77,1,1.39.82,2.16-.11.52-.67.84-.83,1.35-.28.85.63,1.73.43,2.6a3.25,3.25,0,0,1-.78,1.12c-.39.46-.66,1-1.07,1.44a4.11,4.11,0,0,1-2.91.76,4.62,4.62,0,0,1-3.56-1.38,1.36,1.36,0,0,1-.15-1.6,2,2,0,0,0,.3-.42.84.84,0,0,0-.22-.79,3.46,3.46,0,0,1-.53-.68,2.15,2.15,0,0,1,.17-1.5c.27-.78-.08-1.29-.14-2a2.6,2.6,0,0,1,.68-2,12.21,12.21,0,0,1,1.06-.84,1.14,1.14,0,0,1,.75-.49c.15,0,1.7-.75,1.71-1Z" style="fill:#ffa8a7"></path><path d="M451.85,171.8v-8.1l-.65-.44s-2.29,1.76-4.32,1.64a8,8,0,0,0,3.86,0v5.94l1.07,1Z" style="fill:#f28f8f"></path><path d="M456.22,163.35s.72.87-.28,1.31a4.12,4.12,0,0,1-3.13-.38,2.45,2.45,0,0,0-.1.93s2.61,1,3.51-.07S456.22,163.35,456.22,163.35Z" style="fill:#f28f8f"></path></g></g><g id="character-3"><g id="character"><path d="M292.48,246.79c-6.06.25-10.36,1.63-14.75,6-3.23,3.18-11.07,25.47-8.22,40.58,2.19,11.63,15.88,17.77,26.43,12.52,8.32-4.14,9.49-20.95,9.33-28.58S292.48,246.79,292.48,246.79Z" style="fill:#BA68C8"></path><path d="M292.48,246.79c-6.06.25-10.36,1.63-14.75,6-3.23,3.18-11.07,25.47-8.22,40.58,2.19,11.63,15.88,17.77,26.43,12.52,8.32-4.14,9.49-20.95,9.33-28.58S292.48,246.79,292.48,246.79Z" style="opacity:0.30000000000000004"></path><path d="M284.9,252.32s-1.62-2.16-5.44-1c0,0-4.06,4.8-7.25,13.9,0,0-1,0-.33-2.59s3.23-8.7,4.87-10.86,3.58-5.5,15.19-6.56c3.7-.34,14.52.59,17.79,1.76,5.06,1.8,4,4.72,4,4.72Z" style="fill:#BA68C8"></path><path d="M284.9,252.32s-1.62-2.16-5.44-1c0,0-4.06,4.8-7.25,13.9,0,0-1,0-.33-2.59s3.23-8.7,4.87-10.86,3.58-5.5,15.19-6.56c3.7-.34,14.52.59,17.79,1.76,5.06,1.8,4,4.72,4,4.72Z" style="opacity:0.5"></path><path d="M336.1,395c-4.44-3.73-10.91-8.41-12.09-14.39,0,0,.65-4.83.91-7.73.87-9.85,1.23-17.79,2.07-25.55,1-9.42,1.36-10.51,1.18-18.55-.06-2.72-.19-5.62-.36-8.6-.16-9.41-.76-18.53-.73-25.55,0,0-13,.25-23.34.9-11.12,1.36-14.91,3.87-14.58,5.29A97.41,97.41,0,0,0,287.49,316c-.3,6.79-1.42,22.77-1.42,22.77-2.59,2.09-4.6,5.11-6.68,9.78-1.22,2.75-4.39,11.82-6.61,19.2-.84,2.78-1.49,4.87-1.76,5.5a10.91,10.91,0,0,1-1.49,2.9,33.35,33.35,0,0,1-2.58,2.32,6.19,6.19,0,0,0-1.78,2.53,3.12,3.12,0,0,0-.15,1.1c.05,1.33,1,2.45,1.6,3.61a12,12,0,0,1,1.25,6.75,10,10,0,0,0,6.2,9.65,10.3,10.3,0,0,0,7.05.27c.94-.31,2-.93,2-1.92a3.1,3.1,0,0,0-.86-1.88,22.19,22.19,0,0,1-3.93-15.5c.51-4,2.82-8.64,4.9-12,4.76-7.85,9.95-15.58,14.3-22.06,5.34-8,5.82-9.34,7.67-16.91.88-3.59,1.83-7.4,2.78-11.22,1.28,5.89,3.16,16.33,3.58,18.64,0,.34-.07.78-.11,1.28-.8,3.56-.82,6.08-.75,10.84.05,3,2,15.61,3.08,23.24.24,1.69.51,3.38.67,5.08a9.26,9.26,0,0,1-1.17,4.69,6.38,6.38,0,0,0-.61,3.95,4.21,4.21,0,0,0,.41,1.2c.69,1.25,2.08,1.65,3.19,2.36,1.42.91,2.64,2.64,3.81,3.85a15.17,15.17,0,0,0,4,3.29,17.47,17.47,0,0,0,5.77,1.19,13.69,13.69,0,0,0,3.38-.25,9.11,9.11,0,0,0,3.05-.66,2.43,2.43,0,0,0,1.4-2.06A3.59,3.59,0,0,0,336.1,395Z" style="fill:#ffa8a7"></path><path d="M324,380.65c-.49.74-3.11,1.11-4.25,1.55s-1,3.05-1,3.05c-1,0-1.13-.78-1.48-2.11-.6-2.24-2.26-2.24-2.8-2.52l0-.69s-.57-.16-.69.91a23.88,23.88,0,0,1-1,4.25c-.32,1-.84,4.47-.1,5.53a6.13,6.13,0,0,0,2.31,1.73,13.51,13.51,0,0,1,4.66,4.06c.95,1.43,3.87,4.74,10.26,4.81s8.18-2.24,8.18-2.24a3.47,3.47,0,0,0-1.09-4.6c-2.64-1.95-4.22-2.31-7-5.39A67.8,67.8,0,0,1,324,380.65Z" style="fill:#37474f"></path><path d="M278.68,381.28a8.11,8.11,0,0,1-4.53-1.75c-2.1-1.47-2.91,2.75-2.91,2.75-.66-.49-1-1-.53-3,.43-1.82.43-2.9-.61-3.93l.47-1s-.57-1-1.83,1.36-4.38,3.18-4.82,6.72a11.36,11.36,0,0,0,1.48,3.65,9.08,9.08,0,0,1,1.66,6.21c-.23,2.69.93,7.25,4,9.3a12.13,12.13,0,0,0,11.31,1.34,3.38,3.38,0,0,0,.45-4.86c-2.09-2.95-3-4.37-3.67-7S278.68,381.28,278.68,381.28Z" style="fill:#37474f"></path><path d="M288.67,294.29s-.86,10.1-1.18,16-2.17,28.45-2.17,28.45c-7.48,6.77-10.81,20.91-13.79,31.41,0,0,4,5.65,10.46,4.23-.08-.42,19-28.26,21.39-34.25,2.19-5.39,4.58-17.09,4.58-17.09s2.72,13.35,2.3,15.87c-1.67,10.13,2.13,27.19,2.89,34.2,0,0,.77,2,5.81,2.07,5.2.07,6.17-1.71,6.17-1.71s3.19-33.71,3.59-40.06-.86-30.48-1.64-38.77Z" style="fill:#455a64"></path><path d="M308,323.07l1.08-6.33s8.46-.61,12.21-4.8c0,0-1.29,5.54-10.15,6.32l-1.18,6.11.3,12.33C309.61,332.09,308.78,328.07,308,323.07Z" style="fill:#37474f"></path><path d="M290.36,251c-4.39.79-5.67,3.49-6.16,7.18a27.27,27.27,0,0,0,.93,10L287.52,283l.46,17.91c5.44,6,27.61,8.18,39.72-.48,0,0-1-30.95-1.81-37-1.46-10.52-8.19-13.12-9.91-13.09l-15.53.15Z" style="fill:#fafafa"></path><g id="Girl"><path d="M341.33,284a131.66,131.66,0,0,0-3.65-13l-8.29,2.9Z" style="fill:#f28f8f"></path><path d="M322,250.93c2.89.22,5-.12,8.08,1.95s9.05,21.89,9.05,21.89c-1.67,2.73-9.86,3.62-11.28,3.49,0,0-1.35-8.26-3-12.47S322,250.93,322,250.93Z" style="fill:#f0f0f0"></path><g id="Kid"><path d="M316,250.33s8.8,6.17,11.09,31.76c1.21-1,3.13-9.92,2.23-15.56-.81-5.13-3.67-13.45-7.27-15.6A8.23,8.23,0,0,0,316,250.33Z" style="fill:#BA68C8"></path><path d="M316,250.33s8.8,6.17,11.09,31.76c1.21-1,3.13-9.92,2.23-15.56-.81-5.13-3.67-13.45-7.27-15.6A8.23,8.23,0,0,0,316,250.33Z" style="opacity:0.4"></path></g><path d="M341.59,286.09a12.21,12.21,0,0,1-.85,4.74,3.45,3.45,0,0,1-2.07,2.29,3.55,3.55,0,0,1-2.23-.36,18.93,18.93,0,0,1-7.62-6.55c-2.16-3-3.47-6.49-5.26-9.71a33.37,33.37,0,0,1-3.43-7.76,14,14,0,0,1-.34-5.57,9,9,0,0,1,.81-2.68c0-.12,1.15-1.64,1.31-1.27a42.27,42.27,0,0,1,1.88,5.12,4,4,0,0,0,3.75.1,1.7,1.7,0,0,0,1-1.27c-.24-.87-.51-1.72-.76-2.58,1.32-.21,2.54,1.77,2.88,2.83a11.88,11.88,0,0,1,.32,4,12.14,12.14,0,0,0,.3,4c1.15,3.78,5.24,5.74,7.78,8.46A8.73,8.73,0,0,1,341.59,286.09Z" style="fill:#ffa8a7"></path></g><path d="M295.78,250.61s6.18,4.4,6.59,14.52c1,25.59-15.83,32.27-15.83,32.27-1.6-3.24-.56-6.34.81-9.43a29,29,0,0,0,8.15-21.1c-.35-9.33-4.92-14.59-7.25-15.32A13.39,13.39,0,0,1,295.78,250.61Z" style="fill:#BA68C8"></path><path d="M295.78,250.61s6.18,4.4,6.59,14.52c1,25.59-15.83,32.27-15.83,32.27-1.6-3.24-.56-6.34.81-9.43a29,29,0,0,0,8.15-21.1c-.35-9.33-4.92-14.59-7.25-15.32A13.39,13.39,0,0,1,295.78,250.61Z" style="opacity:0.4"></path><path d="M327.73,223.3a7.06,7.06,0,1,1-7-7.38A7.19,7.19,0,0,1,327.73,223.3Z" style="fill:#263238"></path><path d="M294.08,231.31s1.78,8.77,2.51,10.21a3.93,3.93,0,0,0,2.27,1.87l-.07-6.15Z" style="fill:#263238"></path><path d="M296.55,218.8A4.3,4.3,0,0,0,293,220c-1.55,1.55-.74,6.46,1.12,11.29l3.51.44Z" style="fill:#263238"></path><path d="M298.64,231.76c-.71.41-1.7-.95-2.56-1.86s-3.68-2.19-5.12.77,1.18,7.06,3.4,7.78c3.83,1.25,4.43-1.21,4.43-1.21L299,251.1a12.38,12.38,0,0,0,9.26,7.17c6.8,1,6.79-4.72,4.58-7.49l0-3.89a16.7,16.7,0,0,0,5.05-.45c2.17-.57,3.83-1.86,5.29-5.14,2-4.43,2.27-9.28.94-18.39-1.53-10.56-14.5-11-21.2-6.88S298.64,231.76,298.64,231.76Z" style="fill:#ffa8a7"></path><path d="M295.76,222.79c.29-3.22-.87-7.1,1.28-9.91a5.15,5.15,0,0,1,5.89-1.73,5,5,0,0,1,9.52-1.64,4.91,4.91,0,0,1,4.35-2.57,4.39,4.39,0,0,1,3.82,3.28c-.06-.26,2.18-.14,2.39-.12a5.26,5.26,0,0,1,2.17.69,5.46,5.46,0,0,1,2.57,3.55,6.12,6.12,0,0,1-2.66,6.13,7.16,7.16,0,0,1-6.78.42c-.24-.11-.53-.23-.75-.09a.88.88,0,0,0-.28.38,3.81,3.81,0,0,1-2.44,2,5.71,5.71,0,0,1-5.49-1.94,4.19,4.19,0,0,1-6.25.62,3.06,3.06,0,0,1-1.45,4.54,3,3,0,0,1-1.46.2,4.64,4.64,0,0,1,.94,5.18,2.44,2.44,0,0,1-1.46,1.39c-1.61.43-2.63-2.35-3.59-3.23-.38-.36-.38-1.14-.41-1.62A38.68,38.68,0,0,1,295.76,222.79Z" style="fill:#263238"></path><path d="M296.54,219.57l-4.23-2.32a2.34,2.34,0,0,1,3.23-1A2.52,2.52,0,0,1,296.54,219.57Z" style="fill:#263238"></path><path d="M312.83,246.89s-6.78-.77-9.83-2.78a8.6,8.6,0,0,1-3-3,8.48,8.48,0,0,0,1.7,3.57c3,3.62,11.13,4.39,11.13,4.39Z" style="fill:#f28f8f"></path><path d="M310.6,230.33a1.43,1.43,0,1,1-1.41-1.5A1.46,1.46,0,0,1,310.6,230.33Z" style="fill:#263238"></path><path d="M308.79,226l-3.05,1.64a1.82,1.82,0,0,1,.73-2.4A1.68,1.68,0,0,1,308.79,226Z" style="fill:#263238"></path><path d="M309.71,238l5.58,2.16a2.94,2.94,0,0,1-3.82,1.82A3.14,3.14,0,0,1,309.71,238Z" style="fill:#9a4a4d"></path><path d="M311.06,239.66a2.31,2.31,0,0,0-1.35.43,3.05,3.05,0,0,0,1.76,1.86,3,3,0,0,0,1.92.05A2.37,2.37,0,0,0,311.06,239.66Z" style="fill:#f28f8f;opacity:0.6000000000000001"></path><path d="M322.81,226.93l-2.73-2.15a1.67,1.67,0,0,1,2.4-.34A1.83,1.83,0,0,1,322.81,226.93Z" style="fill:#263238"></path><path d="M322.06,229.78a1.43,1.43,0,1,1-1.41-1.5A1.45,1.45,0,0,1,322.06,229.78Z" style="fill:#263238"></path><polygon points="314.51 228.78 314.86 236.39 318.84 235.07 314.51 228.78" style="fill:#f28f8f"></polygon><path d="M310.75,258.31s-8.51-2.65-11.81-7.88l0-3.21c-2.1.24-3.15,3.53-3.15,3.53s.19,4.24,2.71,6.94,6.75,1.73,6.75,1.73,1.75,2.29,2.69,2.6S310.75,258.31,310.75,258.31Z" style="fill:#e0e0e0"></path><path d="M310.75,258.31c1.25-1,2.59-4.57,2-7.53,0-.23,0-2.13,0-2.13a2.13,2.13,0,0,1,1.34.53,18.39,18.39,0,0,1,1.51,2,32.39,32.39,0,0,1,1.18,4.68,3,3,0,0,1-2,2.73,7.34,7.34,0,0,1-.24,2.59C314.29,261.83,310.75,258.31,310.75,258.31Z" style="fill:#e0e0e0"></path><path d="M280.64,297.7c2.15-.72,3.73-1.84,8-5.39a70.25,70.25,0,0,0,9.63-9.75,20.4,20.4,0,0,1,1.57-1.65,16.23,16.23,0,0,0,2.63-2.93c1.72-2.55,1.76-4.23,2-7.3s.08-7.28-1.24-10.29c-.2-.45-1.32-.71-1.64-.62.18.68.3,1.37.43,2a16,16,0,0,1-2.56,4.24c-1.57,1.81-3.26,2.8-3.43,2.41s.38-1.57.21-3.51-.7-2.64-1.29-2.8c-.94-.25-.94.77-1.35,2.32-.49,1.84-1.29,2.84-1.42,5.56-.1,2.39,0,3.35-1.11,4.71a39.54,39.54,0,0,1-3.9,3.12s1.43-4.38,2.84-8.76c2.76-8.57,1.68-16.24-1.71-17.55-4.83.22-7.81,2.15-10,9.14-2.36,7.44-3.17,10.59-5.1,25.17C271.69,296.68,277.06,298.91,280.64,297.7Z" style="fill:#ffa8a7"></path><path d="M287.12,277.86c-3.07,2.23-9.76,5.44-10.66,9.05,0,0,.15-2.87,4.2-6.27a50,50,0,0,1,7.23-5.16Z" style="fill:#f28f8f"></path><path d="M288.25,251.55c-1.66-.39-4.47.19-6.9,2.36s-3.69,6.44-4.88,10.27-3.12,14-3.12,14a35.6,35.6,0,0,0,10.24,2s2.73-1.73,4.07-2.68c0,0,2.76-8.81,3.55-11.06S293.09,253.18,288.25,251.55Z" style="fill:#f0f0f0"></path></g></g><g id="character-2"><g id="character"><path d="M226.56,318.68c0,.78-.35,2,.15,2.59a10,10,0,0,0,2.85,2.18,10.26,10.26,0,0,1,2.12,1.58,16,16,0,0,1,1.77,2.52c.75,1.1,1.76,3.2,3.69,4.53,2.86,2,7.14,2.76,11.43,2.58s6.66-1.43,7.8-2.46a4.71,4.71,0,0,0,1.05-4.34C257,326.8,226.56,318.68,226.56,318.68Z" style="fill:#37474f"></path><polygon points="227.95 315.93 239.16 313.75 235.88 296.92 225.17 301.62 227.95 315.93" style="fill:#ffa8a7"></polygon><path d="M257,326.05c-2.08-1.62-6.14-3.79-10.8-7.4-2.24-1.74-4.12-4.67-5.56-7.09h0c-1.49-2.51-1.1-3.74-1.81-4.65a2.76,2.76,0,0,0-1.22-1c.07.14.74,1.74-2.17,2.47s-4.21.3-4.51,1.06a8.12,8.12,0,0,0,.16,2.64,7,7,0,0,1,.14,2.11c-.26.48-.91-.15-1.69-1.39a5.27,5.27,0,0,0-1.8-1.59l0,0a7.67,7.67,0,0,0-.76-.41h0l-.21-1.07c-.62,0-.49,1.92-.61,3.74-.13,2-.11,4.31.44,5.26,1,1.74,4.1,3,5.6,4.38s2.81,4.49,4.71,6.4,6.41,3.29,11.66,3.08C255.54,332.25,259.8,328.23,257,326.05Z" style="fill:#BA68C8"></path><path d="M257,326.05c-2.08-1.62-6.14-3.79-10.8-7.4-2.24-1.74-4.12-4.67-5.56-7.09h0c-1.49-2.51-1.1-3.74-1.81-4.65a2.76,2.76,0,0,0-1.22-1c.07.14.74,1.74-2.17,2.47s-4.21.3-4.51,1.06a8.12,8.12,0,0,0,.16,2.64,7,7,0,0,1,.14,2.11c-.26.48-.91-.15-1.69-1.39a5.27,5.27,0,0,0-1.8-1.59l0,0a7.67,7.67,0,0,0-.76-.41h0l-.21-1.07c-.62,0-.49,1.92-.61,3.74-.13,2-.11,4.31.44,5.26,1,1.74,4.1,3,5.6,4.38s2.81,4.49,4.71,6.4,6.41,3.29,11.66,3.08C255.54,332.25,259.8,328.23,257,326.05Z" style="opacity:0.30000000000000004"></path><path d="M236.87,329.45s.53-4,6.31-6.4,7.75-1.38,9.2-.75,6.39,3.38,5.75,5.48-2.42,3.86-7.81,4.77S238.72,331.83,236.87,329.45Z" style="fill:#fafafa"></path><path d="M168.87,288.42c1.85,4.34,5.17,5.34,9.23,4.6l11.09-12.14-10-8Z" style="fill:#ffa8a7"></path><path d="M166.47,291.75a20,20,0,0,0-1.27,2,5.9,5.9,0,0,0,.73,2.3,28.67,28.67,0,0,1,1.48,3.18,12.52,12.52,0,0,1,.41,3.4,20.11,20.11,0,0,0,.78,5.92c1.19,3.45,4.13,6.5,8,8.65a13.47,13.47,0,0,0,8.72,1.81,3.94,3.94,0,0,0,3.12-2.63C188.64,315.22,166.54,291.81,166.47,291.75Z" style="fill:#37474f"></path><path d="M189.19,313.71c-.93-2.54-3.46-5.76-5.57-11.41a29,29,0,0,1-1.28-9.08,7.11,7.11,0,0,1,1.14-4.32c.64-1.19.44-1.54,0-1.77,0,0-.72.67-3,.78-1.76.08-3.44-1.28-4.17-1.92-.48-.43-1.48,1.14-2.12,2.56a7.6,7.6,0,0,0-.59,1.72c-.16,1.19-1,1.63-1.24.63s.18-3-1-5.32l-.27-.51.88-1.32c-.53-.37-2,1.64-3.06,3.17s-2.42,3.7-2.44,4.82c-.07,2.06,2,4.83,2.52,6.83s.33,5.17.94,7.85,4.19,7.29,8.21,9.22C184.62,318.76,190.44,317.1,189.19,313.71Z" style="fill:#BA68C8"></path><path d="M189.19,313.71c-.93-2.54-3.46-5.76-5.57-11.41a29,29,0,0,1-1.28-9.08,7.11,7.11,0,0,1,1.14-4.32c.64-1.19.44-1.54,0-1.77,0,0-.72.67-3,.78-1.76.08-3.44-1.28-4.17-1.92-.48-.43-1.48,1.14-2.12,2.56a7.6,7.6,0,0,0-.59,1.72c-.16,1.19-1,1.63-1.24.63s.18-3-1-5.32l-.27-.51.88-1.32c-.53-.37-2,1.64-3.06,3.17s-2.42,3.7-2.44,4.82c-.07,2.06,2,4.83,2.52,6.83s.33,5.17.94,7.85,4.19,7.29,8.21,9.22C184.62,318.76,190.44,317.1,189.19,313.71Z" style="opacity:0.30000000000000004"></path><path d="M171.17,309.14c4.19-2.09,8.11-3.47,11.63-2.95s3.91,1.07,5.38,3.72c1.12,2,2.94,5.41.11,6.82S175.69,318,171.17,309.14Z" style="fill:#fafafa"></path><path d="M241.89,172.48c2.64,17-1.33,40.34-5.95,52.45a113.23,113.23,0,0,1-9.62,19.77c-1.37,2.35-40,39.29-40,39.29s-6.49.47-10.06-7.43c0,0,16.21-25.64,19.73-31.31s15.26-16.06,15.26-16.06l1.87-53.54Z" style="fill:#37474f"></path><path d="M226.3,200.49a53,53,0,0,0,7.67-8.83c6.41-8.85,6.4-16.41,6.4-16.41l-3.6-.31H199c-1,12.17-1.44,18.07-.52,24.11,2.57,17,13.82,49.07,13.82,49.07-.2,2.36,1.2,11.75,3.45,20.56,3.56,13.89,9.64,35.5,9.64,35.5s8.3.22,11.08-4.09c0,0-2.75-44.19-4.19-56.42C230.74,230.44,226.3,200.49,226.3,200.49Z" style="fill:#37474f"></path><path d="M243.26,178.28s.53,6.21,0,6.89-7.57,6.05-17.85,7.48-23.32-1.86-27.62-4.52c-.34-.66-.15-6.49-.15-6.49Z" style="fill:#BA68C8"></path><path d="M243.26,178.28s.53,6.21,0,6.89-7.57,6.05-17.85,7.48-23.32-1.86-27.62-4.52c-.34-.66-.15-6.49-.15-6.49Z" style="opacity:0.30000000000000004"></path><path d="M231.08,234.09s-3.83-29.67-4.78-33.6c0,0,4.95-1,7.14-3.46,0,0-.77,2.15-4.48,4.83Z" style="fill:#263238"></path><path d="M207.47,233.51l4.86,14.61s.46,6,1.24,10.06l-2.07,2.12s-1.24-7-.59-11.83Z" style="fill:#263238"></path><path d="M299.86,158c-.76.17-1.52.33-2.28.47-1,.19-2.06.29-3.09.48a6.49,6.49,0,0,0-1.59.22,15.67,15.67,0,0,0,2.84-2.73,2.36,2.36,0,0,0-.1-3.21c-.4-.33-1.13.73-3,1.64-2.39,1.16-4.53,1.2-6.72,3.06a5.06,5.06,0,0,1-3.75.9l-21.77-2.63s-10.11-18.59-14.81-25.83S238.15,117,230,117.46l1.68,20.64s11.9,18.25,18.45,27.57c2.2,3.14,4.13,3.79,7.61,3.75,4.06,0,2.48.48,19.91-.27a117.82,117.82,0,0,1,13.76.07c3.53.24,6.93.28,10-1.77a7.17,7.17,0,0,0,3.27-4.89,7.46,7.46,0,0,1,.42-2.5,12.51,12.51,0,0,1,.86-1.2,1.54,1.54,0,0,0,.29-1.39,1.33,1.33,0,0,0-1.18-.75,4,4,0,0,0-1.45.25Q301.77,157.53,299.86,158Z" style="fill:#b16668"></path><path d="M232.2,117.5c3.83.18,5.24.75,9,5.38s19.56,32.79,19.56,32.79l13.09,1.91s-1.25,7.61,0,11.84c0,0-13.16.72-17.15.63s-4.09-.29-7.6-4.67-17.33-24.47-17.33-24.47Z" style="fill:#BA68C8"></path><path d="M232.2,117.5c3.83.18,5.24.75,9,5.38s19.56,32.79,19.56,32.79l13.09,1.91s-1.25,7.61,0,11.84c0,0-13.16.72-17.15.63s-4.09-.29-7.6-4.67-17.33-24.47-17.33-24.47Z" style="opacity:0.30000000000000004"></path><path d="M273.82,157.58l7.8,1.15s-.76,6.74,0,10.36l-7.83.33a17,17,0,0,1-.74-6.19A21.29,21.29,0,0,1,273.82,157.58Z" style="fill:#455a64"></path><path d="M241.38,137.67c-.53-7-.59-19.58-11.36-20.21l-18.06,1s-6.68.94-11.23,2.09c-4.73,1.09-5.72,12.66-3.81,31.71l.72,29.42c9.78,4.15,31.5,6.68,45.62-3.36C247.53,175.37,242.09,147,241.38,137.67Z" style="fill:#BA68C8"></path><path d="M232.72,95.73l-2.59,10.55c-.62,2.44-2,3.69-4.55,3.69h-3.39V94.05Z" style="fill:#263238"></path><circle cx="209.88" cy="88.96" r="12.22" style="fill:#263238"></circle><path d="M229.47,83.27a4.66,4.66,0,0,1,3.85,1.35c1.65,1.69,1.4,6.55-1.06,13.08l-4-.49Z" style="fill:#263238"></path><path d="M227.08,97.21c.76.45,1.84-1,2.77-2s4-2.31,5.51.89-1.13,6.81-3.46,7.77c-3.26,1.35-4.45-.72-4.45-.72v14.25c3.84,4.5-8.91,8.74-15.52,1.49v-5.42a32.79,32.79,0,0,1-4.52.2c-2.72-.14-5.13,0-6.62-4.29-1.63-4.76-2.2-13.62-.69-22.46,1.92-11.33,15.37-11.22,22.54-6.71S227.08,97.21,227.08,97.21Z" style="fill:#b16668"></path><path d="M225.54,128.35c-.95-1.79-3.87-4.67-8-7.16a35.58,35.58,0,0,1-5.59-3.89v-2.78s-10.57,0-14.62,3.11c-3.53,2.72-3.52,4.68-3.52,4.68s2.5-2.17,7.68-2.12a13.63,13.63,0,0,1,5.23-.64c1.62,0,9.72,4,12.21,4.94A45.19,45.19,0,0,1,225.54,128.35Z" style="fill:#455a64"></path><path d="M225.54,128.35c2.67-3.69,1.91-10.93,1.91-10.93v-3.17a20,20,0,0,1,3.14.8c.76.36,1.81,2.32,1.81,2.32S230,124.76,225.54,128.35Z" style="fill:#455a64"></path><path d="M227.29,98.73c1-1,1.76-2.77,2.56-3.5,1.31-1.19.5-12.89.5-12.89-.33-4.41-4.26-7.06-8.33-7.72-2.35-.38-4.74-.29-7.12-.44a36.24,36.24,0,0,1-11.43-2.58,7.31,7.31,0,0,0-2-.61,2.16,2.16,0,0,0-1.92.69,2.74,2.74,0,0,0-.44,1.76,9.81,9.81,0,0,0,1.5,5.08,4.07,4.07,0,0,1-1.72-.57,1.5,1.5,0,0,0-1.7.14,1.64,1.64,0,0,0-.07,1.57c2.92,9,13.56,9.84,21.22,7.06.41-.15.82-.31,1.22-.49a5.68,5.68,0,0,0,4.25,5,13.73,13.73,0,0,0-.1,5.23,4.92,4.92,0,0,0,.66,1.87,2.07,2.07,0,0,0,1.67,1A1.93,1.93,0,0,0,227.29,98.73Z" style="fill:#263238"></path><path d="M229.47,84.11l4.58-2.46a2.53,2.53,0,0,0-3.47-1.15A2.72,2.72,0,0,0,229.47,84.11Z" style="fill:#263238"></path><path d="M211.94,113.49s6.71-1.47,9.09-2.73c1.59-.85,3.73-5,4.11-6,0,0-1,4.52-2.43,6.33-1.73,2.23-10.77,4.18-10.77,4.18Z" style="fill:#9a4a4d"></path><path d="M212.82,96a1.36,1.36,0,1,0,1.36-1.42A1.39,1.39,0,0,0,212.82,96Z" style="fill:#263238"></path><path d="M214.26,90.82l2.91,1.61a1.74,1.74,0,0,0-.68-2.32A1.61,1.61,0,0,0,214.26,90.82Z" style="fill:#263238"></path><path d="M212.47,105.26l-3.56,1.34a1.88,1.88,0,0,0,2.42,1.17A2,2,0,0,0,212.47,105.26Z" style="fill:#9a4a4d"></path><path d="M200.94,92.28l2.66-2a1.61,1.61,0,0,0-2.31-.35A1.77,1.77,0,0,0,200.94,92.28Z" style="fill:#263238"></path><path d="M201.75,95.5a1.37,1.37,0,1,0,1.37-1.42A1.4,1.4,0,0,0,201.75,95.5Z" style="fill:#263238"></path><polygon points="208.28 94.72 208.09 102.91 203.77 101.59 208.28 94.72" style="fill:#9a4a4d"></polygon><path d="M237.23,197.22A29.72,29.72,0,0,1,232,196a1.36,1.36,0,0,1-.25-.11c-.46-.38.41-.34.56-.37a11.28,11.28,0,0,0,1.26-.26,6.16,6.16,0,0,0,2.26-1.09,2.62,2.62,0,0,0,.95-1.38c.09-.41.23-1-.12-1.34a1.44,1.44,0,0,0-1.1-.22c-1,.07-2,.11-3,.13a59.17,59.17,0,0,1-7.41-.31,10.09,10.09,0,0,1-3.18-.67,11.11,11.11,0,0,1-2-1.09l-7.51-6.2-7.06-5.82a26.77,26.77,0,0,0-3.28-2.65c-.37-.22,3.15-35.81,3.15-35.81s1.25-15.11-4.63-18.32c-5.42.89-10,4.18-11.16,14.19s-2.25,37.13-2.17,40.83c0,2.55-.5,5.12,4.23,8.58,5,3.67,5.52,3.9,22.5,14.11a96.4,96.4,0,0,0,9.76,5.86c9,4,13.18,3.28,16,.16.83-.91,1.22-2.05,2-3a8.2,8.2,0,0,0,1.25-1.58,1.44,1.44,0,0,0-.35-1.82,2,2,0,0,0-.9-.2C240.34,197.53,238.78,197.42,237.23,197.22Z" style="fill:#b16668"></path><path d="M201.63,120.29c-2.28-.05-7.87,0-11,6.4s-2.8,11.15-3.23,19.34-1,30.48-.73,33.17,4.18,5.24,7.05,7c4.3,2.63,11.91,6.9,11.91,6.9.78-3.28,4.13-8.37,7.5-9.52L203,174l3.17-33.09S208.68,126.18,201.63,120.29Z" style="fill:#BA68C8"></path><path d="M201.63,120.29c-2.28-.05-7.87,0-11,6.4s-2.8,11.15-3.23,19.34-1,30.48-.73,33.17,4.18,5.24,7.05,7c4.3,2.63,11.91,6.9,11.91,6.9.78-3.28,4.13-8.37,7.5-9.52L203,174l3.17-33.09S208.68,126.18,201.63,120.29Z" style="opacity:0.30000000000000004"></path><path d="M213.12,183.58s-2.62.24-5.27,3.91-2.23,5.61-2.23,5.61l7.7,4.63s1.3-6.74,5.87-9.14Z" style="fill:#455a64"></path><path d="M204.17,185.21c2.05-.19,2.41.11,3.85-.35s.83-1.31.41-1.85-4.7-1.19-3.65-2a7,7,0,0,1,4.29-1.06l-.64-.63a11.11,11.11,0,0,0-1.82-1q-.47-.19-1.08-.39c-2.41-.76-13.32-.75-18.95-.57,0,.89,0,1.54.08,1.88a6.09,6.09,0,0,0,2.13,3.44,4,4,0,0,1,2.08-.61c2.23-.14,6.38,1.93,7.65,2.39A14.27,14.27,0,0,0,204.17,185.21Z" style="opacity:0.1"></path></g></g><g id="character-1"><g id="character"><path d="M208.43,179.27l.64.63c.6-2.64-4.57-5.63-8.43-7s-29.09-4.76-29.09-4.76-3.12-8.93-6.66-20.59-8.68-13.82-12.26-13.69l-.08,19.31s7.64,17.5,9.57,22.08c1.36,3.25,4.08,4.07,7.13,4.05,4.64,0,20.52.31,23.32,1.14l.81.25h0c2.39.6,4.84,2.55,7.24,3.1a12,12,0,0,0,2,.23c.85,0,1.71,0,2.57,0l2.78,0a1.11,1.11,0,0,0,.36,0,.73.73,0,0,0,.41-.84,1.61,1.61,0,0,0-.55-.84,10.84,10.84,0,0,0-3.49-1.72,1,1,0,0,1-.65-.54A5.67,5.67,0,0,1,208.43,179.27Z" style="fill:#ffa8a7"></path><path d="M151.67,133.14s4.12.07,6.73,2.15,4.49,5.33,6,9.42,7.52,22.82,7.52,22.82l13.32,2.53a45.33,45.33,0,0,0-.79,9.58s-14.31-.08-17.71,0-3.73-1.38-5.91-5.28S151,153.22,151,153.22Z" style="fill:#BA68C8"></path><path d="M152.32,329.74c.05,2.05,2,7.18,2,7.18a7.26,7.26,0,0,0,4.61,2l-.66-7.69Z" style="fill:#263238"></path><polygon points="158.9 338.92 164.85 335 164.85 328.77 158.52 334.48 158.9 338.92"></polygon><path d="M161.58,319.77l-.29-1.27c1,.19,4.37,7.08,8.34,11.27,3.63,3.82,9.08,5,11.16,6.55,2.79,2-.34,6.49-7.19,6.86-3.4.19-8.82-.55-10.73-2.36s-3.43-5.67-4.94-7-4.58-2.44-5.61-4.11c-.57-.92-.66-3.19-.59-5.14.05-1.78.11-3.75.72-3.72.05.2.28,1.06.28,1.06.3.84,1.53,1.6,5,.81C159.33,322.4,162.06,321.48,161.58,319.77Z" style="fill:#BA68C8"></path><path d="M161.58,319.77l-.29-1.27c1,.19,4.37,7.08,8.34,11.27,3.63,3.82,9.08,5,11.16,6.55,2.79,2-.34,6.49-7.19,6.86-3.4.19-8.82-.55-10.73-2.36s-3.43-5.67-4.94-7-4.58-2.44-5.61-4.11c-.57-.92-.66-3.19-.59-5.14.05-1.78.11-3.75.72-3.72.05.2.28,1.06.28,1.06.3.84,1.53,1.6,5,.81C159.33,322.4,162.06,321.48,161.58,319.77Z" style="opacity:0.4"></path><path d="M88.41,297.3c-.92,1.61-1.64,12.22-1.64,12.22a30.05,30.05,0,0,0,4.48,4.3l3.5-10.34Z" style="fill:#263238"></path><polygon points="91.25 313.82 99.51 310.9 101.92 304.01 93.36 307.48 91.25 313.82"></polygon><path d="M94.41,290.83c-.59-.55-1.35.59-2.87,2.31a21.8,21.8,0,0,0-3.05,3.94c-.87,1.76,1.68,5.61,3.33,7.72s2.09,4.12,2.45,7.34c.43,3.9,0,6.36,5.18,9.28,4.15,2.33,12,1.95,13.53.15,2.61-3.07-4.66-6.06-6.41-11.55-2.42-7.57-2.76-8.84-3.14-14.27Z" style="fill:#BA68C8"></path><path d="M94.41,290.83c-.59-.55-1.35.59-2.87,2.31a21.8,21.8,0,0,0-3.05,3.94c-.87,1.76,1.68,5.61,3.33,7.72s2.09,4.12,2.45,7.34c.43,3.9,0,6.36,5.18,9.28,4.15,2.33,12,1.95,13.53.15,2.61-3.07-4.66-6.06-6.41-11.55-2.42-7.57-2.76-8.84-3.14-14.27Z" style="opacity:0.4"></path><path d="M159.13,181.64c-3.5,2.44-6.63,6.47-22.92,4.87l-1.91,50.58s-13,9.06-16.67,15-20.84,35.3-20.84,35.3h0L94.32,291c-1.53,2.25-.75,4,1.5,5.57s4.84,2.24,6.57.35l2.12-2.31s42-40.74,43.43-43.2,4.64-8.52,7.46-20.86C159,214.68,159.77,199,159.13,181.64Z" style="fill:#ffa8a7"></path><path d="M158,214.23a114.2,114.2,0,0,1-2.58,16.28c-2.82,12.34-6,18.4-7.46,20.86a42.82,42.82,0,0,1-3.44,3.77h0c-3,3.07-7.57,7.65-12.59,12.62.24-6.29,1.24-13.38,1.24-13.38-2.36-3.08-5.56-8.26-7.17-10.9l0,0,.73-.6.16-.14.59-.47.2-.17c.19-.14.37-.29.54-.43l.21-.16.52-.41.2-.16.51-.4.18-.13.55-.43.1-.07.61-.47h0l1.15-.86,0,0,.44-.33.09-.07.32-.23.12-.09.26-.18.08-.06.23-.16.06-.05.17-.12,0,0,.12-.08h0l.05,0,1.32-32.44Z" style="fill:#f28f8f"></path><path d="M162,320.74l-.14-.95c-1.72-8.51-5.91-55.9-7.42-68.65-1.63-13.79-8-47-8-47s8.06-16.19,12.65-22.54c-7.07,1.76-25.64,3.07-39.24.11.58,4.72-1.3,13.53-1.68,24-.66,18.18,17.64,48.61,17.64,48.61-.21,2.46-1.25,12.82,1.1,22,3.71,14.48,14,39.68,15.13,43.18l.81,3C154.76,324.27,161.14,323.24,162,320.74Z" style="fill:#ffa8a7"></path><path d="M119.89,181.75c-.12,2.06-5.83,11.79-5.68,26.34.06,6,4.39,24.6.52,37.58-.73,2.46-8.46,20.74-8.46,20.74S110,280.61,134.75,284c18.11,2.47,25.68-10,25.68-10s2.84-35.94,2.86-48.47c0-15.18-4.16-43.93-4.16-43.93Z" style="fill:#BA68C8"></path><path d="M119.89,181.75c-.12,2.06-5.83,11.79-5.68,26.34.06,6,4.39,24.6.52,37.58-.73,2.46-8.46,20.74-8.46,20.74S110,280.61,134.75,284c18.11,2.47,25.68-10,25.68-10s2.84-35.94,2.86-48.47c0-15.18-4.16-43.93-4.16-43.93Z" style="opacity:0.30000000000000004"></path><path d="M160.71,164.64c-.28,3.12-1,12.54-1.58,17-7.58,6.63-33,6.22-39.24.11l-.22-18.52s-.36-4.27-.35-4.29c.36-.61,11.46-11,4.4-24.29l10.38-1.51,13.28.23c3.06.17,5.25.46,5.25.46,2,1.84,4.62,5.89,7.26,11.16C161.49,148.16,166.19,155.16,160.71,164.64Z" style="fill:#BA68C8"></path><path d="M160.71,164.64c-.28,3.12-1,12.54-1.58,17-7.58,6.63-33,6.22-39.24.11l-.22-18.52s-.36-4.27-.35-4.29c.36-.61,11.46-11,4.4-24.29l10.38-1.51,13.28.23c3.06.17,5.25.46,5.25.46,2,1.84,4.62,5.89,7.26,11.16C161.49,148.16,166.19,155.16,160.71,164.64Z" style="fill:#fff;opacity:0.6000000000000001"></path><path d="M97.76,199.77A92.2,92.2,0,0,0,97.69,211c1.13,9.77,3.87,13,8,13.89,6.59,1.37,7-1.12,4.59-5.82a21.41,21.41,0,0,1-2.12-6.55,15.86,15.86,0,0,0,2.91,2.51,2.31,2.31,0,0,0,3.12-.4c.28-.41-.81-1-1.87-2.76-1.36-2.21-1.59-4.28-3.6-6.24a4.65,4.65,0,0,1-1-2.94c-.16-1.39,3.29-22.81,4.59-26.39l9.24-20.14c2.62-5.38,9.19-17.55,2.58-21.9-9.12-.27-12,7.75-22.63,33.29C99.63,172.13,98,192.36,97.76,199.77Z" style="fill:#ffa8a7"></path><path d="M108.13,199.28s3.5-19.6,4.67-22.55,13-27.07,13-27.07,3.37-10.54.47-15.1c0,0-6.45-1.29-9.8,2s-8.76,14.28-12.81,24.14-4.34,14.43-5.18,21.06-.8,18.57-.8,18.57S101.4,198.38,108.13,199.28Z" style="fill:#BA68C8"></path><path d="M142.81,87.48c2.16,3.74-.15,9.12-5.16,12s-10.81,2.2-13-1.54.15-9.11,5.16-12S140.65,83.74,142.81,87.48Z" style="fill:#e0e0e0"></path><path d="M142.81,87.48c2.16,3.74-.15,9.12-5.16,12s-10.81,2.2-13-1.54.15-9.11,5.16-12S140.65,83.74,142.81,87.48Z" style="opacity:0.05"></path><path d="M135.79,127c-2.73,0-6.25-.8-9.77-5.47-3.14-4.17-5.39-11.26-.79-19.19,4-6.88,16.34-15.69,27.32-12.89a16,16,0,0,1,11.77,12.07,15.55,15.55,0,0,1-4,11.71C157,116.8,135.79,127,135.79,127Z" style="fill:#e0e0e0"></path><path d="M135.79,127c-2.73,0-6.25-.8-9.77-5.47-3.14-4.17-5.39-11.26-.79-19.19,4-6.88,16.34-15.69,27.32-12.89a16,16,0,0,1,11.77,12.07,15.55,15.55,0,0,1-4,11.71C157,116.8,135.79,127,135.79,127Z" style="fill:#e0e0e0"></path><path d="M157.08,100.89c1.42,1.54,3.43,3,3.17,14.26-.22,9.55-3.9,12-5.45,12.66s-4.56.27-7.47-.22v5.73s1.14,3-4.08,3.25c-7.93.46-9.15-2.84-9.15-2.84l0-11.34s-2.23.79-4.71-2.15c-2.06-2.44-2.54-6.2-.67-8.1a4.19,4.19,0,0,1,6.66,1.32s1.84-10.15,8.69-11.88S152.82,106.69,157.08,100.89Z" style="fill:#ffa8a7"></path><path d="M144.59,111.36a1.3,1.3,0,0,0-.92-.34h-.43a1.35,1.35,0,0,0-.28,0l-.06,0-.08,0c-.08,0-.09.12-.12.2a.32.32,0,0,0,.22.41s.29,0,.16,0h1.15a1.52,1.52,0,0,1,.21,0,.18.18,0,0,0,.24-.1A.34.34,0,0,0,144.59,111.36Z" style="fill:#f28f8f"></path><path d="M144.38,112.37a.8.8,0,0,0-.34,0,.53.53,0,0,1-.15,0h0l-.07,0-.15,0a2.81,2.81,0,0,0-.7.14c-.1,0-.09.2-.06.27a.36.36,0,0,0,.23.25,1.35,1.35,0,0,0,.49,0l.3,0a2,2,0,0,0,.35-.11l.12,0,.11-.07a.36.36,0,0,0,.12-.29A.26.26,0,0,0,144.38,112.37Z" style="fill:#f28f8f"></path><path d="M159.73,110.43a.26.26,0,0,0-.38-.11,2.34,2.34,0,0,1-.24.09l-.45.14a.25.25,0,0,0-.09,0,.15.15,0,0,0,0,.19c.13.2.37.18.58.17a1.4,1.4,0,0,0,.57-.13.21.21,0,0,0,.08-.17A.37.37,0,0,0,159.73,110.43Z" style="fill:#f28f8f"></path><path d="M159.82,112.07l0,0s0,0,0,0l0,0,0,0,0,0-.12-.09h0l-.18-.11a2.31,2.31,0,0,0-.55-.26.23.23,0,0,0-.29.23.41.41,0,0,0,.13.19,2.16,2.16,0,0,0,.35.24l.07,0a3.38,3.38,0,0,0,.41.24.23.23,0,0,0,.34-.15A.32.32,0,0,0,159.82,112.07Z" style="fill:#f28f8f"></path><path d="M147.73,120.23l0,0h0Z" style="fill:#f28f8f"></path><path d="M148.08,119.45c0-.1,0-.25-.15-.28h0l0,0a.75.75,0,0,0-.15,0,.44.44,0,0,0-.16.06,1.32,1.32,0,0,0-.2.12l-.08.09a.89.89,0,0,0-.14.25.64.64,0,0,0,0,.17V120a.5.5,0,0,0,0,.13.36.36,0,0,0,0,.11.46.46,0,0,0,.19.2l.06,0c.06,0,.11,0,.15-.08s.09-.07.1-.1l0,0a.32.32,0,0,0,.09-.16v0h0v0a.29.29,0,0,1,0-.09l0,.07a.88.88,0,0,1,.1-.22l.07-.11,0,.06.06-.08.08-.09A.34.34,0,0,0,148.08,119.45Z" style="fill:#f28f8f"></path><path d="M147.72,120.25h0v0A.08.08,0,0,0,147.72,120.25Z" style="fill:#f28f8f"></path><path d="M148.2,111.61a1.2,1.2,0,1,1-1.31-1.12A1.22,1.22,0,0,1,148.2,111.61Z" style="fill:#263238"></path><g style="opacity:0.5;mix-blend-mode:multiply"><path d="M148.8,120.11l3.49.93a1.78,1.78,0,0,1-2.17,1.34A1.89,1.89,0,0,1,148.8,120.11Z" style="fill:#ffa8a7"></path></g><path d="M158.68,108l-2.7-1.2a1.41,1.41,0,0,1,1.9-.78A1.55,1.55,0,0,1,158.68,108Z" style="fill:#e0e0e0"></path><path d="M146.8,107.56l-2.53,1.54a1.42,1.42,0,0,1,.44-2A1.56,1.56,0,0,1,146.8,107.56Z" style="fill:#e0e0e0"></path><path d="M157.86,110.87a1.12,1.12,0,1,1-1.23-1.05A1.14,1.14,0,0,1,157.86,110.87Z" style="fill:#263238"></path><g style="opacity:0.5;mix-blend-mode:multiply"><polygon points="152.67 111.02 153.29 119.28 157.58 117.72 152.67 111.02" style="fill:#ffa8a7"></polygon></g><g style="opacity:0.5;mix-blend-mode:multiply"><path d="M147.33,127.59c-3.07-.4-9.4-2.22-10.38-4.72a6.49,6.49,0,0,0,2.22,3.19c1.88,1.62,8.16,3.44,8.16,3.44Z" style="fill:#ffa8a7"></path></g><path d="M134.1,133.14l-4.59.66s17.72,24.25,22.3,36.23c0,0,1.7-27.63-3.06-36.58l-1.42-.13v-.85s6.89.46,9.41,1.36c4.1,1.46,7.73,6.53,11.36,20.47,0,0-6.86,15-16.19,19.68,0,0-34.54-6.8-46.75-18.35,0,0,4.67-10.36,7.73-15.57,2-3.34,4.54-5.34,9.63-6.23s11.57-1.36,11.57-1.36Z" style="fill:#455a64"></path><path d="M150.72,172.87c-1.23.36-2.82,1.76-2.89,4.6a13.07,13.07,0,0,1-.6,4.15,6,6,0,0,0,4.13-4.25C152.39,174.32,152.06,172.48,150.72,172.87Z" style="fill:#455a64"></path><path d="M153,171.78c1.24.36,2.82,1.76,2.89,4.6a12.83,12.83,0,0,0,.61,4.15,6,6,0,0,1-4.14-4.25C151.34,173.23,151.66,171.39,153,171.78Z" style="fill:#455a64"></path></g></g></svg>